<svg xmlns="http://www.w3.org/2000/svg" viewBox="0 0 104.78 116.84"><defs><style>.cls-1{stroke:#060707;stroke-width:3px;}.cls-1,.cls-2{stroke-miterlimit:10;}.cls-2{stroke:#0e0f0f;stroke-width:2px;}.cls-3{fill:#caebf4;}.cls-4{fill:#b9baba;opacity:0.58;}.cls-5{fill:#70422c;}.cls-6{fill:#512e20;}.cls-7{fill:#fff;}.cls-8{fill:#050707;}.cls-9{fill:#0c0906;}.cls-10{fill:#0f0d0a;}.cls-11{fill:#869ea3;}.cls-12{fill:#fcfcfc;}</style></defs><g id="Layer_2" data-name="Layer 2"><g id="Layer_1-2" data-name="Layer 1"><path class="cls-1" d="M60.47,100.6l.32,15Z"/><path class="cls-1" d="M67.25,115.34h0Z"/><path class="cls-1" d="M49.42,100.6l-.31,15Z"/><path class="cls-1" d="M42.64,115.34h0Z"/><path class="cls-2" d="M94.83,80.15,83.12,67.21Z"/><path class="cls-2" d="M94.83,80.15l9.83,1.2Z"/><path class="cls-2" d="M94.83,80.15l6.46,7.13Z"/><path class="cls-2" d="M94.54,90l.29-9.8Z"/><path class="cls-2" d="M9.94,82.15,21.66,69.21Z"/><path class="cls-2" d="M9.94,82.15.12,83.35Z"/><path class="cls-2" d="M9.94,82.15,3.49,89.28Z"/><path class="cls-2" d="M10.23,92l-.29-9.8Z"/><path class="cls-3" d="M20.75,51.34V94.72s-1,9.62,7,8.62l50.13.07s8.87,1.93,6.87-6.07l.29-46Z"/><path class="cls-4" d="M84.25,55.84S73.58,60.18,69.81,59a4.4,4.4,0,0,1-1.45.25h0a4.45,4.45,0,0,1-1.5.26c-.12,0-.22,0-.33,0C62,61.6,51.62,65.21,44.75,58.34c0,0-18.47-3.92-20.73-4,0,0-10.77-1.54-1.77,5.46,0,0,10,8,15,6,0,0,1,5,12,4,0,0,11.51,6.26,22.26.13,0,0,6.74-7.13,13.74-5.13C85.25,64.84,93.25,55.84,84.25,55.84Z"/><path class="cls-5" d="M87.25,54.84l-2-31s-1-9-8-4c0,0-1-7-6-3,0,0-1-11-8-7l-1-6s2-6-10-3l-25,1s-7,0-7,7V50.61s15,7.23,22,5.23c0,0,11,10,26,2Z"/><path class="cls-6" d="M69.67,47.4c-.39-2.08-.79-4.16-1.16-6.24-.42-2.36-.48-5,.92-6.84a4.58,4.58,0,0,1,5.46-2.63c.94-.13,1.88-.21,2.77-.29,1.25-.12,2.5-.2,3.75-.27L83,31c.29,0,1.62-.17.31,0a5.51,5.51,0,0,1,2.4.19l-.48-7.38a10.42,10.42,0,0,0-.9-3c0,.2.07.39.08.59.1,2.26-2.15,4.75-4.5,4.5-2.17-.23-4.33-.58-6.47-1-2.47-.49-3.65-3.3-3.14-5.53a3.78,3.78,0,0,1,.83-1.66,4,4,0,0,1,1.93-1.93,6.06,6.06,0,0,0-1.83,1.06s-.81-8.84-6-7.78a4.46,4.46,0,0,1,.31,1.46c.2,4.84,1.57,11.3-2.71,14.91-2.83,2.4-7.69,1.66-11.17,1.75-12.72.3-8.08-17.71-7.55-25.51,0-.18.06-.34.09-.51l-4.64.19a4.72,4.72,0,0,1,.28,1.51c0,4.85.95,11.86-.88,17.14-.13,2.44-.67,4.83-2.88,6.32s-4.54,1-6.89.92a68.53,68.53,0,0,1-8.94-.42V50.61s15,7.23,22,5.23c0,0,11,10,26,2l3.17-.5A4.14,4.14,0,0,1,70,54.1C70,51.86,69.82,49.63,69.67,47.4ZM41.2,50.18c-.31,4.08-4.59,5.67-7.68,3.18-.18-.14-1.14-.86-1.68-1.38a4.48,4.48,0,0,1-.63.06,5.91,5.91,0,0,1-3-.74c-2.75,1.26-6.63,0-6.38-3.84.19-2.85.51-5.68.86-8.51A4.8,4.8,0,0,1,26,34.61a3.83,3.83,0,0,1,1.26-.45,4.35,4.35,0,0,1,2.81-1.08c1.14,0,2.27-.13,3.4-.17a4.06,4.06,0,0,1,2.53.75,4.21,4.21,0,0,1,1.84,1.45,4.22,4.22,0,0,1,1.33,2.13c.08.32.16.64.23,1a29.4,29.4,0,0,1,1.81,11A7.53,7.53,0,0,1,41.2,50.18Zm23.59-.08c-.13,3-.5,6-3.39,7.57-4.35,2.4-12.81,1.68-15.65-2.69-1.5-2.31-1.47-5.21-1.47-7.86,0-4.2.31-8.4.34-12.6,0-3.94,4.21-5.2,6.86-3.77L52,30.7a4.23,4.23,0,0,1,2.52.67c.9-.08,2-.17,2.57-.17a10.2,10.2,0,0,1,3.92.57c3.14,1.28,4.07,4.45,4.36,7.57C65.73,42.94,65,46.51,64.79,50.1Z"/><path class="cls-7" d="M84.25,51.84S73.58,56.18,69.81,55a4.4,4.4,0,0,1-1.45.25h0a4.45,4.45,0,0,1-1.5.26c-.12,0-.22,0-.33,0C62,57.6,51.62,61.21,44.75,54.34c0,0-18.47-3.92-20.73-4,0,0-10.77-1.54-1.77,5.46,0,0,10,8,15,6,0,0,1,5,12,4,0,0,11.51,6.26,22.26.13,0,0,6.74-7.13,13.74-5.13C85.25,60.84,93.25,51.84,84.25,51.84Z"/><rect class="cls-8" x="42.34" y="1.23" width="0.25" height="52.63"/><rect class="cls-8" x="67.11" y="9.16" width="0.25" height="45.08"/><rect class="cls-8" x="20.25" y="29.29" width="65.36" height="0.25"/><circle class="cls-9" cx="45.25" cy="78.84" r="5.5"/><circle class="cls-10" cx="61.25" cy="80.84" r="5.5"/><circle class="cls-7" cx="44.75" cy="77.34" r="3.5"/><circle class="cls-7" cx="61.75" cy="79.34" r="3.5"/><path class="cls-11" d="M66.25,88.36c-15.15,21.63-28.2-.52-28.2-.52Z"/><rect class="cls-12" x="46.97" y="87.84" width="4.02" height="4.66"/><rect class="cls-12" x="51.79" y="87.84" width="2.81" height="3.26"/></g></g></svg>
