<svg id="Layer_1" data-name="Layer 1" xmlns="http://www.w3.org/2000/svg" viewBox="0 0 1505 381"><defs><style>.cls-1{fill:#020202;}.cls-2{fill:#060707;}.cls-3{fill:#485b60;}.cls-4{fill:#728184;}.cls-5{fill:#030505;}.cls-6{fill:#ed96b8;}.cls-7{fill:#e56197;}.cls-8{fill:#fff;}.cls-9{fill:#040707;}.cls-10,.cls-22{stroke:#060707;}.cls-10,.cls-11,.cls-21,.cls-22,.cls-23{stroke-miterlimit:10;}.cls-10,.cls-21{stroke-width:3px;}.cls-11{stroke:#0e0f0f;}.cls-11,.cls-22,.cls-23{stroke-width:2px;}.cls-12{fill:#caebf4;}.cls-13{fill:#b9baba;opacity:0.58;}.cls-14{fill:#70422c;}.cls-15{fill:#512e20;}.cls-16{fill:#050707;}.cls-17{fill:#0c0906;}.cls-18{fill:#0f0d0a;}.cls-19{fill:#869ea3;}.cls-20{fill:#fcfcfc;}.cls-21,.cls-23{stroke:#020202;}.cls-24{fill:#b6d4d6;}.cls-25{fill:#020101;}.cls-26{fill:#0b0e0f;}.cls-27{fill:#f2f4f4;}.cls-28{fill:#131516;}</style></defs><path d="M30.41,219.13l28-28.2Z"/><rect class="cls-1" x="24.54" y="202.82" width="39.73" height="4.42" transform="translate(-132.44 92.18) rotate(-45.24)"/><path d="M30.41,219.13l-1,23.06Z"/><rect class="cls-1" x="18.39" y="228.45" width="23.08" height="4.42" transform="translate(-201.76 251.11) rotate(-87.65)"/><path d="M30.41,219.13,15,234.68Z"/><rect class="cls-1" x="11.74" y="224.69" width="21.9" height="4.42" transform="translate(-154.35 83.18) rotate(-45.22)"/><path d="M7.47,219.06l22.94.07Z"/><rect class="cls-1" x="16.73" y="207.63" width="4.42" height="22.94" transform="translate(-200.22 237.29) rotate(-89.81)"/><path d="M149.7,318.2l1.47,60.56Z"/><rect class="cls-1" x="147.11" y="318.2" width="6.64" height="60.57" transform="translate(-8.4 3.75) rotate(-1.39)"/><rect class="cls-1" x="147.06" y="374.39" width="34.11" height="6.64"/><path d="M98.44,318.2,97,378.76Z"/><rect class="cls-1" x="67.42" y="345.16" width="60.57" height="6.64" transform="translate(-253.03 437.76) rotate(-88.62)"/><path d="M67,377.71h0Z"/><rect class="cls-1" x="66.97" y="374.39" width="34.11" height="6.64"/><path d="M213.93,216.84l-26.67-29.46Z"/><rect class="cls-2" x="198.39" y="182.24" width="4.42" height="39.73" transform="translate(-83.76 186.93) rotate(-42.16)"/><path d="M213.93,216.84l23,2.18Z"/><rect class="cls-2" x="223.21" y="206.39" width="4.42" height="23.08" transform="translate(-12.84 421.73) rotate(-84.57)"/><path d="M213.93,216.84l14.7,16.23Z"/><rect class="cls-2" x="219.07" y="214" width="4.42" height="21.9" transform="translate(-93.74 206.74) rotate(-42.16)"/><path d="M212.63,239.74l1.3-22.9Z"/><rect class="cls-2" x="201.81" y="226.07" width="22.94" height="4.42" transform="translate(-26.72 428.3) rotate(-86.75)"/><path class="cls-3" d="M163.33,105.27s45.33,97.92,43.75,147.88c0,0,.83,64.37-31.51,70.17,0,0-4.75,11.32-46.92,8.76,0,0-54.19.59-54.09-8.87,0,0-27.45-3.94-31.22-56.75,0,0,5.31-101.29,45.11-161.19l.1-3.18,2.26-75.78S92.29,17,110.47,17h37.94s16.11,2.36,13.35,17.34Z"/><path class="cls-4" d="M74.69,298.88C61.5,282.44,50.41,263.5,45.58,242.82c-1.75,14.46-2.24,23.64-2.24,23.64,3.77,52.81,31.22,56.75,31.22,56.75-.07,6.55,25.91,8.28,41.89,8.73A117.6,117.6,0,0,1,74.69,298.88Z"/><rect class="cls-5" x="88.65" y="104.48" width="74.88" height="1.58"/><ellipse class="cls-6" cx="125.3" cy="208.13" rx="56.36" ry="94.59"/><path class="cls-7" d="M135.5,270.69a157.68,157.68,0,0,1-28.92-23.76,138.28,138.28,0,0,1-35.39-65.29A155.08,155.08,0,0,0,69,208.13c0,52.24,25.23,94.59,56.35,94.59,13.45,0,25.8-7.92,35.49-21.12C151.75,279.57,142.94,275.36,135.5,270.69Z"/><path class="cls-6" d="M150.13,16H102.45a14,14,0,0,0-14,13.92v75.54h75.67V29.92A14,14,0,0,0,150.13,16Z"/><path d="M82,205.35h3.71L87.4,217.2h0l1.65-11.85h3.71v16.56H90.35V209.37h0l-1.89,12.54H86.24l-1.89-12.54h0v12.54H82Z"/><path d="M96.76,205.35h3.53L103,221.91h-2.6l-.47-3.29v0H97l-.47,3.24H94.07Zm2.84,11.07-1.16-8.18h0l-1.13,8.18Z"/><path d="M104.23,205.35h3.86a4,4,0,0,1,2.93.94,3.91,3.91,0,0,1,.92,2.87v1c0,1.72-.56,2.8-1.7,3.26v.05a2,2,0,0,1,1.34,1.16A5.81,5.81,0,0,1,112,217v2.91c0,.47,0,.85,0,1.14a3.05,3.05,0,0,0,.24.87H109.6a4,4,0,0,1-.19-.76,12.43,12.43,0,0,1,0-1.28v-3a2.61,2.61,0,0,0-.37-1.59,1.57,1.57,0,0,0-1.27-.45h-.89v7.1h-2.61Zm3.55,7.1a1.59,1.59,0,0,0,1.17-.4,1.91,1.91,0,0,0,.39-1.35v-1.28a2.05,2.05,0,0,0-.32-1.3,1.18,1.18,0,0,0-1-.4h-1.18v4.73Z"/><path d="M113.76,205.35h3.72l1.65,11.85h.05l1.65-11.85h3.72v16.56h-2.46V209.37h0l-1.89,12.54H118l-1.89-12.54h0v12.54h-2.27Z"/><path d="M126.49,205.35h7.09v2.37h-4.49v4.37h3.57v2.37h-3.57v5.08h4.49v2.37h-7.09Z"/><path d="M135.07,205.35h2.6v14.19H142v2.37h-6.88Z"/><path d="M145.31,205.35h3.52l2.7,16.56h-2.6l-.48-3.29v0H145.5l-.48,3.24h-2.41Zm2.84,11.07L147,208.24h-.05l-1.14,8.18Z"/><path d="M152.78,205.35h4a3.78,3.78,0,0,1,2.91,1,4.34,4.34,0,0,1,1,3.06v8.37a4.31,4.31,0,0,1-1,3.05,3.78,3.78,0,0,1-2.91,1h-4Zm3.93,14.19a1.24,1.24,0,0,0,1-.38,1.79,1.79,0,0,0,.34-1.23v-8.6a1.79,1.79,0,0,0-.34-1.23,1.27,1.27,0,0,0-1-.38h-1.33v11.82Z"/><path d="M162.38,205.35h7.09v2.37H165v4.37h3.57v2.37H165v5.08h4.49v2.37h-7.09Z"/><path class="cls-8" d="M129.67,155.11c-.23,0,15.54-6.39,15.54-6.39Z"/><path d="M129.2,155.72l-.11-.48c-.06-.28-.08-.41.37-.66v0l.22-.09c.42-.2,1.1-.48,2.2-.94l5.34-2.19,7.77-3.17.45,1.1L129.8,155.7Z"/><path class="cls-8" d="M122.74,155.11c.23,0-15.53-6.39-15.53-6.39Z"/><path d="M123.21,155.72l-.6,0L107,149.27l.45-1.1,7.77,3.17,5.35,2.19c1.09.46,1.77.74,2.19.94l.22.09v0c.45.25.42.38.36.66Z"/><ellipse class="cls-8" cx="114.27" cy="168.91" rx="6.9" ry="12.22"/><ellipse class="cls-8" cx="137.91" cy="168.91" rx="6.9" ry="12.22"/><rect x="107.37" y="190.58" width="37.83" height="1.18"/><circle class="cls-9" cx="116.63" cy="170.29" r="4.53"/><circle class="cls-9" cx="138.7" cy="170.29" r="4.53"/><path class="cls-10" d="M406.57,329.21l1,46.55Z"/><path class="cls-10" d="M427.62,375h0Z"/><path class="cls-10" d="M372.29,329.21l-1,46.55Z"/><path class="cls-10" d="M351.24,375h0Z"/><path class="cls-11" d="M513.22,265.73l-36.35-40.14Z"/><path class="cls-11" d="M513.22,265.73l30.48,3.73Z"/><path class="cls-11" d="M513.22,265.73l20,22.13Z"/><path class="cls-11" d="M512.31,296.16l.91-30.43Z"/><path class="cls-11" d="M249.77,271.94l36.34-40.14Z"/><path class="cls-11" d="M249.77,271.94l-30.49,3.72Z"/><path class="cls-11" d="M249.77,271.94l-20,22.13Z"/><path class="cls-11" d="M250.67,302.37l-.9-30.43Z"/><path class="cls-12" d="M283.31,176.33V311S280.2,340.81,305,337.71l155.57.23s27.53,6,21.33-18.85l.91-142.76Z"/><path class="cls-13" d="M480.37,190.3s-33.11,13.48-44.8,9.91a14.5,14.5,0,0,1-4.52.75H431a14.11,14.11,0,0,1-4.65.8c-.37,0-.68-.08-1-.1-14,6.51-46.16,17.73-67.48-3.59,0,0-57.32-12.18-64.35-12.3,0,0-33.41-4.77-5.48,17,0,0,31,24.83,46.55,18.62,0,0,3.11,15.52,37.24,12.42,0,0,35.73,19.44,69.07.41,0,0,20.93-22.14,42.66-15.93C483.48,218.23,508.31,190.3,480.37,190.3Z"/><path class="cls-14" d="M489.69,187.19,483.48,91s-3.11-27.93-24.83-12.42c0,0-3.1-21.72-18.62-9.31,0,0-3.1-34.14-24.83-21.72l-3.1-18.62s6.21-18.62-31-9.31l-77.58,3.1s-21.73,0-21.73,21.72V174.05S328.31,196.5,350,190.3c0,0,34.14,31,80.69,6.2Z"/><path class="cls-15" d="M435.12,164.09c-1.22-6.45-2.46-12.9-3.61-19.36-1.3-7.31-1.47-15.39,2.88-21.22,2.57-7,10.35-9.73,16.94-8.15,2.91-.42,5.84-.66,8.6-.92,3.87-.38,7.74-.6,11.61-.84,1.67-.11,3.35-.25,5-.33.91,0,5.05-.54,1,0a16.56,16.56,0,0,1,7.44.58L483.48,91a32.72,32.72,0,0,0-2.79-9.37,15.11,15.11,0,0,1,.25,1.84c.31,7-6.68,14.74-14,14-6.75-.71-13.43-1.82-20.09-3.14-7.66-1.52-11.33-10.24-9.75-17.18A11.92,11.92,0,0,1,439.71,72a12.41,12.41,0,0,1,6-6,18.77,18.77,0,0,0-5.69,3.3s-2.51-27.42-18.68-24.15a14.59,14.59,0,0,1,.95,4.54c.62,15,4.88,35.05-8.39,46.27-8.81,7.44-23.87,5.16-34.67,5.42-39.5.94-25.09-54.95-23.43-79.16a15.12,15.12,0,0,1,.26-1.57l-14.38.57a14.62,14.62,0,0,1,.85,4.7c.11,15,3,36.82-2.74,53.18-.38,7.6-2.06,15-8.94,19.63-6.51,4.39-14.06,3-21.37,2.84-9.1.71-18.67-.77-27.74-1.3v73.82S328.31,196.5,350,190.3c0,0,34.14,31,80.69,6.2l9.83-1.55a13,13,0,0,1-4.45-10.07C436,177.94,435.6,171,435.12,164.09Zm-88.36,8.64c-1,12.68-14.23,17.59-23.84,9.88-.56-.45-3.51-2.68-5.21-4.29a17.16,17.16,0,0,1-11.33-2.1c-8.52,3.9-20.55,0-19.77-11.94.57-8.84,1.55-17.62,2.64-26.41.78-6.33,4.27-11.84,10.3-13.45a12.51,12.51,0,0,1,3.93-1.42,13.43,13.43,0,0,1,8.71-3.32c3.53-.11,7-.42,10.57-.53a12.45,12.45,0,0,1,7.84,2.32,12.81,12.81,0,0,1,5.7,4.5,13.11,13.11,0,0,1,4.15,6.6c.23,1,.47,2,.71,3,4.2,10.73,5.81,23,5.62,34.23A22.09,22.09,0,0,1,346.76,172.73Zm73.23-.25c-.42,9.27-1.56,18.53-10.54,23.49-13.48,7.44-39.75,5.23-48.57-8.35-4.66-7.15-4.56-16.16-4.54-24.4,0-13,.94-26.05,1.05-39.09.1-12.24,13.05-16.12,21.28-11.71.56,0,1.11-.12,1.67-.14a13,13,0,0,1,7.83,2.07c2.79-.25,6.19-.51,8-.51,4.15,0,8.29.18,12.16,1.76,9.75,4,12.63,13.8,13.55,23.48C422.9,150.26,420.49,161.35,420,172.48Z"/><path class="cls-8" d="M480.37,177.88s-33.11,13.48-44.8,9.91a14.21,14.21,0,0,1-4.52.76H431a14.37,14.37,0,0,1-4.65.8c-.37,0-.68-.08-1-.1-14,6.5-46.16,17.73-67.48-3.6,0,0-57.32-12.18-64.35-12.29,0,0-33.41-4.78-5.48,17,0,0,31,24.82,46.55,18.62,0,0,3.11,15.51,37.24,12.41,0,0,35.73,19.44,69.07.41,0,0,20.93-22.13,42.66-15.93C483.48,205.81,508.31,177.88,480.37,177.88Z"/><rect class="cls-16" x="350.3" y="20.82" width="0.78" height="163.33"/><rect class="cls-16" x="427.17" y="45.43" width="0.78" height="139.89"/><rect class="cls-16" x="281.75" y="107.9" width="202.84" height="0.78"/><circle class="cls-17" cx="359.34" cy="261.68" r="17.07"/><circle class="cls-18" cx="409" cy="267.88" r="17.07"/><circle class="cls-8" cx="357.79" cy="257.02" r="10.86"/><circle class="cls-8" cx="410.55" cy="263.23" r="10.86"/><path class="cls-19" d="M424.51,291.21c-47,67.14-87.51-1.6-87.51-1.6Z"/><rect class="cls-20" x="364.67" y="289.61" width="12.47" height="14.45"/><rect class="cls-20" x="379.63" y="289.61" width="8.73" height="10.12"/><path class="cls-21" d="M757.72,294l2.07,87Z"/><path class="cls-21" d="M802.14,379.51h0Z"/><path class="cls-21" d="M685.37,294l-2.07,87Z"/><path class="cls-21" d="M641,379.51h0Z"/><path class="cls-22" d="M852.28,217.86l-71.49-79Z"/><path class="cls-22" d="M852.28,217.86l61.57,5.85Z"/><path class="cls-22" d="M852.28,217.86l39.4,43.52Z"/><path class="cls-22" d="M848.79,279.25l3.49-61.39Z"/><path class="cls-23" d="M587.49,238.81l75-75.58Z"/><path class="cls-23" d="M587.49,238.81l-2.56,61.81Z"/><path class="cls-23" d="M587.49,238.81l-41.36,41.67Z"/><path class="cls-23" d="M526,238.61l61.49.2Z"/><path class="cls-12" d="M632.57,65l-22.2-31.63,22.2-3.7S681.85,65,713.73,56.33c0,0,84.06-1.36,104.35-32.56V52.63L806.49,67.92s14.49,74.14,11.59,96.49c0,0,2.07,71.44-1.86,96.17l-9.73,26.84,7.66,17.66-12.66,14.23-9.62-6s-73.32,11.09-75.73,4.61c0,0-68.22-2.15-71.54-15.91l-24.17,17.34-10.06-23.17,10.06-5.79s-4.9-105.28,0-108.06C620.43,182.29,625.33,63.57,632.57,65Z"/><path class="cls-24" d="M638.68,202.37c-.63-50.5,3.81-101.16,14.57-150.51A20.06,20.06,0,0,1,656.69,44a207.56,207.56,0,0,1-24.12-14.35l-22.2,3.7L632.57,65c-7.24-1.45-12.14,117.27-12.14,117.27-4.9,2.78,0,108.06,0,108.06l-10.06,5.79,10.06,23.17L644.6,302c1.17,4.86,10.48,8.27,22,10.65C645.25,281.13,639.14,239.3,638.68,202.37Z"/><path class="cls-6" d="M731,177.65c-58.6,0-109.57-12.48-110.33-12.67l.7-2.81c1.14.28,115.11,28.18,197.73,0l.94,2.74C792,174.48,760.52,177.65,731,177.65Z"/><path class="cls-6" d="M682.16,159.86a6.56,6.56,0,0,1-1.43-4.54v-1.39h3.62v1.67c0,1.58.66,2.36,2,2.36a1.86,1.86,0,0,0,1.48-.57,2.76,2.76,0,0,0,.51-1.86,5.16,5.16,0,0,0-.7-2.69,12.94,12.94,0,0,0-2.57-2.81,15.34,15.34,0,0,1-3.31-3.77,7.74,7.74,0,0,1-.94-3.81,6.38,6.38,0,0,1,1.46-4.47,5.52,5.52,0,0,1,4.25-1.58,5.27,5.27,0,0,1,4.15,1.58,6.62,6.62,0,0,1,1.41,4.54v1h-3.61v-1.25a2.82,2.82,0,0,0-.49-1.83,1.78,1.78,0,0,0-1.43-.57c-1.27,0-1.91.78-1.91,2.33a4.66,4.66,0,0,0,.71,2.47,14,14,0,0,0,2.59,2.78,14.56,14.56,0,0,1,3.31,3.79,8.46,8.46,0,0,1,.9,4,6.48,6.48,0,0,1-1.48,4.59,5.52,5.52,0,0,1-4.29,1.6A5.35,5.35,0,0,1,682.16,159.86Z"/><path class="cls-6" d="M695.66,159.86a6.42,6.42,0,0,1-1.47-4.54V136.75H698V155.6a2.7,2.7,0,0,0,.5,1.81,2.17,2.17,0,0,0,2.89,0,2.64,2.64,0,0,0,.51-1.81V136.75h3.68v18.57a6.42,6.42,0,0,1-1.46,4.54,6.48,6.48,0,0,1-8.48,0Z"/><path class="cls-6" d="M708.32,136.75h3.82V147L717,136.75h3.83l-4.56,8.94,4.63,15.41h-4l-3.24-10.86-1.53,3.1v7.76h-3.82Z"/><path class="cls-6" d="M722.71,136.75h3.83V147l4.87-10.26h3.83l-4.56,8.94,4.62,15.41h-4l-3.24-10.86-1.53,3.1v7.76h-3.83Z"/><path class="cls-6" d="M737.11,136.75h10.44v3.48h-6.61v6.43h5.25v3.48h-5.25v7.48h6.61v3.48H737.11Z"/><path class="cls-6" d="M749.74,136.75h5.67a5.87,5.87,0,0,1,4.31,1.37,5.8,5.8,0,0,1,1.36,4.23v1.49q0,3.79-2.51,4.8v.07a3,3,0,0,1,2,1.71,8.61,8.61,0,0,1,.57,3.44v4.28c0,.69,0,1.26.07,1.68a4.29,4.29,0,0,0,.35,1.28h-3.9a5.18,5.18,0,0,1-.27-1.12,15.85,15.85,0,0,1-.07-1.88v-4.45a3.78,3.78,0,0,0-.54-2.33,2.28,2.28,0,0,0-1.86-.66h-1.33V161.1h-3.82ZM755,147.18a2.33,2.33,0,0,0,1.72-.59,2.79,2.79,0,0,0,.57-2v-1.88a3.09,3.09,0,0,0-.47-1.91,1.75,1.75,0,0,0-1.48-.59h-1.74v7Z"/><path class="cls-8" d="M738.18,85.31c-5.54,0-10.35,6.29-12.85,15.56-2.51-9.27-7.32-15.56-12.85-15.56-8.11,0-14.69,13.5-14.69,30.15a61,61,0,0,0,.48,7.53h54.11a61,61,0,0,0,.48-7.53C752.86,98.81,746.29,85.31,738.18,85.31Z"/><path class="cls-25" d="M734.45,96.91c-3.83,0-7.17,4.35-8.9,10.77-1.73-6.42-5.07-10.77-8.9-10.77-5.61,0-10.16,9.34-10.16,20.87a41.74,41.74,0,0,0,.33,5.21h37.46a41.74,41.74,0,0,0,.33-5.21C744.61,106.25,740.06,96.91,734.45,96.91Z"/><path class="cls-19" d="M793.44,203.46c-75.05,92.44-139.7-2.21-139.7-2.21Z"/><rect class="cls-20" x="697.92" y="201.25" width="19.9" height="19.9"/><rect class="cls-20" x="721.8" y="201.25" width="13.93" height="13.93"/><path class="cls-6" d="M729,125.48c-56,0-104.8-12.49-105.53-12.68l.74-2.8c1.09.28,110,28.17,189,0l1,2.73C787.46,122.3,757.32,125.48,729,125.48Z"/><path class="cls-21" d="M1104,295.52l2,85.5Z"/><path class="cls-21" d="M1147.63,379.54h0Z"/><path class="cls-21" d="M1032.9,295.52l-2,85.5Z"/><path class="cls-21" d="M989.26,379.54h0Z"/><path class="cls-22" d="M1195.12,217.13l-48.76-53.85Z"/><path class="cls-22" d="M1195.12,217.13l42,4Z"/><path class="cls-22" d="M1195.12,217.13,1222,246.81Z"/><path class="cls-22" d="M1192.74,259l2.38-41.87Z"/><path class="cls-23" d="M948.84,234.4l55.73-56.16Z"/><path class="cls-23" d="M948.84,234.4l-1.91,45.91Z"/><path class="cls-23" d="M948.84,234.4l-30.73,31Z"/><path class="cls-23" d="M903.16,234.24l45.68.16Z"/><path class="cls-12" d="M981,70.54,959.2,39.45,981,35.82s48.41,34.72,79.74,26.17c0,0,82.59-1.33,102.52-32V58.36l-11.39,15s14.24,72.84,11.39,94.8c0,0,2,70.19-1.83,94.49l-9.56,26.37,7.54,17.36-12.45,14-9.45-5.93s-72,10.89-74.41,4.52c0,0-67-2.11-70.29-15.63l-23.75,17-9.89-22.77,9.89-5.69s-4.81-103.44,0-106.17C969.09,185.76,973.91,69.11,981,70.54Z"/><path class="cls-24" d="M987,205.48c-.62-49.62,3.75-99.39,14.32-147.88a19.63,19.63,0,0,1,3.38-7.68A202.88,202.88,0,0,1,981,35.82L959.2,39.45,981,70.54c-7.12-1.43-11.94,115.22-11.94,115.22-4.81,2.73,0,106.17,0,106.17l-9.89,5.69,9.89,22.77,23.75-17c1.15,4.78,10.3,8.13,21.62,10.47C993.48,282.88,987.47,241.77,987,205.48Z"/><path class="cls-6" d="M1075.81,129.94c-55.07,0-103-12.27-103.69-12.46l.72-2.75c1.07.28,108.11,27.68,185.7,0l1,2.68C1133.21,126.81,1103.59,129.94,1075.81,129.94Z"/><path class="cls-6" d="M1077.7,181.2c-57.58,0-107.66-12.26-108.41-12.45L970,166c1.12.28,113.1,27.7,194.28,0l.92,2.7C1137.69,178.08,1106.74,181.2,1077.7,181.2Z"/><path class="cls-6" d="M1052.2,141.67h5.37L1060,158.8h.07l2.39-17.13h5.36V165.6h-3.55V147.48h-.07l-2.73,18.12h-3.15l-2.73-18.12h-.07V165.6h-3.28Z"/><path class="cls-6" d="M1070.59,141.67h10.25v3.42h-6.49v6.32h5.16v3.42h-5.16v7.35h6.49v3.42h-10.25Z"/><path class="cls-6" d="M1083,141.67h3.76v20.51h6.19v3.42h-10Z"/><ellipse class="cls-26" cx="1123.42" cy="217.92" rx="12.82" ry="22.07"/><ellipse class="cls-27" cx="1122.71" cy="227.17" rx="6.41" ry="12.82"/><ellipse class="cls-26" cx="1092.09" cy="217.92" rx="12.82" ry="22.07"/><ellipse class="cls-27" cx="1091.38" cy="227.17" rx="6.41" ry="12.82"/><circle cx="1092.09" cy="228.6" r="4.27"/><circle cx="1121.94" cy="227.29" r="4.27"/><path class="cls-19" d="M1136.13,253.83c-30.85,43.13-57.42-1-57.42-1Z"/><rect class="cls-20" x="1096.87" y="252.8" width="8.18" height="9.29"/><rect class="cls-20" x="1106.68" y="252.8" width="5.72" height="6.5"/><path class="cls-10" d="M1402.41,326.8l1.3,54.34Z"/><path class="cls-10" d="M1430.15,380.19h0Z"/><path class="cls-10" d="M1357.23,326.8l-1.29,54.34Z"/><path class="cls-10" d="M1329.5,380.19h0Z"/><path class="cls-11" d="M1472.53,219.26l-30.48-33.67Z"/><path class="cls-11" d="M1472.53,219.26l26.26,2.5Z"/><path class="cls-11" d="M1472.53,219.26l16.81,18.56Z"/><path class="cls-11" d="M1471.05,245.44l1.48-26.18Z"/><path class="cls-22" d="M1271,226.87l31.42-31.65Z"/><path class="cls-22" d="M1271,226.87l-1.07,25.88Z"/><path class="cls-22" d="M1271,226.87l-17.32,17.45Z"/><path class="cls-22" d="M1245.25,226.79l25.75.08Z"/><polygon class="cls-24" points="1373.22 17 1293.53 112.64 1373.22 112.64 1373.22 17"/><polygon class="cls-24" points="1373.22 17 1452.92 112.64 1373.22 112.64 1373.22 17"/><rect class="cls-24" x="1293.53" y="112.64" width="159.39" height="223.89"/><path class="cls-12" d="M1368.74,43.8a208.84,208.84,0,0,1-13.48,16.64c-7.77,8.57-16.36,16.41-23.68,25.38-.29.35-.57.71-.86,1.07l0,0c-.76,1.07-1.55,2.12-2.31,3.2-1.26,1.81-2.49,3.65-3.67,5.51a132.24,132.24,0,0,0-7.15,12.72,35.75,35.75,0,0,0-2.16,4.28h.14c1-2.32,1.07-2.55.32-.7l-.27.7h57.63V37.44C1371.76,39.58,1370.27,41.71,1368.74,43.8Z"/><path class="cls-12" d="M1381.56,27a17.12,17.12,0,0,1-3.86,5.41c-1.27,1.19-2.4,2.46-3.58,3.73l0,0,0,.07-.83,1.2v75.2h79.7Z"/><path class="cls-12" d="M1315.59,112.64l-.19.49c-.89,2.33-1.68,4.7-2.39,7.09-.63,2.1-1.19,4.2-1.63,6.34,0,.16-.31,1.73-.5,2.82l-.11,1.09c-.93,10.43-.21,20.91.43,31.33a313.11,313.11,0,0,1,.39,33.56c-1.06,23.2-3.38,46.15-1.22,69.36s1.71,46.73,3.93,70c0,.6.07,1.2.06,1.79h138.56V112.64Z"/><rect class="cls-6" x="1293.53" y="124.78" width="159.39" height="1.52"/><rect class="cls-6" x="1293.53" y="192.33" width="159.39" height="1.52"/><rect class="cls-6" x="1293.53" y="124.78" width="159.39" height="1.52"/><rect class="cls-6" x="1293.53" y="192.33" width="159.39" height="1.52"/><path class="cls-6" d="M1339.69,145.63h5.72l2.55,18.25h.07l2.55-18.25h5.72v25.5h-3.79V151.82h-.07l-2.91,19.31h-3.35l-2.92-19.31h-.07v19.31h-3.5Z"/><path class="cls-6" d="M1365,145.63h13.16v3.64h-6.93V156h5.51v3.65h-5.51v7.83h6.93v3.64H1367.2v-5h-3.94l-1.27,5h-3.83Zm2.23,17.05V150.55h-.08l-3,12.13Z"/><path class="cls-6" d="M1380.42,145.63h4v21.86H1391v3.64h-10.6Z"/><path class="cls-6" d="M1393,145.63h4v10.75l5.1-10.75h4L1401.3,155l4.84,16.14H1402l-3.39-11.36L1397,163v8.12h-4Z"/><path class="cls-6" d="M1339.69,145.63h5.72l2.55,18.25h.07l2.55-18.25h5.72v25.5h-3.79V151.82h-.07l-2.91,19.31h-3.35l-2.92-19.31h-.07v19.31h-3.5Z"/><path class="cls-6" d="M1365,145.63h13.16v3.64h-6.93V156h5.51v3.65h-5.51v7.83h6.93v3.64H1367.2v-5h-3.94l-1.27,5h-3.83Zm2.23,17.05V150.55h-.08l-3,12.13Z"/><path class="cls-6" d="M1380.42,145.63h4v21.86H1391v3.64h-10.6Z"/><path class="cls-6" d="M1393,145.63h4v10.75l5.1-10.75h4L1401.3,155l4.84,16.14H1402l-3.39-11.36L1397,163v8.12h-4Z"/><circle class="cls-1" cx="1348.18" cy="251.54" r="12.9"/><circle class="cls-28" cx="1348.18" cy="286.45" r="12.9"/><circle class="cls-20" cx="1352.35" cy="252.68" r="8.73"/><circle class="cls-20" cx="1352.35" cy="286.07" r="8.73"/><path class="cls-19" d="M1374.24,223.61c55.18,50.24-1.32,93.51-1.32,93.51Z"/><rect class="cls-20" x="1372.2" y="274.95" width="13.32" height="11.88" transform="translate(1097.97 1659.75) rotate(-90)"/><rect class="cls-20" x="1372.41" y="262.74" width="9.32" height="8.32" transform="translate(1110.17 1643.98) rotate(-90)"/><path class="cls-19" d="M1374.24,223.61c55.18,50.24-1.32,93.51-1.32,93.51Z"/><rect class="cls-20" x="1372.2" y="274.95" width="13.32" height="11.88" transform="translate(1097.97 1659.75) rotate(-90)"/><rect class="cls-20" x="1372.41" y="262.74" width="9.32" height="8.32" transform="translate(1110.17 1643.98) rotate(-90)"/></svg>
