<svg id="Layer_1" data-name="Layer 1" xmlns="http://www.w3.org/2000/svg" viewBox="0 0 283.46 283.46"><path d="M268.73,269.73h-254v-252h254Zm-251-3h248v-246h-248Z"/><rect x="186.73" y="165.23" width="3" height="103"/><path d="M153,268.25l-3,0,1-98.49H125.73v-31h24.84c-3.77-39,3.22-66.12,20.78-80.47,22.59-18.44,54-8.87,55.33-8.46l1,.33V82.79l-1.56-.06c-12.43-.5-21.92,2.94-28.23,10.23-11.82,13.69-9.25,37.17-8.43,42.77h45.21l-18,34H188.23v-3H214.9l14.84-28H187l-.23-1.22c-.23-1.21-5.46-29.85,8.9-46.5,6.66-7.71,16.45-11.52,29.07-11.32V52.37c-5.6-1.47-32.4-7.38-51.5,8.23-17,13.87-23.53,40.61-19.51,79.48l.18,1.65H128.73v25H154Z"/></svg>
