<svg id="Layer_2" data-name="Layer 2" xmlns="http://www.w3.org/2000/svg" viewBox="0 0 1133.86 1133.86"><defs><style>.cls-1{fill:#b6666f;}</style></defs><path class="cls-1" d="M310.42,256.3H295.05l-1-.76c-.68-.53-16.72-13.5-23.94-39.29-6.59-23.54-6.69-62.68,30.25-115.45l3.19-4.56,2.73,4.84c1.76,3.13,43,77.13,29.14,124.61-4,13.6-12.15,23.77-24.27,30.2Zm-12.85-7h11.09c10-5.53,16.73-14.13,20.08-25.57,11.08-37.87-16.86-96.73-25.85-114.18-25.41,38.08-34.44,74.08-26.11,104.41C282.39,234.39,294.26,246.29,297.57,249.3Z"/><path class="cls-1" d="M235.83,300.71a208.86,208.86,0,0,1-52.58-7.13c-30.46-8-51.33-19.74-52.21-20.23l-5.71-3.24,5.87-2.94c54.5-27.25,95.6-29.36,120.49-26.34,27.32,3.32,41.51,13.2,42.1,13.62l1.48,1v33.45l-2.15.9C274,297.84,254.26,300.71,235.83,300.71Zm-95.25-30.32a248.47,248.47,0,0,0,44.63,16.47c26.63,7,65.91,12.1,103.06-2.6v-25c-4.16-2.45-17-9.07-37.95-11.52C227.43,245,190.13,246.94,140.58,270.39Z"/><path class="cls-1" d="M219.49,246.41c-1.1-.91-27.05-22.92-41.14-87.36l-1.15-5.24,5.26,1.06c.2,0,20.12,4.1,40.14,9.82,37.47,10.7,43.51,17.85,44.59,22.88L260.35,189c-.15-.69-2.51-7-39.63-17.61-13.57-3.88-27.11-7-34.32-8.56,13.74,57.7,37.31,77.94,37.55,78.15Z"/><path class="cls-1" d="M418.28,157.41a121.72,121.72,0,0,1-8.6,42.21c-12.39,30-35.87,46.72-69.8,49.7l.32,3.71c8.14-.92,16.3-1.43,24.47-1.64,29.34-9.8,44.15-31.23,51.57-49.32a125.16,125.16,0,0,0,9-47.91l-.11-2.79-2.75-.51c-28.11-5.21-87.12,36.15-89.62,37.91l4,5.72C337.38,194.09,391.76,156,418.28,157.41Z"/><path class="cls-1" d="M357.18,251.67c1.86-.09,3.72-.16,5.58-.22A64.17,64.17,0,0,1,384.88,243c16.17-3.06,32.57-.4,48.89,7.86q6.66-.14,13.31-.2a3.46,3.46,0,0,0-.86-.8c-26-16.36-48.6-16.47-63-13.67-15.71,3.05-25.19,10-25.58,10.31a3.5,3.5,0,0,0-.72,4.89A3.85,3.85,0,0,0,357.18,251.67Z"/><path class="cls-1" d="M469.77,226.8a3.56,3.56,0,0,1-.91-.12l-59.69-16.1a3.5,3.5,0,0,1,1.82-6.76l59.69,16.1a3.5,3.5,0,0,1-.91,6.88Z"/><path class="cls-1" d="M485.82,249H430.77a3.5,3.5,0,0,1,0-7h43.61l-41.89-82-46.93-38a3.5,3.5,0,0,1,4.41-5.44l48.08,39Z"/><path class="cls-1" d="M434.27,172.73l-36.7-91.95-.36,9-4.94,5v21.68l-5.91,3,.94,22.5-2,4.82V160.3a3.5,3.5,0,0,1-7,0v-15l2-4.68-1.06-25.44,6.09-3.08V91.89l5.06-5.09,1.31-32.41,22.68,27.12,4.31-3.23,15.64,23.46ZM405.59,82l21.68,54.32V103.86L416.91,88.32l-3.7,2.77Z"/><path class="cls-1" d="M480.1,248.5a3.51,3.51,0,0,1-.94-6.88l7.49-2.08,8.6-56.41-.91-17.45-15.45-18-4.15,2.07-15.33-20.12-2.83,2.83L436.12,108.8h-3.35a3.5,3.5,0,0,1,0-7h6.54L457,122.17l3.17-3.17,16.68,21.88,3.85-1.93,20.55,24,1.08,20.55-9.39,61.59L481,248.37A3.87,3.87,0,0,1,480.1,248.5Z"/><path class="cls-1" d="M466.79,223l-.43,0a3.5,3.5,0,0,1-3.05-3.89l9-74.19a3.5,3.5,0,0,1,6.95.84l-9,74.19A3.5,3.5,0,0,1,466.79,223Z"/><path class="cls-1" d="M480.19,250.57c14.5-5.66,39.3-12.22,55.83.18,3.34-.09,6.69-.17,10-.24l0,0c-26.9-30.25-78.75-2-80.94-.74a3.64,3.64,0,0,0-.95.78Q472.17,250.52,480.19,250.57Z"/><path class="cls-1" d="M519.93,244.16a3.41,3.41,0,0,1-1.25-.23,3.5,3.5,0,0,1-2-4.52l6.64-17.36a3.5,3.5,0,1,1,6.53,2.5l-6.64,17.36A3.48,3.48,0,0,1,519.93,244.16Z"/><path class="cls-1" d="M549.32,242.93l-3.59-1.39c-.78-.31-19.29-7.67-33.43-29.87-12.87-20.23-24.35-57.19-5.88-118.38L507.7,89l3.83,2.24a185.54,185.54,0,0,1,44.91,39.15c26.84,32.8,33.34,68.39,18.8,102.91l-1.36,3.22-3.22-1.35c-2.8-1.17-11.19-3.66-16.25-1.21a7.67,7.67,0,0,0-4,5.22ZM511.82,99.75C499.3,144,501.41,181.2,518,207.54a74.55,74.55,0,0,0,27.22,26,14,14,0,0,1,6.19-5.83c6.23-3,14.19-1.42,18.63-.1,12-31.36,5.68-62.49-18.87-92.58C536.54,117.11,519.33,104.72,511.82,99.75Z"/><path class="cls-1" d="M547.53,250.47a14.65,14.65,0,0,1-.26-2.67,15,15,0,1,1,29.84,2l7.07-.15c.05-.61.09-1.24.09-1.87a22,22,0,1,0-43.81,2.84Z"/><path class="cls-1" d="M684.57,198.39,679,194.22h0l27.45-37,.07,0,13.86-18.6,48.56-30.34a2.46,2.46,0,0,1,.45-.24l1.77-19.48-2.75-2.75-1.52-19L751.7,81.18,748,77.5,730.11,99.23,724.94,95,704,114.88l-3.94-3-18.81,18.81-4.15-2.55-22,20.57-2.73-1.82-18.52,21.43-2.68-.89-5,7.46-16.43,9.39,5.42-13.54-1.79-20.52-5-3.42,1.77-7.47-5.07-18.57h-5.18l-4.56-22.27-3.89.91-6.69-20-12,18.81-2.58-1.72-9.93,21.32h-5.76l-5.91,8A3.5,3.5,0,0,1,543,121.6l8-10.8h4.81l11.5-24.67,3.41,2.28,16-25.19,9.32,28,4.68-1.09,4.86,23.72h4.82l6.94,25.44-1.07,4.52,3.8,2.58L622,168.58l6.3-9.44,3.31,1.1,19.49-22.56,3.26,2.17,21.85-20.42,4,2.45,19.19-19.2,4.06,3,21.1-20.1,4.55,3.75L747.52,67.1l4.32,4.32,20.83-19.68,2.48,31L778.4,86l-1.88,20.64,4.05,1-3.06,28.61,2.4,1.2-7.26,26.3,5.35-1.07-7,20.93-61.83-18.25Zm29.08-39L766.52,175l1-3.07-4.66.93,8.75-31.7-1.6-.8,2.81-26.22a1.64,1.64,0,0,1-.22.14l-47.44,29.65Z"/><path class="cls-1" d="M724.76,141.8a3.55,3.55,0,0,1-1.79-.49,3.5,3.5,0,0,1-1.21-4.8l43-72a3.5,3.5,0,1,1,6,3.59l-43,72A3.49,3.49,0,0,1,724.76,141.8Z"/><path class="cls-1" d="M720.82,147.42a3.66,3.66,0,0,1-.65-.06,3.5,3.5,0,0,1-2.79-4.09l9.49-50.44a3.5,3.5,0,0,1,6.88,1.29l-9.49,50.44A3.51,3.51,0,0,1,720.82,147.42Z"/><path class="cls-1" d="M678.77,198.8h-.11a3.5,3.5,0,0,1-3.39-3.6l2-67.5a3.5,3.5,0,1,1,7,.21l-2,67.5A3.51,3.51,0,0,1,678.77,198.8Z"/><path class="cls-1" d="M654.73,198.8a3.49,3.49,0,0,1-3.49-3.43l-1-50a3.5,3.5,0,1,1,7-.13l1,50a3.48,3.48,0,0,1-3.43,3.56Z"/><path class="cls-1" d="M575.73,225.1a3.5,3.5,0,0,1-1.52-6.65l44.15-21.39,1-24.41a3.5,3.5,0,0,1,7,.3l-1.21,28.59-47.92,23.21A3.49,3.49,0,0,1,575.73,225.1Z"/><path class="cls-1" d="M553.77,228.8a1.52,1.52,0,0,1-1.17-.55c-.62-.78-15.32-19.18-14.32-40.26a1.5,1.5,0,1,1,3,.14c-.95,20,13.51,38.05,13.65,38.23a1.5,1.5,0,0,1-.22,2.11A1.52,1.52,0,0,1,553.77,228.8Z"/><path class="cls-1" d="M575.73,238.62a3.5,3.5,0,0,1-2.64-5.8l19-21.82a3.5,3.5,0,0,1,5.28,4.6l-19,21.82A3.46,3.46,0,0,1,575.73,238.62Z"/><path class="cls-1" d="M586.26,249.63l11.36-.2c15.57-3.92,38.5-11.41,48.3-23.17a1.5,1.5,0,0,0-2.3-1.92c-13.58,16.29-55.89,24.37-61.49,25.38Z"/><path class="cls-1" d="M720.82,204.67a3.87,3.87,0,0,1-.94-.13c-31.89-8.85-95.91-1-96.55-.92a3.5,3.5,0,1,1-.87-7c2.68-.33,66-8.1,99.3,1.12a3.51,3.51,0,0,1-.94,6.88Z"/><path class="cls-1" d="M680.22,248.7c5.06-3.74,11.49-8.62,17.81-13.77,25.27-20.63,27.41-28,26.16-32.51a3.5,3.5,0,1,0-6.75,1.83c0,.22.43,5.52-24.32,25.64-10.26,8.36-20.77,15.92-24.83,18.8C672.26,248.68,676.24,248.69,680.22,248.7Z"/><path class="cls-1" d="M804.06,249.77c-20.93-12.06-47.57-15.9-77-11.11a173.51,173.51,0,0,0-36.4,10.06q11,0,22.09.18c22.19-5.75,57.83-10.36,87.84,6.94a3.55,3.55,0,0,0,1.75.46,3.5,3.5,0,0,0,1.75-6.53Z"/><path class="cls-1" d="M727.75,245.59a3.5,3.5,0,0,1-2.65-5.8c-3.93-2.14-14.91-5.12-26.34-7a3.5,3.5,0,0,1,1.15-6.91c31.81,5.32,32.85,11.17,33.19,13.09.24,1.41.1,4.08-3.63,6.2A3.48,3.48,0,0,1,727.75,245.59Zm-1.31-4.83h0Z"/><path class="cls-1" d="M743.08,244.16a3.52,3.52,0,0,1-2.9-1.53c-1.27-1.87-31-46.11-33.49-80.36a3.5,3.5,0,1,1,7-.5c2.33,32.4,32,76.49,32.3,76.93a3.49,3.49,0,0,1-.93,4.86A3.45,3.45,0,0,1,743.08,244.16Z"/><path class="cls-1" d="M791.59,198.8a3.5,3.5,0,0,1-3.15-2A30.85,30.85,0,0,0,763,181.17a3.5,3.5,0,0,1,.47-7,37.87,37.87,0,0,1,31.25,19.6,3.5,3.5,0,0,1-1.63,4.67A3.45,3.45,0,0,1,791.59,198.8Z"/><path class="cls-1" d="M814.05,254.3a1.49,1.49,0,0,1-.85-.26c-4-2.76-39-27.28-41-38.52a1.5,1.5,0,0,1,3-.53c1.51,8.48,29.18,29.28,39.72,36.58a1.5,1.5,0,0,1-.86,2.73Z"/><path class="cls-1" d="M848.79,159.92c13.53,38.53,10.58,69-8.74,90.55a3.38,3.38,0,0,0-.45.62,9.08,9.08,0,0,1,3.85-2.29,8.88,8.88,0,0,1,6.32.75c16.8-23,18.76-54.62,5.58-92.1a238.54,238.54,0,0,0-27.73-54.19L825,99.54l-2.89,3.56c-34.46,42.42-34.87,81.05-29.15,106,6.2,27,20.44,43.8,21.05,44.5a3.5,3.5,0,1,0,5.3-4.57c-.14-.16-13.71-16.14-19.53-41.5-7.51-32.76.84-65.13,24.82-96.29A237.11,237.11,0,0,1,848.79,159.92Z"/><path class="cls-1" d="M831.42,253.8a1,1,0,0,1-1-.79c-.73-3.46-17.62-84.92-7-99.7a1,1,0,0,1,1.39-.23,1,1,0,0,1,.23,1.4c-10.13,14.06,7.14,97.28,7.32,98.12a1,1,0,0,1-.78,1.18A.71.71,0,0,1,831.42,253.8Z"/><path class="cls-1" d="M909.54,241.8a3.5,3.5,0,0,1-1.06-6.83c11.7-3.74,24.83-48.09,31-77.79-37.81-.66-76.25,33.14-76.65,33.49a3.5,3.5,0,1,1-4.65-5.23c1.77-1.57,43.81-38.53,85.83-35l3.9.33-.76,3.84c0,.2-4,20-10.15,40.3-8.71,28.57-17.36,43.87-26.43,46.77A3.56,3.56,0,0,1,909.54,241.8Z"/><path class="cls-1" d="M894.22,201.05a4.19,4.19,0,0,0-1.65-3.26,1.5,1.5,0,1,0-1.8,2.4,1.22,1.22,0,0,1,.45,1c.42,7.55-23.29,32.82-40.31,49a21.7,21.7,0,0,1,2.52,1.74C862.74,243,894.8,211.65,894.22,201.05Z"/><path class="cls-1" d="M1003.65,269.35c-55.26-35.26-93.6-36.64-116-31.59-16.33,3.68-26.83,11.09-32.22,15.9l.41.39a8.82,8.82,0,0,1,2.49,6c0,.16,0,.33,0,.49,3.78-3.76,13.73-12.1,30.87-16,20.56-4.63,55.54-3.37,106.42,28a150.1,150.1,0,0,1-38.78,19.23c-32.78,10.67-65.07,8.91-96.09-5.22.88,2.88,1.71,5.77,2.47,8.67A136.46,136.46,0,0,0,915,305.52a142.49,142.49,0,0,0,44.24-7.17c27.2-8.92,44.07-22.77,44.77-23.35l3.69-3.07Z"/><path class="cls-1" d="M944.42,283.73c-27.07-13.25-88.18-8.52-90.77-8.32a1.52,1.52,0,0,0-.71.26,8.16,8.16,0,0,1,4.3,2.51c13.33-.8,63.06-2.91,85.86,8.25a1.52,1.52,0,0,0,.66.15,1.5,1.5,0,0,0,.66-2.85Z"/><path class="cls-1" d="M968.06,398.13c-25.62-71.89-41.85-91.67-50.95-95.6-3.05-1.32-5-.74-5.75-.43a3.5,3.5,0,0,0,2.21,6.61c1.25.22,16.09,4.53,45.51,85.14-18.05-5.91-67.81-23.73-87.71-46.65.25,3.52.47,7,.63,10.57,29.11,26.41,88.91,44.06,91.79,44.89l6.57,1.92Z"/><path class="cls-1" d="M914.17,308.51Z"/><path class="cls-1" d="M903.62,355.22c-3.24-14.57-24.64-37.06-38-50,.38,1.76.73,3.52,1.08,5.29,13.12,13,31.22,32.73,34,45.35a1.49,1.49,0,0,0,1.46,1.18,1.24,1.24,0,0,0,.33,0A1.5,1.5,0,0,0,903.62,355.22Z"/><path class="cls-1" d="M571.71,165.05a3.4,3.4,0,0,1-2.13-.73,3.5,3.5,0,0,1-.64-4.91L600,119.16a3.5,3.5,0,0,1,5.54,4.28l-31,40.25A3.51,3.51,0,0,1,571.71,165.05Z"/><path class="cls-1" d="M566.75,155.08a3.49,3.49,0,0,1-3.4-4.35l18.5-74.33a3.5,3.5,0,0,1,6.8,1.7l-18.51,74.33A3.5,3.5,0,0,1,566.75,155.08Z"/><path class="cls-1" d="M560.36,144.93a3.5,3.5,0,0,1-3.47-3.1l-2.65-22.73a3.5,3.5,0,1,1,7-.81L563.84,141a3.49,3.49,0,0,1-3.07,3.88A2.83,2.83,0,0,1,560.36,144.93Z"/><path class="cls-1" d="M329.46,254.3a1.5,1.5,0,0,1-1-2.62c12.22-10.75,43.75-41.14,42.9-52.58a1.5,1.5,0,0,1,3-.22c1.14,15.26-42.07,53.43-43.91,55.05A1.51,1.51,0,0,1,329.46,254.3Z"/><path class="cls-1" d="M309.77,249.8a1.51,1.51,0,0,1-1.44-1.06c-.16-.56-16.52-55.66-7.27-93.21a1.5,1.5,0,1,1,2.91.72c-9.05,36.74,7.07,91.08,7.23,91.62a1.5,1.5,0,0,1-1,1.87A1.59,1.59,0,0,1,309.77,249.8Z"/><path class="cls-1" d="M286.05,248a1.53,1.53,0,0,1-.86-.27c-5.64-4-33.73-24.21-32.8-32.61a1.5,1.5,0,0,1,3,.33c-.55,4.87,18.11,20.37,31.54,29.82a1.5,1.5,0,0,1,.36,2.09A1.48,1.48,0,0,1,286.05,248Z"/><path class="cls-1" d="M291.77,275.35a1.43,1.43,0,0,1-.66-.16c-.29-.13-22.23-10.3-81.48-3.43a1.51,1.51,0,0,1-1.66-1.32,1.49,1.49,0,0,1,1.32-1.66c60.43-7,82.24,3.28,83.14,3.72a1.5,1.5,0,0,1-.66,2.85Z"/><path class="cls-1" d="M734.87,936.58a19.94,19.94,0,0,1-8-1.56l-2-.86-.11-2.19c-1-21.58,4.18-42.42,15.47-61.92l.12-.19c11.28-16.93,24.23-27.53,40.74-33.36,9.16-3,18.57-6.19,28.54-6.36l.13,7c-8.9.15-17.4,3-26.4,6-14.92,5.27-26.74,15-37.13,30.53-10.15,17.57-15,36.26-14.56,55.59,4.65,1,10-.56,15.25-2.11l2.26-.66c20.53-7.48,40.31-18,60.44-32.16l10.49-7.87,4.2,5.6-10.62,8c-20.7,14.57-41.06,25.39-62.24,33.09l-.23.08-2.31.67C744.5,935.16,739.7,936.58,734.87,936.58Z"/><path class="cls-1" d="M752.22,851.64c-13.33,0-30.09-3.41-48.55-15a3.5,3.5,0,1,1,3.73-5.92C726.58,842.76,746,847.06,765,843.46c14.25-2.69,23-9.06,23.08-9.12a3.5,3.5,0,0,1,4.17,5.62c-.39.29-9.87,7.26-25.58,10.31A75.9,75.9,0,0,1,752.22,851.64Z"/><path class="cls-1" d="M739.81,882.74a3.56,3.56,0,0,1-.91-.12l-59.69-16.1a3.5,3.5,0,0,1,1.82-6.76l59.69,16.1a3.5,3.5,0,0,1-.91,6.88Z"/><path class="cls-1" d="M762.12,970.64a3.48,3.48,0,0,1-2.2-.78l-48.08-39L664.07,837.4h55a3.5,3.5,0,0,1,0,7h-43.6l41.89,82,46.92,38a3.5,3.5,0,0,1-2.2,6.22Z"/><path class="cls-1" d="M758.25,1032.05l-22.68-27.12-4.31,3.23L715.61,984.7v-71l36.7,91.95.37-9,4.94-5V970l5.91-3-.94-22.5,2-4.82V926.14a3.5,3.5,0,0,1,7,0v15l-2,4.68,1.06,25.44-6.09,3.08v20.26l-5.06,5.09Zm-21.58-36.7,7.62,9.1-21.68-54.32v32.45L733,998.12Z"/><path class="cls-1" d="M717.12,984.64h-6.54l-17.64-20.37-3.18,3.17-16.67-21.88-3.85,1.93-20.55-24L647.61,903,657,841.37l11.85-3.3a3.5,3.5,0,0,1,1.88,6.75l-7.49,2.08-8.61,56.41.92,17.45,15.45,18,4.15-2.07,15.33,20.12L693.3,954l20.47,23.64h3.35a3.5,3.5,0,0,1,0,7Z"/><path class="cls-1" d="M674.13,944.64a3,3,0,0,1-.43,0,3.48,3.48,0,0,1-3.05-3.89l9-74.19a3.5,3.5,0,0,1,7,.84l-9,74.19A3.5,3.5,0,0,1,674.13,944.64Z"/><path class="cls-1" d="M637.63,849.88c-12.19,0-24.47-3.46-33.77-13.92a3.5,3.5,0,1,1,5.23-4.65c23.21,26.1,71.82-.46,72.31-.73a3.5,3.5,0,0,1,3.4,6.12C683.37,837.49,660.68,849.88,637.63,849.88Z"/><path class="cls-1" d="M623.32,866.64a3.68,3.68,0,0,1-1.25-.23,3.51,3.51,0,0,1-2-4.52l6.64-17.36a3.5,3.5,0,0,1,6.54,2.5l-6.64,17.36A3.5,3.5,0,0,1,623.32,866.64Z"/><path class="cls-1" d="M642.19,997.4l-3.84-2.24A185.8,185.8,0,0,1,593.45,956c-26.84-32.8-33.34-68.39-18.8-102.91l1.36-3.22,3.22,1.35c2.8,1.17,11.19,3.66,16.25,1.21a7.7,7.7,0,0,0,4-5.22l1-3.71,3.59,1.39c.78.31,19.29,7.67,33.43,29.87C650.46,895,661.93,932,643.47,993.15ZM579.88,858.85c-12,31.36-5.69,62.49,18.87,92.58,14.6,17.9,31.81,30.29,39.32,35.26,12.52-44.25,10.41-81.45-6.15-107.79a74.62,74.62,0,0,0-27.22-26,14,14,0,0,1-6.19,5.83C592.28,861.76,584.32,860.17,579.88,858.85Z"/><path class="cls-1" d="M599.7,829.79a14.84,14.84,0,0,1,2.92,8.85,15,15,0,1,1-27.56-8.18c-2.65,0-5.3.12-7.95.23a22,22,0,1,0,40.33-1.61C604.86,829.39,602.28,829.62,599.7,829.79Z"/><path class="cls-1" d="M377.21,1034.7l-2.48-31-3.24-3.25,1.87-20.64-4-1,3.06-28.61L370,949l7.26-26.3-5.35,1.07,7-20.93,61.83,18.25,24.61-33,5.62,4.17h0l-27.45,37-.08,0-13.86,18.6L381,978.1a2.46,2.46,0,0,1-.45.24l-1.78,19.48,2.76,2.75,1.52,19,15.16-14.32,3.68,3.68,17.91-21.73,5.17,4.26,20.9-19.91,3.94,3,18.81-18.81,4.15,2.55,22-20.57,2.73,1.82L516,918.08l2.69.89,5-7.46,16.43-9.39-5.42,13.54,1.78,20.52,5,3.42-1.76,7.47,5.06,18.57H550l4.56,22.27,3.89-.91,6.69,20,12-18.81,2.58,1.72,9.93-21.32h5.76l5.91-8a3.5,3.5,0,0,1,5.62,4.17l-8,10.8h-4.82l-11.49,24.67L579.15,998l-16,25.19-9.32-28-4.68,1.09-4.87-23.72h-4.81l-6.94-25.44,1.07-4.52-3.8-2.58-1.94-22.24-6.29,9.44-3.31-1.1-19.49,22.56-3.26-2.17L473.64,967l-4-2.46-19.19,19.2-4.06-3-21.1,20.1-4.56-3.75-18.36,22.28-4.32-4.32Zm1.05-89.41,1.6.8-2.81,26.22.22-.14,47.44-29.65,11.53-15.47-52.87-15.6-1,3.07,4.66-.93Z"/><path class="cls-1" d="M382.12,1023.64a3.44,3.44,0,0,1-1.79-.5,3.49,3.49,0,0,1-1.21-4.8l43-72a3.5,3.5,0,0,1,6,3.59l-43,72A3.51,3.51,0,0,1,382.12,1023.64Z"/><path class="cls-1" d="M419.58,996.46a3.66,3.66,0,0,1-.65-.06,3.49,3.49,0,0,1-2.79-4.08l9.49-50.44a3.5,3.5,0,1,1,6.88,1.29L423,993.61A3.51,3.51,0,0,1,419.58,996.46Z"/><path class="cls-1" d="M469.11,962.14H469a3.5,3.5,0,0,1-3.4-3.61l2-67.5a3.54,3.54,0,0,1,3.6-3.39,3.5,3.5,0,0,1,3.4,3.6l-2,67.5A3.5,3.5,0,0,1,469.11,962.14Z"/><path class="cls-1" d="M496.12,944.64a3.51,3.51,0,0,1-3.5-3.44l-1-50a3.5,3.5,0,0,1,7-.13l1,50a3.5,3.5,0,0,1-3.43,3.57Z"/><path class="cls-1" d="M527,917.14h-.15a3.49,3.49,0,0,1-3.35-3.64l1.21-28.59,47.92-23.21a3.5,3.5,0,1,1,3,6.3l-44.15,21.39-1,24.41A3.5,3.5,0,0,1,527,917.14Z"/><path class="cls-1" d="M610.11,899.88H610a1.5,1.5,0,0,1-1.43-1.57c.95-19.92-13.51-38-13.66-38.23a1.5,1.5,0,0,1,2.34-1.89c.62.78,15.32,19.18,14.32,40.26A1.5,1.5,0,0,1,610.11,899.88Z"/><path class="cls-1" d="M555.12,876.64a3.51,3.51,0,0,1-2.64-5.8l19-21.82a3.5,3.5,0,1,1,5.28,4.6l-19,21.82A3.51,3.51,0,0,1,555.12,876.64Z"/><path class="cls-1" d="M505.12,862.64a1.51,1.51,0,0,1-1-.35,1.49,1.49,0,0,1-.19-2.11c15.18-18.22,61.92-26.19,63.9-26.52a1.5,1.5,0,0,1,.5,3c-.48.08-47.63,8.11-62.1,25.48A1.5,1.5,0,0,1,505.12,862.64Z"/><path class="cls-1" d="M472.76,893.14c-15.94,0-32.34-1.08-44.63-4.49A3.5,3.5,0,0,1,430,881.9c31.9,8.85,95.92,1,96.56.92a3.5,3.5,0,0,1,.87,6.95A495,495,0,0,1,472.76,893.14Z"/><path class="cls-1" d="M429.08,886.61A3.51,3.51,0,0,1,425.7,884c-1.25-4.5.89-11.88,26.16-32.51,13.41-10.94,27.37-20.65,27.51-20.75a3.5,3.5,0,0,1,4,5.75c-.13.1-13.56,9.43-26.6,20C432,876.67,432.42,882,432.45,882.19a3.49,3.49,0,0,1-2.45,4.29A3.3,3.3,0,0,1,429.08,886.61Z"/><path class="cls-1" d="M439.7,927.92a3.5,3.5,0,0,1-3.49-3.24c-1.26-17.64-9-35-16.47-49.64a3.5,3.5,0,1,1,6.24-3.16c7.75,15.26,15.86,33.41,17.22,52.29a3.52,3.52,0,0,1-3.24,3.75Z"/><path class="cls-1" d="M386.64,912.27h-.24a38.78,38.78,0,0,1-28.8-15.67,3.5,3.5,0,0,1,5.65-4.13,31.76,31.76,0,0,0,23.62,12.81,3.5,3.5,0,0,1-.23,7Z"/><path class="cls-1" d="M547.12,968.64a3.5,3.5,0,0,1-2.77-5.64l31-40.25A3.5,3.5,0,0,1,581,927l-31.06,40.25A3.47,3.47,0,0,1,547.12,968.64Z"/><path class="cls-1" d="M564.64,1012.69a3.58,3.58,0,0,1-.85-.1,3.52,3.52,0,0,1-2.55-4.25L579.75,934a3.5,3.5,0,1,1,6.79,1.7L568,1010A3.51,3.51,0,0,1,564.64,1012.69Z"/><path class="cls-1" d="M592.17,971.24a3.5,3.5,0,0,1-3.47-3.09l-2.65-22.73a3.5,3.5,0,0,1,7-.81l2.65,22.73a3.5,3.5,0,0,1-3.07,3.88Z"/><path class="cls-1" d="M777,889a1.5,1.5,0,0,1-1.49-1.39c-1.14-15.26,42.07-53.43,43.91-55a1.5,1.5,0,1,1,2,2.25c-12.22,10.75-43.75,41.14-42.9,52.58a1.5,1.5,0,0,1-1.38,1.6Z"/><path class="cls-1" d="M927.19,837.33A93.32,93.32,0,0,1,902,834c-25.8-7.23-38.76-23.27-39.3-24l-.76-1V793.71l.41-.77c6.44-12.13,16.6-20.3,30.21-24.28,47.48-13.88,121.47,27.38,124.6,29.15l4.84,2.73-4.55,3.18C980.44,829.64,950.12,837.33,927.19,837.33ZM869,806.55c3,3.31,14.92,15.19,35.35,20.8,30.32,8.32,66.33-.71,104.4-26.12-17.44-9-76.3-36.93-114.17-25.85-11.44,3.35-20,10.11-25.58,20.09Z"/><path class="cls-1" d="M877.44,852.43c-3.32-27.31-13.2-41.51-13.62-42.1l-1.05-1.48h-2.23c2.06,3,2.34,7.26.18,10.12,3,6,7.82,17.69,9.83,34.83,2.69,22.89.78,60.2-22.67,109.74a247.69,247.69,0,0,1-16.47-44.63c-6.57-25.06-11.48-61.31.21-96.46a61,61,0,0,1-6.88-1.49c-11.94,36.6-6.87,74-.06,99.91,8,30.47,19.74,51.34,20.24,52.21l3.24,5.71,2.93-5.87C878.34,918.42,880.46,877.32,877.44,852.43Z"/><path class="cls-1" d="M929.49,771.34l-5.72-4c.4-.57,38.52-54.93,37.08-81.46a121.4,121.4,0,0,0-42.2,8.59c-30,12.39-46.72,35.87-49.7,69.81l-7-.62c4-45.87,31.71-66.51,54.22-75.75a125.11,125.11,0,0,1,47.91-9l2.79.12.5,2.74C972.61,709.85,931.26,768.85,929.49,771.34Z"/><path class="cls-1" d="M869,747.91a3.45,3.45,0,0,1-2.08-.7,3.5,3.5,0,0,1-.72-4.89c.09-.14,6.43-8.87,9.12-23.08,3.6-19-.7-38.42-12.79-57.6a3.5,3.5,0,0,1,5.92-3.74c16.37,26,16.47,48.61,13.67,63-3.05,15.71-10,25.19-10.31,25.59A3.49,3.49,0,0,1,869,747.91Z"/><path class="cls-1" d="M911.06,697.54a3.5,3.5,0,0,1-3.38-2.59l-16.1-59.68a3.5,3.5,0,0,1,6.76-1.83l16.1,59.69a3.49,3.49,0,0,1-2.47,4.29A3.56,3.56,0,0,1,911.06,697.54Z"/><path class="cls-1" d="M999,719.85a3.52,3.52,0,0,1-2.72-1.29l-38-46.93-82-41.89v43.61a3.5,3.5,0,0,1-7,0v-55l93.48,47.77,39,48.07a3.49,3.49,0,0,1-2.72,5.7Z"/><path class="cls-1" d="M972.91,725.85H958a3.5,3.5,0,0,1,0-7H971.5l4.83-2,22.49.93,3-5.91h21.68l5-4.94,9-.36-92-36.7h71L1040,685.5l-3.23,4.3,27.12,22.69-32.41,1.31-5.08,5.05h-20.26L1003,725l-25.44-1.07Zm9.05-49,54.32,21.68-9.11-7.62,2.77-3.7-15.54-10.36Z"/><path class="cls-1" d="M1013,674.85a3.5,3.5,0,0,1-3.5-3.5V668l-23.63-20.47,2.83-2.83-20.12-15.33,2.07-4.15-18-15.44-17.45-.92-56.41,8.6L876.64,625a3.5,3.5,0,1,1-6.74-1.87l3.3-11.85,61.59-9.4,20.55,1.08,24,20.56-1.93,3.85L999.27,644l-3.17,3.17,20.36,17.64v6.54A3.49,3.49,0,0,1,1013,674.85Z"/><path class="cls-1" d="M898.78,640.84a3.5,3.5,0,0,1-.42-7l74.18-9a3.5,3.5,0,1,1,.84,7l-74.18,9A3,3,0,0,1,898.78,640.84Z"/><path class="cls-1" d="M867.79,558.09a3.5,3.5,0,0,0-3.23-.76c-.14,2.31-.29,4.61-.42,6.92,24.36,23.53-1.47,70.91-1.74,71.39a3.52,3.52,0,0,0,1.36,4.76,3.62,3.62,0,0,0,1.7.44,3.5,3.5,0,0,0,3.06-1.8C869.74,636.84,898,585,867.79,558.09Z"/><path class="cls-1" d="M877.6,587.7a3.5,3.5,0,0,1-1.25-6.77l17.36-6.64a3.5,3.5,0,1,1,2.5,6.54l-17.36,6.64A3.63,3.63,0,0,1,877.6,587.7Z"/><path class="cls-1" d="M965.88,607.35c-27.5,0-46.65-7.49-59.28-15.53-22.21-14.14-29.57-32.64-29.87-33.42l-1.39-3.6,3.71-1a7.69,7.69,0,0,0,5.22-4c2.45-5.06,0-13.44-1.22-16.25l-1.34-3.22,3.21-1.36c34.53-14.53,70.11-8,102.91,18.8A185.45,185.45,0,0,1,1027,592.59l2.23,3.83-4.25,1.29C1002,604.64,982.42,607.35,965.88,607.35Zm-81.14-48.41a74.67,74.67,0,0,0,26,27.21c26.34,16.57,63.53,18.67,107.79,6.15-5-7.51-17.36-24.71-35.26-39.32-30.1-24.55-61.23-30.89-92.58-18.86,1.31,4.43,2.91,12.39-.1,18.62A14.1,14.1,0,0,1,884.74,558.94ZM880,557.13h0Z"/><path class="cls-1" d="M870.46,519.85a22.31,22.31,0,0,0-6,.85q.42,3.6.63,7.18a15,15,0,1,1-.4,27.8q-.21,3.63-.44,7.27a22.27,22.27,0,0,0,6.25.9,22,22,0,0,0,0-44Z"/><path class="cls-1" d="M994.59,561.81a3.5,3.5,0,0,1-2.09-6.31l8-5.91v-5.75l21.33-9.94-1.72-2.58,18.81-12-20.05-6.68.91-3.9-22.28-4.56V499L978.9,494l-7.48,1.76-3.42-5-20.51-1.79L934,494.33l9.38-16.43,7.47-5-.9-2.69,21.44-18.51L969.51,449l20.58-22-2.55-4.16,18.8-18.8-3-3.94,19.9-20.9L1019,374l21.72-17.91-3.68-3.69,14.32-15.16-19-1.52-2.75-2.75-19.48,1.77a4.92,4.92,0,0,1-.24.45l-30.35,48.56L961,397.63l0,.08-37,27.45-4.18-5.61,33-24.62L934.65,333.1l20.93-7-1.07,5.34,26.3-7.25,1.2,2.4,28.61-3.07,1,4.05,20.65-1.88,3.25,3.25,31,2.48-19.68,20.84,4.32,4.31L1028.89,375l3.74,4.55-20.09,21.1,3,4.06-19.19,19.2,2.45,4-20.43,21.85,2.18,3.26L958,472.47l1.11,3.31-9.44,6.3L971.92,484l2.58,3.8,4.53-1.07,25.43,6.94v4.82l23.73,4.86L1027.1,508l28,9.32-25.19,16,2.28,3.42-24.68,11.49v4.82l-10.79,8A3.46,3.46,0,0,1,994.59,561.81Zm-51.31-224.2,15.6,52.86,15.46-11.53L1004,331.5l.14-.22-26.22,2.81-.8-1.6-31.7,8.75.93-4.66Z"/><path class="cls-1" d="M980,382.86a3.5,3.5,0,0,1-1.8-6.51l72-43a3.5,3.5,0,0,1,3.59,6l-72,43A3.44,3.44,0,0,1,980,382.86Z"/><path class="cls-1" d="M974.35,386.8a3.5,3.5,0,0,1-.65-6.94l50.44-9.49a3.5,3.5,0,1,1,1.3,6.88L975,386.74A3.66,3.66,0,0,1,974.35,386.8Z"/><path class="cls-1" d="M923,428.85a3.5,3.5,0,0,1-.1-7l67.5-2h.1a3.5,3.5,0,0,1,.11,7l-67.5,2Z"/><path class="cls-1" d="M973,453.85h-.06l-50-1a3.5,3.5,0,1,1,.13-7l50,1a3.5,3.5,0,0,1-.07,7Z"/><path class="cls-1" d="M896.66,531.89a3.45,3.45,0,0,1-1.52-.35,3.5,3.5,0,0,1-1.63-4.67L916.72,479l28.6-1.22a3.5,3.5,0,0,1,.29,7l-24.41,1-21.39,44.16A3.48,3.48,0,0,1,896.66,531.89Z"/><path class="cls-1" d="M928.2,565.89c-20.2,0-37.43-13.76-38.18-14.37a1.5,1.5,0,0,1,1.89-2.33c.18.14,18.3,14.61,38.23,13.65a1.5,1.5,0,1,1,.14,3C929.58,565.87,928.89,565.89,928.2,565.89Z"/><path class="cls-1" d="M883.15,531.89a3.46,3.46,0,0,1-2.64-1.2,3.51,3.51,0,0,1,.33-4.94l21.82-19a3.5,3.5,0,1,1,4.6,5.27l-21.81,19A3.5,3.5,0,0,1,883.15,531.89Z"/><path class="cls-1" d="M867,523.85a1,1,0,0,1-.24,0,1.5,1.5,0,0,1-1.24-1.72c.33-2,8.3-48.73,26.52-63.91a1.5,1.5,0,1,1,1.92,2.31c-17.36,14.47-25.4,61.62-25.48,62.09A1.49,1.49,0,0,1,867,523.85Z"/><path class="cls-1" d="M918.13,484.73a3.25,3.25,0,0,1-.44,0,3.5,3.5,0,0,1-3-3.9c.08-.65,7.92-64.67-.92-96.56a3.5,3.5,0,1,1,6.74-1.87c9.22,33.24,1.46,96.61,1.13,99.29A3.5,3.5,0,0,1,918.13,484.73Z"/><path class="cls-1" d="M865.46,439.1a3.5,3.5,0,0,1-2.87-5.5c.09-.14,9.8-14.1,20.75-27.51,20.63-25.27,28-27.4,32.51-26.16a3.5,3.5,0,0,1-1.86,6.75c-.19,0-5.48-.44-25.62,24.32-10.6,13-19.94,26.46-20,26.6A3.52,3.52,0,0,1,865.46,439.1Z"/><path class="cls-1" d="M956.25,397.44H956A91,91,0,0,1,937.69,394c-16.82-4.76-34.19-12.82-54.67-25.36a3.5,3.5,0,0,1,3.66-6c19.91,12.2,36.73,20,52.91,24.59a84.1,84.1,0,0,0,16.91,3.18,3.5,3.5,0,0,1-.25,7Z"/><path class="cls-1" d="M940.59,344.37a3.5,3.5,0,0,1-3.49-3.27,32.83,32.83,0,0,0-1.54-8,3.5,3.5,0,0,1,6.66-2.16,39.74,39.74,0,0,1,1.86,9.7,3.49,3.49,0,0,1-3.26,3.72Z"/><path class="cls-1" d="M956.72,535.91a3.5,3.5,0,0,1-2.14-6.27l40.25-31.06a3.5,3.5,0,0,1,4.27,5.55l-40.25,31A3.5,3.5,0,0,1,956.72,535.91Z"/><path class="cls-1" d="M966.68,540.88a3.5,3.5,0,0,1-.84-6.9l74.33-18.5a3.5,3.5,0,1,1,1.69,6.79l-74.33,18.51A3.53,3.53,0,0,1,966.68,540.88Z"/><path class="cls-1" d="M999.57,549.91l-.41,0-22.73-2.65a3.5,3.5,0,1,1,.81-7l22.73,2.65a3.5,3.5,0,0,1-.4,7Z"/><path class="cls-1" d="M865.46,776.16a1.49,1.49,0,0,1-1.12-2.49c1.59-1.81,38.8-43.93,54.44-43.93l.6,0a1.5,1.5,0,1,1-.22,3,3.54,3.54,0,0,0-.46,0c-11.78,0-41.51,30.86-52.11,42.91A1.49,1.49,0,0,1,865.46,776.16Z"/><path class="cls-1" d="M936.16,805.89c-32.59,0-66.2-10-66.63-10.1a1.5,1.5,0,0,1,.87-2.87c.54.16,54.87,16.27,91.62,7.23a1.5,1.5,0,0,1,.72,2.91A112.39,112.39,0,0,1,936.16,805.89Z"/><path class="cls-1" d="M902.76,851.75c-8.64,0-28.28-27.27-32.19-32.82A1.5,1.5,0,0,1,873,817.2c9.32,13.24,24.51,31.56,29.61,31.56h.22a1.5,1.5,0,0,1,.33,3Z"/><path class="cls-1" d="M846,823.19c2.41,11.65,4.79,34.08.48,71.3a1.49,1.49,0,0,0,1.32,1.66H848a1.5,1.5,0,0,0,1.49-1.32c4.32-37.29,2.06-59.86-.41-71.9C848.07,823.05,847.05,823.13,846,823.19Z"/><path class="cls-1" d="M237,304.82,218,301c-2.7-.55-5.46-1.17-8.2-1.85l1.3-6.86a60.52,60.52,0,0,0,6.24.56l1.53,0,1,1.16a3.32,3.32,0,0,0,.66.55Z"/><path class="cls-1" d="M236.35,303.56l-1.88-.16c-3.56-.31-7.24-.78-11-1.41l-22.42-3.75,22.51-3.16a6.79,6.79,0,0,0,2.63-1l.94-.59,1.11.06c2.2.13,4.14.2,5.91.22h.47l.45.13c.73.21,1.56.39,2.62.59l9.69,1.84-8.68,4.68a3.79,3.79,0,0,0-1.22,1Z"/><path class="cls-1" d="M286.15,325.16c-6.86,23.47-22.29,40.29-46.08,50.11a121.72,121.72,0,0,1-42.21,8.6c-1.44-26.53,36.68-80.9,37.08-81.46l-5.72-4c-1.76,2.5-43.12,61.5-37.91,89.63l.51,2.74,2.78.11c.16,0,.87,0,2.06,0a126.83,126.83,0,0,0,45.86-9.06c15-6.16,32.36-17.43,43.42-37.89A178.28,178.28,0,0,1,286.15,325.16Z"/><path class="cls-1" d="M293.06,413.42c-.26-4.36-.72-8.71-1.24-13-8.69-16.67-11.51-33.44-8.39-49.95a68.47,68.47,0,0,1,2.42-9.21c-.14-5.67-.05-11.34.37-17a69.76,69.76,0,0,0-9.6,24.55c-2.8,14.41-2.7,37,13.67,63A3.48,3.48,0,0,0,293.06,413.42Z"/><path class="cls-1" d="M263.75,438.86a3.51,3.51,0,0,1-3.38-2.59l-16.1-59.69a3.5,3.5,0,0,1,6.76-1.82l16.1,59.69a3.51,3.51,0,0,1-2.47,4.29A3.56,3.56,0,0,1,263.75,438.86Z"/><path class="cls-1" d="M288.65,447.16a6.09,6.09,0,0,1,.44-2.47c.14-.33.27-.66.4-1V396.36a3.5,3.5,0,0,0-7,0V440l-82-41.89-38-46.93a3.5,3.5,0,0,0-5.44,4.41l39,48.08,91.79,46.9A8.42,8.42,0,0,1,288.65,447.16Z"/><path class="cls-1" d="M213.18,399.86h-71l-23.46-15.64,3.23-4.31L94.84,357.23l32.41-1.31,5.09-5.06H152.6l3.08-6.09,25.43,1.06,4.69-2h14.95a3.5,3.5,0,0,1,0,7H187.21l-4.82,2-22.5-.94-3,5.91H135.23l-5,4.94-9,.36Zm-68.87-7h32.45l-54.33-21.68,9.11,7.62-2.77,3.7Z"/><path class="cls-1" d="M287.81,450.24a8.19,8.19,0,0,1,.84-3.08,6.07,6.07,0,0,1,.26-1.93,3.5,3.5,0,0,0-6.84-.48L280,452.24l-56.41,8.6-17.46-.91-18-15.45,2.08-4.15L170.06,425l2.82-2.83-23.63-20.46v-3.35a3.5,3.5,0,0,0-7,0v6.54l20.37,17.64-3.18,3.17,21.88,16.68-1.92,3.85,24,20.55,20.54,1.08,61.6-9.39Z"/><path class="cls-1" d="M185.75,444.86a3.5,3.5,0,0,1-.42-7l74.18-9a3.5,3.5,0,1,1,.84,7l-74.18,9A3,3,0,0,1,185.75,444.86Z"/><path class="cls-1" d="M286.74,493.49c-4.58-12.13-2.42-26.54,1-38.14,0-1.44,0-2.88,0-4.31a8.51,8.51,0,0,1,.88-3.88,6.06,6.06,0,0,1,.44-2.47,55.24,55.24,0,0,0,3.79-15.79,3.5,3.5,0,0,0-2.69,1.78c-1.15,2.06-26.33,48.22-3.91,76.05Q286.51,500.12,286.74,493.49Z"/><path class="cls-1" d="M263.75,495.66a3.5,3.5,0,0,1-1.25-6.77l17.36-6.64a3.5,3.5,0,1,1,2.5,6.54L265,495.42A3.43,3.43,0,0,1,263.75,495.66Z"/><path class="cls-1" d="M237.57,548.39c-22.7,0-45.29-8.85-66.69-26.36a185.54,185.54,0,0,1-39.15-44.91l-2.24-3.83,4.25-1.28c61.19-18.47,98.15-7,118.37,5.88C274.32,492,281.68,510.54,282,511.32l1.39,3.59-3.7,1a7.67,7.67,0,0,0-5.22,4c-2.45,5.06,0,13.45,1.21,16.25l1.34,3.22-3.21,1.36A92.87,92.87,0,0,1,237.57,548.39Zm-97.37-71c5,7.51,17.36,24.72,35.26,39.32,30.09,24.55,61.22,30.89,92.58,18.87-1.32-4.44-2.91-12.4.1-18.63a14,14,0,0,1,5.83-6.19,74.55,74.55,0,0,0-26-27.22C221.65,467,184.45,464.89,140.2,477.41Z"/><path class="cls-1" d="M285.92,542.66a15,15,0,0,1,.16-29.63q.1-3.54.22-7.08a22,22,0,0,0-.23,43.77C286,547.37,286,545,285.92,542.66Z"/><path class="cls-1" d="M148.09,746.16l-1-4L126.43,744l-3.24-3.25-31-2.48,19.68-20.83-4.32-4.32,22.28-18.37-3.75-4.55,20.09-21.1-3-4.06,19.19-19.19-2.45-4L180.3,620l-2.18-3.26,22.57-19.49-1.1-3.31,9.44-6.3-22.24-1.93-2.58-3.8L179.69,583,154.25,576v-4.82l-23.72-4.86,1.09-4.68-27.95-9.32,25.19-16-2.28-3.41,24.67-11.5V516.6l10.8-8a3.5,3.5,0,0,1,4.16,5.62l-8,5.91v5.76l-21.33,9.93,1.73,2.58-18.82,12,20,6.69-.9,3.89,22.27,4.56v5.18l18.56,5.07,7.48-1.77,3.42,5,20.51,1.78,13.55-5.42-9.39,16.43-7.46,5,.89,2.69L187.38,618l1.82,2.73-20.57,22,2.55,4.15-18.81,18.81,3,3.94-19.91,20.9,4.25,5.17L118,713.61l3.68,3.68-14.32,15.16,19,1.52,2.76,2.75L148.54,735a4.92,4.92,0,0,1,.24-.45l30.35-48.56,18.6-13.86,0-.07,37-27.46,4.18,5.61-33,24.62,18.24,61.83-20.92,7,1.06-5.35-26.29,7.26-1.2-2.4Zm36.28-55.39-29.65,47.44-.15.22,26.22-2.81.8,1.6,31.71-8.75-.93,4.66,3.07-1-15.6-52.87Z"/><path class="cls-1" d="M106.75,736.86a3.5,3.5,0,0,1-1.79-6.51l72-43a3.5,3.5,0,1,1,3.59,6l-72,43A3.5,3.5,0,0,1,106.75,736.86Z"/><path class="cls-1" d="M133.92,699.4a3.5,3.5,0,0,1-.64-6.94L183.72,683a3.5,3.5,0,0,1,1.29,6.88l-50.44,9.49A3.57,3.57,0,0,1,133.92,699.4Z"/><path class="cls-1" d="M168.25,649.87a3.5,3.5,0,0,1-.1-7l67.5-2a3.5,3.5,0,1,1,.2,7l-67.5,2Z"/><path class="cls-1" d="M235.75,623.83h-.07l-50-1a3.5,3.5,0,1,1,.14-7l50,1a3.5,3.5,0,0,1-.07,7Z"/><path class="cls-1" d="M213.25,592a3.5,3.5,0,0,1-.15-7l24.41-1,21.39-44.16a3.5,3.5,0,0,1,6.3,3.06L242,590.77,213.4,592Z"/><path class="cls-1" d="M267.75,520.86a1.45,1.45,0,0,1-.94-.34c-.18-.14-18.3-14.61-38.23-13.65a1.5,1.5,0,0,1-.15-3c21.09-1,39.49,13.7,40.26,14.32a1.5,1.5,0,0,1-.94,2.67Z"/><path class="cls-1" d="M253.75,563.86a3.5,3.5,0,0,1-2.3-6.14l21.82-19a3.5,3.5,0,0,1,4.6,5.28l-21.82,19A3.52,3.52,0,0,1,253.75,563.86Z"/><path class="cls-1" d="M286.5,564.11c-3.95,15.15-11.08,36.24-21.71,45.1a1.49,1.49,0,0,0-.19,2.11,1.49,1.49,0,0,0,2.11.19c9.23-7.69,15.83-23.49,20.14-37.46C286.73,570.74,286.62,567.42,286.5,564.11Z"/><path class="cls-1" d="M241.61,689.91a3.51,3.51,0,0,1-3.37-2.56c-9.22-33.25-1.46-96.62-1.12-99.3a3.5,3.5,0,1,1,6.94.87c-.08.64-7.92,64.66.93,96.55a3.5,3.5,0,0,1-2.44,4.31A3.38,3.38,0,0,1,241.61,689.91Z"/><path class="cls-1" d="M283.89,644.52c.15-1.32.29-2.66.44-4-3.67,5-8.65,11.62-14,18.15-20.15,24.78-25.44,24.36-25.63,24.35a3.5,3.5,0,1,0-1.87,6.74,7.16,7.16,0,0,0,2,.27c4.73,0,12.65-4.51,30.55-26.43,2.53-3.1,5-6.23,7.28-9.21C283.09,651.12,283.5,647.83,283.89,644.52Z"/><path class="cls-1" d="M278.23,709.4c-.1-3.67-.07-7.33,0-11-2.35,18.67-1.13,36.09,3.52,51.51A367.57,367.57,0,0,1,278.23,709.4Z"/><path class="cls-1" d="M278.88,687.57a142.82,142.82,0,0,1-5.68-23.22,3.5,3.5,0,1,0-6.9,1.15c4.52,27.07,9.43,31.85,12,32.89C278.39,694.77,278.6,691.17,278.88,687.57Z"/><path class="cls-1" d="M278.23,709.4c-.06-2.28-.07-4.54,0-6.8-12.7-8-47.43-28.31-75.48-30.32a3.5,3.5,0,1,0-.5,7C232.08,681.4,272,706.84,278.28,711,278.27,710.46,278.24,709.93,278.23,709.4Z"/><path class="cls-1" d="M235.75,760.68a3.45,3.45,0,0,1-1.52-.35,37.87,37.87,0,0,1-19.6-31.25,3.5,3.5,0,1,1,7-.47A31.13,31.13,0,0,0,237.27,754a3.5,3.5,0,0,1-1.52,6.65Z"/><path class="cls-1" d="M284,764.56c-8.84-11.39-21-25.48-28-26.73a1.5,1.5,0,1,0-.52,2.95c6.51,1.16,20.28,17.75,29.64,30.16C284.71,768.81,284.35,766.69,284,764.56Z"/><path class="cls-1" d="M290.91,805.64c-21.55,19.32-52,22.27-90.54,8.74a237.11,237.11,0,0,1-48.69-24.24c31-23.9,63.33-32.28,96-24.89a109.28,109.28,0,0,1,39.69,18,6.3,6.3,0,0,1-.3-1.05c-.52-2.9-1-5.8-1.54-8.71a117.43,117.43,0,0,0-36-14.94c-24.93-5.72-63.57-5.31-106,29.15L140,790.54l3.72,2.67a238.27,238.27,0,0,0,54.19,27.73c16.39,5.77,31.67,8.64,45.6,8.64,20.57,0,38.2-6.27,52.09-18.73a3.5,3.5,0,1,0-4.68-5.21Z"/><path class="cls-1" d="M293.25,798l-.2,0c-.84-.18-84.06-17.44-98.13-7.32a1,1,0,1,1-1.16-1.62c14.77-10.64,96.23,6.25,99.7,7a1,1,0,0,1,.77,1.18A1,1,0,0,1,293.25,798Z"/><path class="cls-1" d="M191.18,913.54l-.33-3.9c-3.49-42,33.47-84.06,35-85.83a3.5,3.5,0,0,1,5.23,4.65c-.35.4-34.14,38.86-33.49,76.65,29.7-6.21,74.05-19.34,77.79-31a3.5,3.5,0,1,1,6.66,2.13c-2.89,9.07-18.19,17.72-46.76,26.43-20.29,6.19-40.11,10.11-40.3,10.15Z"/><path class="cls-1" d="M241.79,859.82h-.29a4.17,4.17,0,0,1-3.26-1.65,1.5,1.5,0,0,1,2.4-1.8,1.2,1.2,0,0,0,1,.45h.2c8,0,34.41-25,50.3-42a1.5,1.5,0,0,1,2.18,2.06C290.2,821.35,253.79,859.82,241.79,859.82Z"/><path class="cls-1" d="M312.38,973.28l-2.58-4c-35.26-55.26-36.64-93.59-31.59-116,5.59-24.8,19.78-36.14,20.38-36.61a3.5,3.5,0,0,1,4.33,5.51h0c-.13.1-13.07,10.57-18,33.16-4.46,20.5-3.06,55.33,28.08,105.9a149.83,149.83,0,0,0,19.22-38.78c11.3-34.67,8.68-68.81-7.78-101.46a3.5,3.5,0,0,1,6.25-3.15c21.63,42.91,16.34,81.9,8.1,107-8.91,27.2-22.76,44.07-23.35,44.77Z"/><path class="cls-1" d="M325.53,910.85a1.5,1.5,0,0,1-1.35-.84c-13.25-27.07-8.53-88.18-8.32-90.77a1.5,1.5,0,1,1,3,.24c-.05.62-4.87,62.88,8,89.21a1.49,1.49,0,0,1-.68,2A1.46,1.46,0,0,1,325.53,910.85Z"/><path class="cls-1" d="M445,936l-6.45-2.3C366.69,908,346.91,891.81,343,882.7c-1.33-3.05-.75-5-.44-5.75a3.5,3.5,0,0,1,6.62,2.21c.22,1.25,4.53,16.09,85.13,45.51-6.3-19.3-26.23-74.83-51.46-91.39a3.5,3.5,0,1,1,3.84-5.85c32.7,21.46,55.49,98.67,56.44,102ZM349,879.76Zm0,0h0Zm.19-.68Z"/><path class="cls-1" d="M396,869.24l-.33,0c-21-4.67-58.45-47.06-60-48.86a1.51,1.51,0,0,1,.14-2.12,1.49,1.49,0,0,1,2.12.14c.38.43,38.39,43.45,58.43,47.91a1.5,1.5,0,0,1-.32,3Z"/><path class="cls-1" d="M161.75,571.86a3.5,3.5,0,0,1-2.14-6.27l40.25-31.06a3.5,3.5,0,0,1,4.28,5.55l-40.25,31A3.51,3.51,0,0,1,161.75,571.86Z"/><path class="cls-1" d="M117.69,554.34a3.5,3.5,0,0,1-.84-6.9l74.33-18.5a3.5,3.5,0,1,1,1.69,6.79l-74.33,18.51A3.53,3.53,0,0,1,117.69,554.34Z"/><path class="cls-1" d="M181.88,529.46a2.83,2.83,0,0,1-.41,0l-22.73-2.65a3.5,3.5,0,0,1,.81-6.95l22.73,2.65a3.5,3.5,0,0,1-.4,7Z"/><path class="cls-1" d="M239.93,340l-.6,0a1.5,1.5,0,1,1,.22-3c11.44.87,41.83-30.68,52.57-42.9a1.5,1.5,0,0,1,2.26,2C292.78,297.86,255.57,340,239.93,340Z"/></svg>
