<svg id="Layer_1" data-name="Layer 1" xmlns="http://www.w3.org/2000/svg" viewBox="0 0 290 290"><defs><style>.cls-1{fill:#0a0507;}.cls-2{fill:#0f080b;}.cls-3{fill:#ead539;}.cls-4{fill:#ddca9f;}.cls-5{opacity:0.47;}.cls-6{fill:#ff1200;}.cls-7{fill:#ce7d46;}.cls-8{fill:#ed96b8;}.cls-9{fill:#caebf4;}</style></defs><path class="cls-1" d="M115.47,118.37l-6.85-33.3Z"/><rect class="cls-2" x="110.54" y="84.72" width="3" height="34" transform="translate(-18.2 24.67) rotate(-11.63)"/><path class="cls-3" d="M103.57,61C97.07,83.87,109,87.54,109,87.54Z"/><path class="cls-3" d="M103.58,61c15,18.48,5.47,26.57,5.47,26.57Z"/><path class="cls-1" d="M195,134.64,189.77,101Z"/><rect class="cls-2" x="190.89" y="100.84" width="3" height="34" transform="translate(-15.89 31.13) rotate(-8.89)"/><path class="cls-3" d="M186,76.71c-7.59,22.58,4.19,26.81,4.19,26.81Z"/><path class="cls-3" d="M186,76.71c14.12,19.18,4.19,26.8,4.19,26.8Z"/><path class="cls-1" d="M141.15,129.66l5.12-33.61Z"/><rect class="cls-2" x="126.71" y="111.36" width="34" height="3" transform="translate(10.52 237.95) rotate(-81.35)"/><path class="cls-3" d="M149.82,72.69c-14,19.23-4.09,26.82-4.09,26.82Z"/><path class="cls-3" d="M149.83,72.69c7.68,22.54-4.09,26.82-4.09,26.82Z"/><rect class="cls-4" x="66.49" y="114.99" width="157" height="101" rx="12"/><g class="cls-5"><rect class="cls-6" x="68.49" y="182.99" width="157" height="13.5" transform="translate(30.28 -19.99) rotate(8.67)"/></g><g class="cls-5"><rect class="cls-6" x="66.49" y="149.99" width="108.5" height="13.5"/></g><rect class="cls-7" x="99.2" y="166.73" width="121.49" height="15" transform="translate(-24.99 26.8) rotate(-8.89)"/><rect class="cls-7" x="64.99" y="137.99" width="157" height="15" transform="translate(17.27 -15.21) rotate(6.46)"/><circle class="cls-8" cx="200.99" cy="122.99" r="5"/><circle class="cls-9" cx="177.99" cy="132.99" r="5"/></svg>
