<svg id="Layer_1" data-name="Layer 1" xmlns="http://www.w3.org/2000/svg" viewBox="0 0 280 280"><defs><style>.cls-1{fill:#ddca9f;}.cls-2{fill:#ff1200;opacity:0.47;}.cls-3{fill:#ce7d46;}.cls-4{fill:#ed96b8;}.cls-5{fill:#caebf4;}.cls-6{fill:#0a0507;stroke:#0f080b;stroke-miterlimit:10;stroke-width:3px;}.cls-7{fill:#ead539;}.cls-8{fill:#0f080b;}</style></defs><rect class="cls-1" x="63.55" y="96.95" width="157" height="138.5" rx="12"/><rect class="cls-2" x="63.55" y="205.95" width="157" height="13.5"/><rect class="cls-2" x="63.55" y="159.95" width="157" height="13.5"/><rect class="cls-3" x="64.05" y="182.95" width="157" height="15"/><rect class="cls-3" x="63.05" y="135.95" width="157" height="15"/><circle class="cls-4" cx="91.05" cy="111.95" r="5"/><circle class="cls-4" cx="137.05" cy="113.95" r="5"/><circle class="cls-4" cx="193.05" cy="111.95" r="5"/><circle class="cls-5" cx="115.05" cy="121.95" r="5"/><circle class="cls-5" cx="167.05" cy="119.95" r="5"/><path class="cls-6" d="M106.63,97v0Z"/><path class="cls-6" d="M139.55,96v0Z"/><path class="cls-6" d="M172.55,97v0Z"/><path class="cls-7" d="M106.54,38.32c-11,21.13,0,27.13,0,27.13Z"/><path class="cls-7" d="M106.55,38.32c11,21.13,0,27.13,0,27.13Z"/><path class="cls-7" d="M139.54,38.32c-11,21.13,0,27.13,0,27.13Z"/><path class="cls-7" d="M139.55,38.32c11,21.13,0,27.13,0,27.13Z"/><path class="cls-7" d="M172.54,38.32c-11,21.13,0,27.13,0,27.13Z"/><path class="cls-7" d="M172.55,38.32c11,21.13,0,27.13,0,27.13Z"/><rect class="cls-1" x="63.55" y="96.95" width="157" height="138.5" rx="12"/><rect class="cls-2" x="63.55" y="205.95" width="157" height="13.5"/><rect class="cls-2" x="63.55" y="159.95" width="157" height="13.5"/><rect class="cls-3" x="64.05" y="182.95" width="157" height="15"/><rect class="cls-3" x="63.05" y="135.95" width="157" height="15"/><circle class="cls-4" cx="91.05" cy="111.95" r="5"/><circle class="cls-4" cx="137.05" cy="113.95" r="5"/><circle class="cls-4" cx="193.05" cy="111.95" r="5"/><circle class="cls-5" cx="115.05" cy="121.95" r="5"/><circle class="cls-5" cx="167.05" cy="119.95" r="5"/><rect class="cls-8" x="105.13" y="62.95" width="3" height="34"/><rect class="cls-8" x="138.05" y="61.95" width="3" height="34"/><rect class="cls-8" x="171.05" y="62.95" width="3" height="34"/><path class="cls-7" d="M106.54,38.32c-11,21.13,0,27.13,0,27.13Z"/><path class="cls-7" d="M106.55,38.32c11,21.13,0,27.13,0,27.13Z"/><path class="cls-7" d="M139.54,38.32c-11,21.13,0,27.13,0,27.13Z"/><path class="cls-7" d="M139.55,38.32c11,21.13,0,27.13,0,27.13Z"/><path class="cls-7" d="M172.54,38.32c-11,21.13,0,27.13,0,27.13Z"/><path class="cls-7" d="M172.55,38.32c11,21.13,0,27.13,0,27.13Z"/></svg>
