<svg id="Layer_1" data-name="Layer 1" xmlns="http://www.w3.org/2000/svg" viewBox="0 0 850.39 850.39"><defs><style>.cls-1{fill:#020202;}.cls-2,.cls-4{fill:none;}.cls-3{fill:#050404;}.cls-4{stroke:#000;stroke-miterlimit:10;stroke-width:10px;}</style></defs><path class="cls-1" d="M210.37,745.23l-2.12-2.84c-19.21-25.68-19.63-48.91-16.59-63.88,3.29-16.24,11.08-26.28,11.41-26.7l1.86-2.37,1.61,2.54c14.2,22.32,14.9,45.61,13,61.22A102.81,102.81,0,0,1,211.89,742Zm-5.73-88.17a68.51,68.51,0,0,0-8.84,22.49c-3.88,19.39.71,38.62,13.64,57.2a106.13,106.13,0,0,0,5.88-24.22C217,698.31,216.49,677.4,204.64,657.06Z"/><path class="cls-1" d="M157.05,693.8a30.14,30.14,0,0,1-3.59-.62l-1.52-.39-.07-1.57c-.56-11.53,2.2-19.59,8.22-24,9.38-6.83,22.9-1.85,23.47-1.63l1.41.53,0,1.5c-.17,10.06-3.21,17.4-9,21.82C169.58,694.3,161.6,694.31,157.05,693.8Zm-1-4.45c3.34.53,11.4,1.21,17.29-3.29,4.42-3.37,6.85-9,7.26-16.9-3.39-1-12.08-2.8-18,1.55C158.08,674,155.89,680.26,156.07,689.35Z"/><path class="cls-1" d="M180.68,667.54c.48-15,22.4-29.47,23.33-30.08l2.33,3.57c-.21.14-21,13.85-21.4,26.65Z"/><path class="cls-1" d="M215.21,586.55l-1.76-12.26c-.16.83-.27,1.66-.5,2.46a1.65,1.65,0,0,1-.36.63L211,586.49c0,.16-2.89,16.59-5.34,32.9-1.44,9.6-2.46,17.29-3,22.85-.34,3.34-.52,6-.54,7.8s-.05,4.62,2.15,5.16l1-4.15a1.74,1.74,0,0,1,1.21,1c-.91-3.08,2.58-28.06,6.8-53.45,3.19,13.45,10.15,35.57,23.45,49.09l3-3C221,625.69,215.27,586.94,215.21,586.55Z"/><path class="cls-1" d="M256.68,670.34l-2.09-.38c-.43-.08-10.71-2-16-9.75-2.76-4.07-3.6-8.92-2.5-14.43l.4-2,2,.29c.42.06,10.34,1.55,15.69,9,3,4.14,3.94,9.25,2.85,15.17ZM240,648.78a13.57,13.57,0,0,0,2.15,9c2.92,4.32,8.09,6.47,11,7.39a14.13,14.13,0,0,0-2.4-9.6C247.81,651.45,242.82,649.56,240,648.78Z"/><path d="M157,654.51l0-5c.11-22.76,12.42-36.25,22.73-43.56a68.47,68.47,0,0,1,22.44-10.44l1.11-.25.82.79a3.64,3.64,0,0,1,1.09,2.72c0,1.76,0,6.42-22.56,30.18-10.89,11.48-21.92,22-22,22.11Zm43.48-54.1a67,67,0,0,0-18.38,9.09c-12.24,8.74-19.14,20.4-20.54,34.72,4.23-4.13,11.35-11.18,18.36-18.58C194.82,609.87,199.2,603.16,200.45,600.41Z"/><rect x="200.37" y="590.09" width="15" height="4.26" transform="translate(-361.12 327.3) rotate(-45.69)"/><path d="M235.37,538.19,232,535.66c-2.79,3.14-11.34,11.56-17.31,12.79l.86,4.18c3.14-.65,6.54-2.64,9.62-4.93-4,7.67-9,18-11.83,27.43-.1.55-.2,1.09-.35,1.62a1.66,1.66,0,0,1-.27.53,48.72,48.72,0,0,0-1.71,9.44l4.26.27C216.33,569.49,235.18,538.5,235.37,538.19Z"/><path d="M264.5,633l-3-1.53c-20.46-10.37-28.88-23.54-32.35-32.76-3.81-10.13-2.67-17.77-2.61-18.09l.25-1.6,1.6-.19c8.61-1,15.92,1.13,21.71,6.39,15,13.59,14.52,43.14,14.49,44.39Zm-33.9-50.09a37.76,37.76,0,0,0,2.61,14.54c4.3,11.24,13.61,21.05,27,28.53-.36-8.08-2.35-27.92-13-37.61C242.76,584.31,237.18,582.48,230.6,582.89Z"/><path d="M145.85,603.84l1.21-4.19c5.17-17.95,18.55-32.51,38.7-42.09a107.8,107.8,0,0,1,29-9.13l1.72-.24.58,1.65c1.92,5.51-.72,11.76-7.85,18.6-5.31,5.09-13.19,10.62-23.44,16.45a341.74,341.74,0,0,1-35.91,17.33ZM213.42,553a108.92,108.92,0,0,0-25.93,8.48c-17.55,8.37-29.26,20.13-34.88,35a330.51,330.51,0,0,0,31.13-15.3C203.46,570,213.85,560.05,213.42,553Z"/><path d="M290.92,525.84c-.18-.17-18.4-16.68-16.77-33.21l-4.24-.42c-1.62,16.4,13,31.79,17.11,35.81-2.25,4-13.34,11-21.2,14.93l-.2.12c-.11.06-10.28,6.23-30.52-7.52a30.72,30.72,0,0,1-3.93-10.79c-1.6-9.24.43-18.79,6-28.39l1.68-2.71-3.1-.45c-.4-.12-6.4-2-8.39-14.92l-.19-1.18a8.13,8.13,0,0,1,.59-4.55,9.14,9.14,0,0,1,.6-1.88,4.59,4.59,0,0,1,.89-2.19c9.33-27.54,62-41.18,62.56-41.33l4.06-1a4.24,4.24,0,0,1-1.75-2.83s0-.08,0-.12l-2.65-.21c-21.29-1.74-40,.57-55.51,6.87a77.55,77.55,0,0,0-31.25,22.74,76.7,76.7,0,0,0-16.5,35.56l-.28,2.17,2.17.22c17.65,1.84,28.83-4.29,33.77-7.94,2.05,8.45,5.9,12.13,8.48,13.69-6.55,12.29-6.57,22.72-5.36,29.45a33.07,33.07,0,0,0,4.81,12.59l.22.3.31.22c9.66,6.62,17.38,9.13,23.13,9.77,7.39.83,11.53-1.4,12.35-1.9s5.78-3,11-6.33c10.61-6.79,12.36-10.43,12.75-12.57l.21-1.18Zm-64.56-60.5c0,.06,0,.13-.05.2a56.26,56.26,0,0,1-1.23,7.82,19.84,19.84,0,0,1-.69,3,1.79,1.79,0,0,1-1,1.11c-1.93,1.77-12.12,10.18-30.53,9a75.61,75.61,0,0,1,15.29-31.36C224,436,247.79,426.41,279.06,426.66a166.64,166.64,0,0,0-21.4,9.16c-9.7,5.05-17.47,10.6-23.09,16.51a42.59,42.59,0,0,0-8.11,11.72l0,.17A2.86,2.86,0,0,1,226.36,465.34Z"/><path d="M321,484.66a79.5,79.5,0,0,0-7.3-33.76c-8.31-17.94-20.61-27.14-21.13-27.52l-2.23-1.65a1.91,1.91,0,0,1-1.66.9l.53,2.85a93.91,93.91,0,0,1-.76,31.93c-4.47,21.88-16.62,37-36.12,44.83-2.27-2.62-8.12-8.27-16.78-9.07l-.4,4.25c9.12.86,14.71,8.54,14.76,8.61l1,1.35,1.55-.59c21.53-8.16,35.45-25,40.25-48.66a98.67,98.67,0,0,0,1.46-27.71,76.24,76.24,0,0,1,15.79,22.45c10.46,22.77,9,48.43-4.37,76.26L309.4,531C317.06,515,321,499.42,321,484.66Z"/><rect x="296.36" y="519.66" width="4.26" height="18.17" transform="translate(-267.87 747.6) rotate(-81.68)"/><path class="cls-2" d="M307.48,530.05s-4.13,4.59,1.62-.42"/><path class="cls-3" d="M212.9,532.19a42.34,42.34,0,0,1-13.75-4.05l-.21-.11-.17-.16C186.88,517.21,196.6,489.23,197,488l3.61,1.28c-.09.26-9.17,26.42.52,35.53,1.85.9,15.86,7.32,27.44.81l1.88,3.34A28.82,28.82,0,0,1,212.9,532.19Z"/><path class="cls-3" d="M388.1,406.13l.39-3.23a9.92,9.92,0,0,1-2.55-.94l-1.48,3.11c-6.28,13.22-38.09,22.78-41.84,23.86-27.5-3.43-38.1-20.33-38.2-20.49l-.63-1.05-1.21.13c-5.94.6-9.72,7.72-11.64,12.62a1.82,1.82,0,0,1,0,.33,2,2,0,0,1-.55,1.19l0,0c-.5,1.43-.8,2.51-.9,2.89l3.71,1c.2-.75.53-1.8,1-3a1.8,1.8,0,0,1,.28-.73c1.55-4,4.21-9.05,7.5-10.27,3,4.19,14.87,18.13,40.63,21.21l.37,0,.37-.1c1.33-.37,29.11-8.17,40.83-20.62.32,7.34,2.52,19.12,12.53,25.56l2.08-3.23C385.83,426.15,388.07,406.33,388.1,406.13Z"/><path class="cls-3" d="M401.08,453.91c-6.09-.69-10.53-5.77-9.91-11.32s6.09-9.53,12.18-8.84,10.53,5.76,9.9,11.32S407.16,454.59,401.08,453.91Zm1.84-16.35c-4-.45-7.55,2-7.94,5.45s2.54,6.64,6.53,7.08,7.54-2,7.93-5.45S406.9,438,402.92,437.56Z"/><path class="cls-3" d="M381,443.3c-3.32-1.37-4.08-6.86-2.57-18.36,1-7.47,2.61-14.54,2.68-14.84l3.74.86c0,.07-1.58,6.9-2.55,14-1.8,13.23.16,14.77.18,14.78Z"/><path class="cls-3" d="M381.48,454.84c-4.64-.52-8-4.42-7.55-8.69s4.65-7.31,9.29-6.78,8,4.41,7.56,8.68S386.13,455.36,381.48,454.84Zm1.31-11.66c-2.54-.29-4.8,1.24-5.05,3.4s1.63,4.16,4.17,4.45,4.81-1.25,5-3.41S385.34,443.47,382.79,443.18Z"/><path class="cls-3" d="M340.28,346.45a7.33,7.33,0,0,0-.63,1.7l-2.53,1.17c-12.79,5.93-24.86,11.53-35,22.92l-.1.13c-3.1,4.05-6.61,8.64-5.55,14.93l3.95-.66c.05-.4.1-.8.14-1.2-.17-3.87,2.13-6.94,4.79-10.42,9.58-10.69,21.25-16.1,33.6-21.83l3.56-1.65,1.08-.51.13-1.19a4.14,4.14,0,0,1,.39-1.45Z"/><path class="cls-3" d="M346.3,338.65a48.81,48.81,0,0,0-7.7-11.16l-.13-.14-.15-.12a27.36,27.36,0,0,1-4.61-4.91l-.19-.21c-6.12-5.91-11.87-9.55-18.07-11.45h-.05A36.16,36.16,0,0,0,285.31,315c-13.54,8.75-24.72,21.52-35.18,40.21l-.53.94.45,1c4.9,10.73,10.5,18.2,18.15,24.22l.06,0c8.69,6.36,18,9.41,27,8.94l.12.13c-1,6.18.88,12.93,5.61,20.12l3.57-2.34c-4.77-7.26-6.25-13.81-4.39-19.5l.05-.14c0-1.1.18-2.18.32-3.29l-2.68.49c-11.24,1.64-20.91-3.34-27.05-7.83-6.85-5.39-11.94-12.09-16.43-21.63,10-17.54,20.54-29.56,33.21-37.75a32.07,32.07,0,0,1,26.63-3.87c5.5,1.69,10.66,5,16.24,10.34a31.31,31.31,0,0,0,5.11,5.42,44.17,44.17,0,0,1,6.51,9.29,2.86,2.86,0,0,0,0,2.32l3.82-1.89a1.68,1.68,0,0,1,.16,1.13,1.48,1.48,0,0,1,.1-.27,4.32,4.32,0,0,0,.36-1.21l.07-.65Z"/><path class="cls-3" d="M347.34,353.67c-4.89-.55-8.46-4.66-7.95-9.15s4.89-7.71,9.78-7.16,8.45,4.66,7.95,9.15S352.22,354.22,347.34,353.67Zm2-6.05.41.23.05,0,.06,0,.36-.28.44-.11a4.88,4.88,0,0,0,.86-.31h0a.53.53,0,0,0,0-.15c-.12-1.3-.55-3.57-2.15-4.24a3.34,3.34,0,0,0-3.13.63,2.91,2.91,0,0,0-1.34,2.44c.19,1.23,2,1.49,2.6,1.54h.17l.18.05a6.52,6.52,0,0,0,1,.17Z"/><path class="cls-3" d="M206.72,417.86l0-2.08c0-1.34.72-33,19.19-46.57,8.7-6.39,19.83-7.62,33.09-3.68l-1.22,4.09c-11.9-3.54-21.77-2.53-29.34,3-14.2,10.41-16.86,34-17.35,41.12,30.86.87,47.25-6.85,55.61-13.58,9.12-7.34,10.83-15.08,10.85-15.16l4.18.84c-.08.37-1.91,9.09-12.05,17.39C256.47,414.1,236,419,208.8,418Z"/><path class="cls-3" d="M248.63,358.16a103,103,0,0,1-25.36-6.65c-15.81-6.14-40-19.17-65.58-46.39l-2.76-2.94,4-.63A426,426,0,0,1,217,297c40,0,61.76,8.23,64.57,24.44l-4.2.73c-3-17.27-34.49-20.9-60.37-20.9a418.61,418.61,0,0,0-53.36,3.91c23.86,24.52,46.18,36.51,60.93,42.27,16.61,6.49,27.48,6.72,27.59,6.72l0,4.27C252,358.42,250.75,358.4,248.63,358.16Z"/><path class="cls-3" d="M355.13,343l-3.39-2.58c20-26.28,26.18-46.85,18.29-61.13-12.11-21.89-53.85-22.68-59-22.7-12.77,7.07-20.16,19-22,35.4a74.9,74.9,0,0,0,1.24,23.39l-4.13,1a77.3,77.3,0,0,1-1.36-24.77c1.93-17.9,10.45-31.41,24.65-39.06l.46-.25h.51a128.86,128.86,0,0,1,26.06,2.71c18.74,3.94,31.27,11.41,37.23,22.19C382.55,293.13,376.28,315.26,355.13,343Z"/><path class="cls-3" d="M365.23,350.09a100,100,0,0,1-10.72-1.74l1-4.15c.4.09,40,9,55.4-9.13,8.61-10.17,8.15-27.18-1.37-50.56-2.47-.7-9.29-2.55-16.36-3.79-16.08-2.82-18.26.13-18.46.47l-3.71-2.1c2.32-4.09,9.61-4.91,22.94-2.56a179.83,179.83,0,0,1,17.77,4.17l1,.29.39.94c10.56,25.47,10.92,44.28,1.07,55.9C402.29,351.81,379,351.64,365.23,350.09Z"/><path class="cls-3" d="M442.88,394.43c-20.59,8.11-37.93,11-51.86,8.8a12.82,12.82,0,0,1-4.24-.87,41.71,41.71,0,0,1-13.6-6.06c-20.83-14.36-20.71-44.62-20.71-44.92l-4.26-.06a72.93,72.93,0,0,0,2.62,18.23c3.59,13.27,10.47,23.73,19.9,30.24a48.07,48.07,0,0,0,22.36,8c14.2,1.6,31.37-1.54,51.35-9.41Z"/><path class="cls-3" d="M445.8,397.22l-4.2-.68c2.83-17.39-2.05-31.63-14.5-42.32a58.44,58.44,0,0,0-20-11.07l1.13-4.11a61.84,61.84,0,0,1,21.52,11.84C439.21,359,449.66,373.53,445.8,397.22Z"/><path class="cls-3" d="M447.86,365.66a101.36,101.36,0,0,1-11.67-2l1-4.15c22.75,5.23,42.36,2.33,58.28-8.6a60.12,60.12,0,0,0,16.32-16.61c-19.05-14.3-40.25-19.82-63.07-16.43A87.07,87.07,0,0,0,419,327.77l-2.23-3.64c.51-.32,12.71-7.69,31.07-10.46a86.82,86.82,0,0,1,31.74.95,90.37,90.37,0,0,1,36.25,17.44l1.41,1.1-.83,1.57c-.23.44-5.72,10.78-18.41,19.56C487.94,361.27,471.48,368.32,447.86,365.66Z"/><path class="cls-3" d="M377.47,277.2l-4-1.62,2,.81-2-.8c0-.09,3.4-8.72,0-21.31l4.12-1.12C381.44,267.23,377.64,276.8,377.47,277.2Z"/><path class="cls-3" d="M372.32,255.5c-5.16-.58-8.92-4.91-8.39-9.65s5.17-8.12,10.33-7.54,8.92,4.91,8.39,9.65S377.48,256.08,372.32,255.5Zm1.46-13c-2.82-.31-5.34,1.38-5.61,3.79s1.81,4.61,4.63,4.93,5.34-1.38,5.61-3.78S376.6,242.86,373.78,242.54Z"/><path class="cls-3" d="M515.8,271.22c-20.89-13.8-55.42-3.79-60.42-2.23-16.13-3.39-27.67.06-34.54,3.58a39.74,39.74,0,0,0-6.95,4.49c.32-3,.7-6.82,1-10.64.92-12.14.42-16.57-.63-18.4,1.28-1.94,5.31-8.83,6.11-19.67.84-11.5-2-29.87-20.14-52.11l-2.43-3-1.24,3.64A101.69,101.69,0,0,0,392,203.82c-.57,19.07,5.11,34.23,16.44,44,0,1.45,1.33,2.27,2.22,2.69,1.06,3,0,18.7-1.72,32l-.28,2.21a5.3,5.3,0,0,1,1.62,2.61l2.48-3.27c.13-.17,13.31-17.07,42.25-10.76l.57.13.55-.18c.07,0,1.4-.46,3.66-1.05l-1.3,2.11a54.43,54.43,0,0,0,39.21,6.84,61.25,61.25,0,0,0,18-6.28l2.95-1.73ZM411.32,244.63c-10.49-9-15.55-22.6-15-40.58a101.21,101.21,0,0,1,3.19-21.88c11.86,15.58,17.61,31.28,16.65,45.59A39.78,39.78,0,0,1,411.32,244.63ZM496.79,277c-12.53,2.35-24.13.52-34.52-5.41,10.54-2.54,32.46-6.33,47.82,1.3A61.81,61.81,0,0,1,496.79,277Z"/><path class="cls-3" d="M412.56,284.28l-2.95-3.07,45.75-43.92c-10.2-20.78-11.49-36-3.81-45.14,14.84-17.72,57.32-5.6,59.12-5.07l1.13.33.32,1.13c6.09,21.16,4.52,36.53-4.65,45.66-14.58,14.51-43.17,8.11-49.48,6.48Zm46-47.87c4.35,1.15,32.66,8,45.91-5.24,7.83-7.8,9.13-21.35,3.89-40.31-6.74-1.77-41.7-10.11-53.53,4-6.56,7.84-5,21.65,4.64,41.07Z"/><path class="cls-3" d="M450.05,194.89l-.47-18.48,1.73-.37c3.88-.83,12.15.12,15.69,9.67l-4,1.48c-2.25-6.07-6.6-7.08-9.06-7.12l.38,14.71Z"/><path class="cls-3" d="M519.74,250.7h0a2.23,2.23,0,0,1-1.89-1.61c-2.13-1.64-13.41-5.35-23.11-8l1.12-4.11c.06,0,6.28,1.7,12.42,3.7,3.63,1.18,6.54,2.24,8.64,3.14a23,23,0,0,1,2.86,1.43c1.16-2.38,2.55-6.8,1.52-10.79s-4.2-6.73-9.46-8.33l1.24-4.08c14,4.25,13.33,15.09,12.4,19.56a23.23,23.23,0,0,1-2.05,5.84C522.15,250,521.11,250.86,519.74,250.7Z"/><path class="cls-3" d="M515.32,205.89l-4-1.46a14.48,14.48,0,0,1,6.05-6.8c5.79-3.47,13.66-3.5,23.38-.08l-1.42,4C519.83,194.71,515.49,205.43,515.32,205.89Z"/><path class="cls-3" d="M546.88,209.94c-5.16-.58-9-4.64-8.46-9.05s5.1-7.52,10.26-6.94,9,4.64,8.46,9.05S552,210.53,546.88,209.94Zm1.32-11.76c-2.77-.31-5.31,1.15-5.54,3.19s1.92,4,4.7,4.34,5.31-1.15,5.54-3.19S551,198.5,548.2,198.18Z"/><path class="cls-3" d="M568.51,145.86l.06-2.32-2.32.14c-1,.06-23.4,1.56-33.12,13.6a19.7,19.7,0,0,0-4.26,15l-13.74,10.38c4.33-11.43,10.76-33.68,3.19-50.41l-1.9-4.18-2,4.15c-.71,1.48-17.21,36.6-8.1,57.3l1.48-.65-.94,1.94a2.43,2.43,0,0,1,1.25.78,2.46,2.46,0,0,1,.41.65c.05.1.21.45,0,.1a3.33,3.33,0,0,1,.24.46l21.56-16.29c3.82.81,17.21,2.91,27.19-4.58C564.54,166.64,568.23,157.87,568.51,145.86Zm-59.14,39.6c-4.72-14.72,2.89-36.77,6.82-46.51C520.72,156.06,512.58,177.89,509.37,185.46Zm45.61-17c-7.22,5.44-17,4.88-21.76,4.19a15.57,15.57,0,0,1,3.22-12.7c6.83-8.48,21.87-11.09,27.7-11.8C563.5,157.55,560.43,164.38,555,168.48Z"/><path d="M458,272.85l.07,0-.36-.15a6.2,6.2,0,0,1,1.43.83l-.31-.24a5.34,5.34,0,0,1,.66.59,1.56,1.56,0,0,0,1.06.44,1.54,1.54,0,0,0,1.06-.44,1.47,1.47,0,0,0,.44-1.06,1.52,1.52,0,0,0-.44-1.06,8.31,8.31,0,0,0-1.3-1.07,7.63,7.63,0,0,0-1.51-.76,1,1,0,0,0-.6,0,1.09,1.09,0,0,0-.55.18,1.53,1.53,0,0,0-.69.89,1.51,1.51,0,0,0,.15,1.16l.23.3a1.49,1.49,0,0,0,.66.39Z"/><path d="M454.67,273.67a6.81,6.81,0,0,0,4.93,2,1.5,1.5,0,0,0,.4-3l-.37-.14.36.15a5.8,5.8,0,0,1-1.32-.76l.3.23a3.27,3.27,0,0,1-.35-.3l-1.46,2.51a3.55,3.55,0,0,0,3.45-.79,1.52,1.52,0,0,0,.44-1.06,1.5,1.5,0,0,0-.44-1.06,1.53,1.53,0,0,0-2.12,0l-.13.11.3-.24a2.36,2.36,0,0,1-.4.24l.36-.16a2.16,2.16,0,0,1-.55.16l.4-.06a2.27,2.27,0,0,1-.52,0l.4.05a2.46,2.46,0,0,1-.39-.09,1.43,1.43,0,0,0-1,.07,1.41,1.41,0,0,0-.72.62,1.51,1.51,0,0,0,.24,1.81,7.66,7.66,0,0,0,2.71,1.6l.39-2.95a4.91,4.91,0,0,1-.86-.05l.4.06a5.39,5.39,0,0,1-1.32-.37l.36.15a5.32,5.32,0,0,1-1.18-.68l.3.23a5.47,5.47,0,0,1-.51-.45,1.51,1.51,0,0,0-2.12,0,1.53,1.53,0,0,0,0,2.12Z"/><path d="M374.45,277.49a1.5,1.5,0,0,0,0-3,1.5,1.5,0,0,0,0,3Z"/><path d="M374.31,277.47a1.5,1.5,0,0,0,0-3,1.5,1.5,0,0,0,0,3Z"/><path d="M376,276.58l.09-.82h-3a1.83,1.83,0,0,1,0,.33l.06-.4a2.19,2.19,0,0,1-.14.5l.15-.36a1.3,1.3,0,0,1-.08.17l2.8.75.1-1-.05-.4a1.14,1.14,0,0,0-.27-.51.78.78,0,0,0-.27-.27,1.26,1.26,0,0,0-.51-.27l-.4-.05-.4.05a1.26,1.26,0,0,0-.51.27,1.13,1.13,0,0,0-.39.42l-.38.66,2.59,1.52.58-1.13a1.14,1.14,0,0,0,.17-.56,1.11,1.11,0,0,0,0-.6,1.14,1.14,0,0,0-.27-.51,1.31,1.31,0,0,0-.42-.39l-.36-.15a1.55,1.55,0,0,0-.8,0l-.36.15a1.61,1.61,0,0,0-.53.54l-.58,1.13a1.12,1.12,0,0,0-.18.56,1.22,1.22,0,0,0,0,.6,1.06,1.06,0,0,0,.27.51,1,1,0,0,0,.42.38l.36.15a1.33,1.33,0,0,0,.79,0l.36-.15a1.45,1.45,0,0,0,.54-.53l.38-.67-2.79-.75-.1,1,.05.4a1.14,1.14,0,0,0,.27.51.87.87,0,0,0,.27.27,1.14,1.14,0,0,0,.51.27l.4.05.4-.05a1.26,1.26,0,0,0,.51-.27,1.18,1.18,0,0,0,.38-.42,3.61,3.61,0,0,0,.34-.84q.06-.32.09-.63a2.62,2.62,0,0,0,0-.28,1.06,1.06,0,0,0-.13-.58,1.11,1.11,0,0,0-.31-.49,1.21,1.21,0,0,0-.48-.31,1.14,1.14,0,0,0-.58-.12l-.4.05a1.57,1.57,0,0,0-.66.38l-.23.31a1.43,1.43,0,0,0-.21.76l-.09.82a1.15,1.15,0,0,0,.13.58,1,1,0,0,0,.31.48,1.27,1.27,0,0,0,.48.32,1.14,1.14,0,0,0,.58.12l.4-.05a1.49,1.49,0,0,0,.66-.39l.24-.3a1.54,1.54,0,0,0,.2-.76Z"/><path d="M445.35,398.16l.46-.82a1.16,1.16,0,0,0,.18-.56,1.22,1.22,0,0,0,0-.6,1,1,0,0,0-.27-.51,1.13,1.13,0,0,0-.42-.39l-.36-.15a1.51,1.51,0,0,0-.79,0l-.36.15a1.55,1.55,0,0,0-.54.54l-.46.83a1.09,1.09,0,0,0-.18.55,1.22,1.22,0,0,0,0,.6,1.14,1.14,0,0,0,.27.51,1.21,1.21,0,0,0,.42.39l.36.15a1.55,1.55,0,0,0,.8,0l.35-.15a1.4,1.4,0,0,0,.54-.54Z"/><path d="M445.14,399l1-1.21a1.14,1.14,0,0,0,.31-.48,1.36,1.36,0,0,0,0-1.16,1.14,1.14,0,0,0-.31-.48l-.3-.24a1.57,1.57,0,0,0-.76-.2l-.4,0a1.49,1.49,0,0,0-.66.39l-1,1.21a1.11,1.11,0,0,0-.31.48,1.27,1.27,0,0,0-.13.58,1.22,1.22,0,0,0,.13.57,1.21,1.21,0,0,0,.31.49l.31.23a1.42,1.42,0,0,0,.75.21l.4-.06a1.45,1.45,0,0,0,.66-.38Z"/><path d="M444.65,395.42l-.75.46-.38.23-.06,0a2,2,0,0,0-.32.25l0,0a1.82,1.82,0,0,0-.45.77l0,.2,0,.22v0l0,.2,0,.22c0,.11.32.71.16.37a1.63,1.63,0,0,0,.61.64l.06,0,.18.08.2.08h0l.2,0,.21,0h0l.42-.06h.06l0,0a2.54,2.54,0,0,0,.38-.16l.07,0,.36-.27.07-.07a4,4,0,0,0,.45-.55,4.37,4.37,0,0,0,.33-.69,1.9,1.9,0,0,0,.11-.39,1.22,1.22,0,0,0,0-.6,1.12,1.12,0,0,0-.18-.56,1.21,1.21,0,0,0-.39-.42,1.14,1.14,0,0,0-.51-.27l-.4-.05a1.5,1.5,0,0,0-.75.2l-.31.24a1.45,1.45,0,0,0-.38.66l-.08.27a1.11,1.11,0,0,0,0,.6,1.16,1.16,0,0,0,.18.56,1.18,1.18,0,0,0,.38.42,1.26,1.26,0,0,0,.51.27l.4.05a1.57,1.57,0,0,0,.76-.2l.3-.24a1.49,1.49,0,0,0,.39-.66l.07-.27-2.89-.8a1.85,1.85,0,0,1-.12.4l.15-.36a2,2,0,0,1-.23.4l.24-.31a1.55,1.55,0,0,1-.25.26l.3-.23-.13.07.36-.15-.1,0,.4-.05h-.08l.4.05-.05,0,.36.15-.06,0,.3.23,0,0,.23.31,0-.06.15.36s0,0,0,0l.06.4a0,0,0,0,1,0-.05l-.06.4s0,0,0,0l-.15.36,0,0-.23.3.05-.05-.3.23.27-.17.31-.19.62-.38a1,1,0,0,0,.42-.39,1.05,1.05,0,0,0,.27-.51,1.18,1.18,0,0,0,0-.59,1.12,1.12,0,0,0-.18-.56l-.23-.3a1.47,1.47,0,0,0-.67-.39l-.4,0a1.41,1.41,0,0,0-.75.2Z"/><path d="M306.75,531.58a4.91,4.91,0,0,0,.84-.14,4.54,4.54,0,0,0,.77-.3,1.87,1.87,0,0,0,.39-.22,5.59,5.59,0,0,0,.66-.52,1.14,1.14,0,0,0,.31-.48,1.17,1.17,0,0,0,.13-.58,1.15,1.15,0,0,0-.13-.58,1,1,0,0,0-.31-.48,1.52,1.52,0,0,0-1.06-.44l-.4,0a1.49,1.49,0,0,0-.66.39,1.92,1.92,0,0,1-.22.18l.31-.23a2.84,2.84,0,0,1-.61.35l.36-.15a2.69,2.69,0,0,1-.67.19l.4,0h-.11a1.08,1.08,0,0,0-.58.13,1.14,1.14,0,0,0-.48.31,1.11,1.11,0,0,0-.31.48,1.27,1.27,0,0,0-.13.58l.06.4a1.57,1.57,0,0,0,.38.66l.31.23a1.42,1.42,0,0,0,.75.21Z"/><path d="M305.43,531a2.38,2.38,0,0,0,.92.94,2.85,2.85,0,0,0,.63.25,2.5,2.5,0,0,0,.67.06,2.84,2.84,0,0,0,.52-.07c.16-.05.34-.14.48-.19a2.23,2.23,0,0,0,.53-.38,2,2,0,0,0,.42-.49,2.09,2.09,0,0,0,.28-.63,1,1,0,0,0,0-.59,1.12,1.12,0,0,0-.18-.56,1,1,0,0,0-.38-.42,1.26,1.26,0,0,0-.51-.27,1.51,1.51,0,0,0-1.16.15,1.64,1.64,0,0,0-.69.9l0,.09.15-.36a1.18,1.18,0,0,1-.11.19l.23-.3a1.14,1.14,0,0,1-.19.19l.31-.24-.22.13.36-.16-.21.06.4-.05h-.25l.4.05a.73.73,0,0,1-.24-.07l.36.15a.94.94,0,0,1-.22-.12l.3.23-.16-.16.24.31a.6.6,0,0,1-.09-.15,1.13,1.13,0,0,0-.39-.42,1.06,1.06,0,0,0-.51-.27,1.22,1.22,0,0,0-.6,0,1.16,1.16,0,0,0-.56.18,1.52,1.52,0,0,0-.69.9l0,.39a1.43,1.43,0,0,0,.21.76Z"/><path d="M306.14,532.77a2.64,2.64,0,0,0,.68.25,3.31,3.31,0,0,0,.54.06,4.63,4.63,0,0,0,.55-.06,2,2,0,0,0,.35-.09,3.31,3.31,0,0,0,.66-.31,4.8,4.8,0,0,0,.56-.45,4.26,4.26,0,0,0,.47-.58,7.74,7.74,0,0,0,.44-.67,1.57,1.57,0,0,0,.15-1.16,1.51,1.51,0,0,0-.69-.9,1.54,1.54,0,0,0-1.15-.15,1.56,1.56,0,0,0-.9.69,7.15,7.15,0,0,1-.44.68l.24-.31a2.25,2.25,0,0,1-.43.44l.3-.23a1.75,1.75,0,0,1-.35.2l.36-.15a1.61,1.61,0,0,1-.36.1l.39-.06h-.29l.39.06a1.21,1.21,0,0,1-.25-.08l.36.15-.06,0a1.57,1.57,0,0,0-1.16-.16,1.54,1.54,0,0,0-.89.69,1.52,1.52,0,0,0-.16,1.16,1.56,1.56,0,0,0,.69.9Z"/><line class="cls-4" x1="230.72" y1="582.75" x2="218.3" y2="569.13"/><path d="M454.85,510.59a2,2,0,0,1-.84,1.19,2.42,2.42,0,0,1-1.41.43,2.7,2.7,0,0,1-1.85-.62,1.88,1.88,0,0,1-.71-1.43,7.21,7.21,0,0,1,.19-1.6,6.32,6.32,0,0,0,.2-1.54,10.2,10.2,0,0,0-2.89-7.07,22.25,22.25,0,0,0-8.16-5.27,57.28,57.28,0,0,0-12.85-3.26,113.49,113.49,0,0,0-16.84-1.14,130.61,130.61,0,0,0-14.32.79,124.72,124.72,0,0,0-13.83,2.26,87,87,0,0,0-12.4,3.73,48.44,48.44,0,0,0-10,5.18,25.67,25.67,0,0,0-6.7,6.54,13.72,13.72,0,0,0-2.43,7.86,10.12,10.12,0,0,0,1.7,5.8,15.4,15.4,0,0,0,4.64,4.38,31.31,31.31,0,0,0,6.95,3.18,66.55,66.55,0,0,0,8.68,2.22c3.12.59,6.36,1.08,9.74,1.46s6.76.69,10.18.94l9.87.7q7.35.54,13.19,1.14A100.53,100.53,0,0,1,425.19,538q7.37,1.57,10.89,4.48a9.59,9.59,0,0,1,3.52,7.78,12.25,12.25,0,0,1-3.07,8.26,24.09,24.09,0,0,1-8.39,6,51.21,51.21,0,0,1-12.43,3.67,88.44,88.44,0,0,1-15.25,1.24,105.82,105.82,0,0,1-15.53-1,101,101,0,0,1-11.21-2.21,53.6,53.6,0,0,1-6.88-2.24c-1.58-.69-2.44-1.06-2.57-1.14a1.8,1.8,0,0,1-1.15-1.72,1.77,1.77,0,0,1,.77-1.49,2.74,2.74,0,0,1,1.67-.57,2.57,2.57,0,0,1,1.28.33s.77.31,2.21.94a45.88,45.88,0,0,0,6.4,2.08,94.2,94.2,0,0,0,10.54,2,100.86,100.86,0,0,0,14.6.92,84.39,84.39,0,0,0,14.61-1.13,43.47,43.47,0,0,0,10.66-3.16,18.2,18.2,0,0,0,6.53-4.75,9.18,9.18,0,0,0,2.21-5.92,6.28,6.28,0,0,0-.8-3.26,7.45,7.45,0,0,0-2.21-2.38,13.9,13.9,0,0,0-3.36-1.7,31.2,31.2,0,0,0-4.26-1.19q-2.43-.54-5.22-.92t-5.73-.65c-2-.18-3.94-.34-5.93-.48l-5.86-.43-9.86-.71A166.43,166.43,0,0,1,371,536.16a63.7,63.7,0,0,1-14.44-4.37,22.85,22.85,0,0,1-8.65-6.4,13.84,13.84,0,0,1-2.88-8.7,16.83,16.83,0,0,1,2.72-9.31,28.57,28.57,0,0,1,7.43-7.65,50.93,50.93,0,0,1,11-5.91,95.34,95.34,0,0,1,13.48-4.19,126.49,126.49,0,0,1,14.86-2.51,139.1,139.1,0,0,1,15.12-.83,120.66,120.66,0,0,1,16.17.94,77.69,77.69,0,0,1,11.79,2.43,36.19,36.19,0,0,1,8,3.38,29.66,29.66,0,0,1,5.06,3.72A14,14,0,0,1,455.29,507,14.77,14.77,0,0,1,454.85,510.59Z"/><path d="M498.27,552.23l-1,1.81c-.54.92-1.22,2-2.05,3.16s-1.81,2.43-2.92,3.72a26.69,26.69,0,0,1-3.71,3.57,20.57,20.57,0,0,1-4.42,2.67,12.23,12.23,0,0,1-5,1.06,9.74,9.74,0,0,1-6.24-2,11.55,11.55,0,0,1-3.69-5,17,17,0,0,1-5.19,4.89,11.54,11.54,0,0,1-6,1.81,11.92,11.92,0,0,1-4.29-.73,9.16,9.16,0,0,1-5.35-5.16,10,10,0,0,1-.73-3.88,15.69,15.69,0,0,1,1.69-7.43,17.52,17.52,0,0,1,4.33-5.37,18.34,18.34,0,0,1,5.8-3.24,18.9,18.9,0,0,1,6.11-1.08,13.93,13.93,0,0,1,3.65.45,19.79,19.79,0,0,1,2.85,1,11.92,11.92,0,0,1,1.83,1c.43.31.66.48.7.52a2,2,0,0,1,.71,1.45,1.9,1.9,0,0,1-.71,1.44,2.44,2.44,0,0,1-1.66.62,2.58,2.58,0,0,1-1.73-.6l-.58-.4a7,7,0,0,0-1.21-.62,11,11,0,0,0-1.83-.57,10.89,10.89,0,0,0-2.4-.24,13.31,13.31,0,0,0-4.23.75,12.39,12.39,0,0,0-4.1,2.35,13.33,13.33,0,0,0-3.11,4,12.23,12.23,0,0,0-1.24,5.7,8.88,8.88,0,0,0,.25,2.08,5.17,5.17,0,0,0,.9,1.91,4.6,4.6,0,0,0,1.73,1.41,6,6,0,0,0,2.69.54,6.94,6.94,0,0,0,2.66-.65,9.56,9.56,0,0,0,2.88-2,14.34,14.34,0,0,0,2.5-3.4,15.26,15.26,0,0,0,1.57-4.86,1.91,1.91,0,0,1,.83-1.27,2.76,2.76,0,0,1,1.66-.52,2.28,2.28,0,0,1,1.57.6,2,2,0,0,1,.74,1.35c0,.68.13,1.65.26,2.89a14.92,14.92,0,0,0,.86,3.7,8.68,8.68,0,0,0,2,3.18,5,5,0,0,0,3.71,1.35,7.14,7.14,0,0,0,3.05-.7,14.72,14.72,0,0,0,2.94-1.86,22.83,22.83,0,0,0,2.76-2.65c.87-1,1.67-2,2.4-3s1.37-2,1.92-2.92,1-1.75,1.41-2.43a2.17,2.17,0,0,1,.93-.92,2.67,2.67,0,0,1,1.31-.32,2.37,2.37,0,0,1,1.76.67,2,2,0,0,1,.68,1.43A1.66,1.66,0,0,1,498.27,552.23Z"/><path d="M501,547.31q-.37.87-.93,2c-.36.72-.77,1.47-1.24,2.27A6.13,6.13,0,0,1,497.6,553a2.37,2.37,0,0,1-1.57.51,2.51,2.51,0,0,1-1.73-.57,1.7,1.7,0,0,1-.64-1.32,1.27,1.27,0,0,1,.07-.46,3.32,3.32,0,0,1,.32-.62,30.61,30.61,0,0,0,2.46-4.72,29.4,29.4,0,0,0,1.31-4.24,19.94,19.94,0,0,1-.64-2.11,8.74,8.74,0,0,1-.19-1.78,4.44,4.44,0,0,1,.9-2.89,3,3,0,0,1,2.5-1.11,2.85,2.85,0,0,1,2.34,1.08,4.13,4.13,0,0,1,.86,2.65,7.9,7.9,0,0,1-.19,1.73q-.19.85-.51,2.16a57.18,57.18,0,0,0,2.94,5.45q1.47,2.37,2.63,4.35a32.54,32.54,0,0,1,1.89,3.7,8.73,8.73,0,0,1,.73,3.45,9.1,9.1,0,0,1-1.08,4.32,8.83,8.83,0,0,1-3.59,3.46,3.39,3.39,0,0,0,.64,0h.64a15.89,15.89,0,0,0,6.72-1.4A21.74,21.74,0,0,0,520,561a30.88,30.88,0,0,0,4.38-5,48.44,48.44,0,0,0,3.33-5.43,2,2,0,0,1,1.8-1.24,2.2,2.2,0,0,1,1.69.64,2,2,0,0,1,.61,1.41,1.73,1.73,0,0,1-.19.81c-.47,1-1.08,2.08-1.82,3.32a37,37,0,0,1-2.69,3.83,35,35,0,0,1-3.62,3.87,26.94,26.94,0,0,1-4.58,3.37,25.29,25.29,0,0,1-5.54,2.38,23.36,23.36,0,0,1-6.6.89,24.28,24.28,0,0,1-8-1.27,12.78,12.78,0,0,1-6-4.19,1.64,1.64,0,0,1-.38-1,1.83,1.83,0,0,1,.74-1.43,2.51,2.51,0,0,1,1.69-.62,2.56,2.56,0,0,1,1.73.59,1.94,1.94,0,0,0,.45.35l.93.54a6.1,6.1,0,0,0,1.28.51,5.11,5.11,0,0,0,1.51.22,5.64,5.64,0,0,0,2.59-.54,5.23,5.23,0,0,0,1.7-1.32,5,5,0,0,0,.93-1.68,5.14,5.14,0,0,0,.29-1.54,7.39,7.39,0,0,0-.52-2.7,17.59,17.59,0,0,0-1.31-2.7c-.53-.9-1.11-1.82-1.73-2.78A29.1,29.1,0,0,1,501,547.31Z"/><path d="M537.6,524.9a4.36,4.36,0,0,1-1.7,3.48,6.64,6.64,0,0,1-8.26,0,4.39,4.39,0,0,1-1.7-3.48,4.24,4.24,0,0,1,.45-1.92,5,5,0,0,1,1.25-1.56,6.17,6.17,0,0,1,1.86-1.06,6.71,6.71,0,0,1,2.27-.37,6.81,6.81,0,0,1,2.28.37,6.12,6.12,0,0,1,1.85,1.06,4.9,4.9,0,0,1,1.25,1.56A4.24,4.24,0,0,1,537.6,524.9Zm-10.37,31.65a104.61,104.61,0,0,1,1.15-15.5,2.14,2.14,0,0,1,.8-1.32,2.62,2.62,0,0,1,1.76-.57,2.23,2.23,0,0,1,1.6.62,1.92,1.92,0,0,1,.64,1.43c0,.22,0,.87-.16,1.95s-.23,2.36-.38,3.86-.28,3.08-.39,4.75-.16,3.21-.16,4.62a13.1,13.1,0,0,0,.68,4.62,6.9,6.9,0,0,0,1.73,2.72,5.43,5.43,0,0,0,2.24,1.3,8.81,8.81,0,0,0,2.27.32,7.58,7.58,0,0,0,3.72-1.08,20,20,0,0,0,3.94-3,39.92,39.92,0,0,0,4.06-4.67,68.23,68.23,0,0,0,4-6.08,2.15,2.15,0,0,1,.9-.84,2.83,2.83,0,0,1,1.28-.29,2.32,2.32,0,0,1,1.69.64,2,2,0,0,1,.68,1.41,1.63,1.63,0,0,1-.26.92c-.51.83-1.15,1.83-1.92,3s-1.65,2.41-2.63,3.67-2.06,2.52-3.23,3.76a30.18,30.18,0,0,1-3.75,3.35,19.58,19.58,0,0,1-4.16,2.4,11.37,11.37,0,0,1-4.42.92,11.66,11.66,0,0,1-5.06-1,11.15,11.15,0,0,1-3.69-2.75A11.32,11.32,0,0,1,528,561.6,16.85,16.85,0,0,1,527.23,556.55ZM534,524.9a1.7,1.7,0,0,0-.68-1.32,2.35,2.35,0,0,0-1.57-.57,2.2,2.2,0,0,0-1.53.57,1.71,1.71,0,0,0-.64,1.32,1.63,1.63,0,0,0,.64,1.3,2.27,2.27,0,0,0,1.53.54,2.43,2.43,0,0,0,1.57-.54A1.62,1.62,0,0,0,534,524.9Z"/><path d="M604.22,552.23c-.17.29-.53.89-1.06,1.81s-1.22,2-2,3.16a46.74,46.74,0,0,1-2.91,3.72,26.22,26.22,0,0,1-3.72,3.57,20.57,20.57,0,0,1-4.42,2.67,12.18,12.18,0,0,1-5,1.06,9.79,9.79,0,0,1-6.25-2,11.53,11.53,0,0,1-3.68-5,17,17,0,0,1-5.19,4.89,11.59,11.59,0,0,1-6,1.81,11.92,11.92,0,0,1-4.29-.73,9.09,9.09,0,0,1-5.35-5.16,10,10,0,0,1-.74-3.88,15.69,15.69,0,0,1,1.7-7.43,17.34,17.34,0,0,1,4.32-5.37,18.45,18.45,0,0,1,5.8-3.24,18.91,18.91,0,0,1,6.12-1.08,14,14,0,0,1,3.65.45,19.79,19.79,0,0,1,2.85,1,11.28,11.28,0,0,1,1.82,1l.71.52a2,2,0,0,1,.7,1.45,1.88,1.88,0,0,1-.7,1.44,2.47,2.47,0,0,1-1.67.62,2.58,2.58,0,0,1-1.73-.6c-.08-.07-.28-.2-.57-.4a7.18,7.18,0,0,0-1.22-.62,10.46,10.46,0,0,0-1.83-.57,10.83,10.83,0,0,0-2.4-.24,13.41,13.41,0,0,0-4.23.75,12.49,12.49,0,0,0-4.1,2.35,13.31,13.31,0,0,0-3.1,4,12.23,12.23,0,0,0-1.25,5.7,8.4,8.4,0,0,0,.26,2.08,5.31,5.31,0,0,0,.89,1.91,4.67,4.67,0,0,0,1.73,1.41,6,6,0,0,0,2.69.54,6.9,6.9,0,0,0,2.66-.65,9.56,9.56,0,0,0,2.88-2,14.34,14.34,0,0,0,2.5-3.4,15,15,0,0,0,1.57-4.86,1.94,1.94,0,0,1,.83-1.27,2.79,2.79,0,0,1,1.67-.52,2.28,2.28,0,0,1,1.57.6,2,2,0,0,1,.73,1.35c.05.68.13,1.65.26,2.89a15.87,15.87,0,0,0,.86,3.7,8.81,8.81,0,0,0,2,3.18,5,5,0,0,0,3.72,1.35,7.1,7.1,0,0,0,3-.7,14.78,14.78,0,0,0,3-1.86A22,22,0,0,0,594,559a37.41,37.41,0,0,0,2.4-3c.73-1,1.37-2,1.92-2.92s1-1.75,1.41-2.43a2.29,2.29,0,0,1,.93-.92,2.71,2.71,0,0,1,1.32-.32,2.38,2.38,0,0,1,1.76.67,2,2,0,0,1,.67,1.43A1.64,1.64,0,0,1,604.22,552.23Z"/><path d="M398.61,620.58a109.48,109.48,0,0,1,16.07,1.22,99.67,99.67,0,0,1,15.95,3.7,82.85,82.85,0,0,1,14.61,6.23,54.41,54.41,0,0,1,12,8.78,39.41,39.41,0,0,1,8.1,11.34,32.49,32.49,0,0,1,3,14,31.75,31.75,0,0,1-3.21,14.2,33.69,33.69,0,0,1-9,11.29,43.06,43.06,0,0,1-13.78,7.45,54.76,54.76,0,0,1-17.61,2.7,80.86,80.86,0,0,1-19.15-2.32,84.7,84.7,0,0,1-9.58-2.94,62.54,62.54,0,0,1-9-4.19,37.86,37.86,0,0,1-11.69,6.57,41.71,41.71,0,0,1-14,2.34,35,35,0,0,1-7.43-.75,22.38,22.38,0,0,1-6-2.16,11.93,11.93,0,0,1-4-3.4,7.42,7.42,0,0,1-1.44-4.43,6.91,6.91,0,0,1,1.24-4,11.59,11.59,0,0,1,3.53-3.24,19.63,19.63,0,0,1,5.44-2.21,28.08,28.08,0,0,1,7-.81q11.14,0,26.39,6.91a26,26,0,0,0,4.61-6.69,46.47,46.47,0,0,0,3.11-8.56c.75-2.94,1.41-5.86,2-8.78s1.17-5.76,1.79-8.53a41,41,0,0,1,2.56-7.83,26.9,26.9,0,0,1,4.29-6.73,22.5,22.5,0,0,1,7-5.21,3,3,0,0,1,1.16-.27,3,3,0,0,1,1.69.54,1.7,1.7,0,0,1,.8,1.51,1.87,1.87,0,0,1-1.21,1.73,17,17,0,0,0-5.54,4.19,23.34,23.34,0,0,0-3.56,5.64,35.88,35.88,0,0,0-2.24,6.75q-.84,3.62-1.6,7.56-.64,3.24-1.41,6.78a67.61,67.61,0,0,1-1.92,7,44,44,0,0,1-2.92,6.81,29.8,29.8,0,0,1-4.32,6.13l.16.08.16.08a78.23,78.23,0,0,0,16.91,6.21,73.61,73.61,0,0,0,17.17,2.1A49,49,0,0,0,441,694.9a37.76,37.76,0,0,0,12.2-6.84,29.13,29.13,0,0,0,7.62-10,29.44,29.44,0,0,0,.07-24.17,36.22,36.22,0,0,0-7-10.18,49.05,49.05,0,0,0-10.57-8.16,72.92,72.92,0,0,0-13.19-6,93,93,0,0,0-14.86-3.67,97.5,97.5,0,0,0-15.6-1.27,114,114,0,0,0-19.18,1.49,60.78,60.78,0,0,0-14.93,4.34,26.87,26.87,0,0,0-9.7,7,14.34,14.34,0,0,0-3.46,9.45,12.66,12.66,0,0,0,1.06,5.34,14.28,14.28,0,0,0,2.69,4,18.65,18.65,0,0,0,3.55,2.89,28.39,28.39,0,0,0,3.59,1.91,21.6,21.6,0,0,0,2.85,1.06l1.38.38a2.21,2.21,0,0,1,1.31.72,1.94,1.94,0,0,1,.48,1.27,1.58,1.58,0,0,1-.77,1.41,3.08,3.08,0,0,1-1.66.48,13,13,0,0,1-3.21-.51,21.71,21.71,0,0,1-4.06-1.57,27.7,27.7,0,0,1-4.3-2.64A20.84,20.84,0,0,1,351.4,658a18.43,18.43,0,0,1-2.79-4.91,17,17,0,0,1-1.05-6.1,17.77,17.77,0,0,1,3.68-11,29.05,29.05,0,0,1,10.41-8.29,61.82,61.82,0,0,1,16.11-5.24A108.33,108.33,0,0,1,398.61,620.58Zm-16,69.4a82.93,82.93,0,0,0-12.36-4.48A40.9,40.9,0,0,0,359.79,684a22.63,22.63,0,0,0-5,.51,16.07,16.07,0,0,0-3.94,1.38,8.54,8.54,0,0,0-2.63,2,3.65,3.65,0,0,0-1,2.38,4.07,4.07,0,0,0,.86,2.38,7.47,7.47,0,0,0,2.63,2.1,18.21,18.21,0,0,0,4.39,1.52,28.51,28.51,0,0,0,6.15.59,36.38,36.38,0,0,0,11.5-1.81A33.57,33.57,0,0,0,382.59,690Z"/><path d="M524.73,685c-.17.29-.53.89-1.06,1.81s-1.22,2-2,3.16a46.74,46.74,0,0,1-2.91,3.72,26.22,26.22,0,0,1-3.72,3.57,20.57,20.57,0,0,1-4.42,2.67,12.17,12.17,0,0,1-5,1.05,9.78,9.78,0,0,1-6.25-2,11.53,11.53,0,0,1-3.68-5,17,17,0,0,1-5.19,4.89,11.59,11.59,0,0,1-6,1.81,11.92,11.92,0,0,1-4.29-.73,9.09,9.09,0,0,1-5.35-5.16,10,10,0,0,1-.74-3.88,15.69,15.69,0,0,1,1.7-7.43,17.34,17.34,0,0,1,4.32-5.37,18.45,18.45,0,0,1,5.8-3.24,18.93,18.93,0,0,1,6.12-1.09,14,14,0,0,1,3.65.46,19.79,19.79,0,0,1,2.85,1,11.28,11.28,0,0,1,1.82,1l.71.52a2,2,0,0,1,.7,1.45,1.85,1.85,0,0,1-.7,1.43,2.43,2.43,0,0,1-1.67.63,2.58,2.58,0,0,1-1.73-.6,6.73,6.73,0,0,0-.57-.4,7.18,7.18,0,0,0-1.22-.62A10.46,10.46,0,0,0,494,678a10.83,10.83,0,0,0-2.4-.24,13.41,13.41,0,0,0-4.23.75,12.49,12.49,0,0,0-4.1,2.35,13.31,13.31,0,0,0-3.1,4,12.23,12.23,0,0,0-1.25,5.7,8.27,8.27,0,0,0,.26,2.07,5.28,5.28,0,0,0,.89,1.92,4.67,4.67,0,0,0,1.73,1.41,6,6,0,0,0,2.69.54,6.9,6.9,0,0,0,2.66-.65,9.56,9.56,0,0,0,2.88-2,14.34,14.34,0,0,0,2.5-3.4,15,15,0,0,0,1.57-4.86,1.94,1.94,0,0,1,.83-1.27,2.79,2.79,0,0,1,1.67-.52,2.28,2.28,0,0,1,1.57.6,2,2,0,0,1,.73,1.35c0,.68.13,1.65.26,2.89a15.87,15.87,0,0,0,.86,3.7,8.81,8.81,0,0,0,2,3.18,5,5,0,0,0,3.72,1.35,7.1,7.1,0,0,0,3-.7,14.78,14.78,0,0,0,2.95-1.86,22.79,22.79,0,0,0,2.75-2.65,37.41,37.41,0,0,0,2.4-3c.73-1,1.37-2,1.92-2.92s1-1.75,1.41-2.43a2.29,2.29,0,0,1,.93-.92,2.71,2.71,0,0,1,1.32-.32,2.38,2.38,0,0,1,1.76.67,2,2,0,0,1,.67,1.43A1.64,1.64,0,0,1,524.73,685Z"/><path d="M543.49,705.32q12-13.23,16.72-22a2.14,2.14,0,0,1,.87-.89,2.54,2.54,0,0,1,1.25-.3,2.63,2.63,0,0,1,1.79.62,1.86,1.86,0,0,1,.7,1.43,1.64,1.64,0,0,1-.19.76,81.73,81.73,0,0,1-8,12q-5.19,6.64-13.14,15c0,2.26,0,4.53.07,6.8s.06,4.75.06,7.45-.07,5.38-.22,8a75.76,75.76,0,0,1-.8,7.57A45.23,45.23,0,0,1,541,748.5a20,20,0,0,1-2.56,5.29,11.67,11.67,0,0,1-3.78,3.51,10.3,10.3,0,0,1-5.22,1.27,8.15,8.15,0,0,1-6.6-2.75q-2.31-2.76-2.31-7.83a31.56,31.56,0,0,1,.61-5.86,49.48,49.48,0,0,1,1.76-6.51,65.64,65.64,0,0,1,2.79-6.78,72.72,72.72,0,0,1,3.62-6.67,63.68,63.68,0,0,1,4.32-6.21,46.87,46.87,0,0,1,5-5.4q.06-3.78.09-7.51c0-2.48.08-4.77.16-6.86a14,14,0,0,1-4.58,3.24,12.88,12.88,0,0,1-5.28,1.19,10.81,10.81,0,0,1-4.07-.73,8.79,8.79,0,0,1-3.11-2,9.39,9.39,0,0,1-2-3.11,10.42,10.42,0,0,1-.71-3.88,15.69,15.69,0,0,1,1.7-7.43,17.23,17.23,0,0,1,4.33-5.37,18.4,18.4,0,0,1,5.79-3.24,19,19,0,0,1,6.12-1.09,14.43,14.43,0,0,1,3.65.44,17.78,17.78,0,0,1,2.85,1,9.67,9.67,0,0,1,1.83,1l.7.54a1.93,1.93,0,0,1,.71,1.45,1.86,1.86,0,0,1-.71,1.43,2.4,2.4,0,0,1-1.66.63,2.91,2.91,0,0,1-1.73-.6c-.17-.11-.4-.26-.68-.46a7.26,7.26,0,0,0-1.09-.62,8.29,8.29,0,0,0-1.6-.54,10.11,10.11,0,0,0-2.21-.21,14.2,14.2,0,0,0-4.22.72,13.68,13.68,0,0,0-4.3,2.3,13.1,13.1,0,0,0-3.33,4,12.24,12.24,0,0,0-1.34,5.92,6.28,6.28,0,0,0,1.34,4.18,5.14,5.14,0,0,0,4.17,1.6,7.31,7.31,0,0,0,2.85-.65,9.92,9.92,0,0,0,2.91-2,12.8,12.8,0,0,0,2.47-3.4,16.33,16.33,0,0,0,1.5-4.86,2,2,0,0,1,.84-1.27,2.76,2.76,0,0,1,1.66-.52,2.23,2.23,0,0,1,1.7.65,2.1,2.1,0,0,1,.61,1.46s0,.59-.07,1.65-.08,2.47-.12,4.24-.1,3.81-.16,6.13S543.54,702.73,543.49,705.32Zm-4.86,11.83a53.16,53.16,0,0,0-5.45,7.64,64.79,64.79,0,0,0-4.16,8.34,54.41,54.41,0,0,0-2.66,8.19,31.43,31.43,0,0,0-.93,7.1,9.78,9.78,0,0,0,.42,3.18,5.2,5.2,0,0,0,1,1.84,3,3,0,0,0,1.35.86,4.71,4.71,0,0,0,1.38.22,4.94,4.94,0,0,0,3.45-1.35,10.87,10.87,0,0,0,2.5-3.59,26.06,26.06,0,0,0,1.67-5.16,56.86,56.86,0,0,0,1-6q.32-3.1.45-6.18c.08-2.06.12-4,.12-5.68V721.9C538.75,720.35,538.71,718.77,538.63,717.15Z"/><path d="M574.43,695.17c.68-1.19,1.48-2.5,2.37-3.92s1.86-2.86,2.88-4.32,2.11-2.91,3.24-4.35,2.32-2.81,3.55-4.1a12.47,12.47,0,0,1,3.75-2.73,8.8,8.8,0,0,1,3.56-.84,5.87,5.87,0,0,1,4.93,2.06,8,8,0,0,1,1.6,5.07,16.35,16.35,0,0,1-.1,1.7c-.06.67-.12,1.38-.19,2.14s-.13,1.52-.19,2.29-.1,1.51-.1,2.19a19.75,19.75,0,0,0,.16,2.48,6.52,6.52,0,0,0,.61,2.08,3.43,3.43,0,0,0,1.28,1.41,4.14,4.14,0,0,0,2.18.51,8.27,8.27,0,0,0,4.74-1.59,24.46,24.46,0,0,0,4.26-3.78,35.85,35.85,0,0,0,3.4-4.46c1-1.51,1.67-2.74,2.14-3.67a2.17,2.17,0,0,1,.93-.92,2.7,2.7,0,0,1,1.31-.32,2.35,2.35,0,0,1,1.76.67,2,2,0,0,1,.68,1.43,1.66,1.66,0,0,1-.2.76l-1,1.78a35.14,35.14,0,0,1-2,3.11q-1.25,1.75-2.91,3.72a26.1,26.1,0,0,1-3.69,3.59,20.79,20.79,0,0,1-4.35,2.7,11.55,11.55,0,0,1-4.9,1.08,10.06,10.06,0,0,1-4.68-.94,7.55,7.55,0,0,1-2.81-2.48,9,9,0,0,1-1.38-3.41,19.68,19.68,0,0,1-.35-3.75c0-.54,0-1.15.09-1.84s.15-1.4.26-2.16.19-1.51.25-2.27.1-1.47.1-2.16a3.27,3.27,0,0,0-.64-2.35,1.81,1.81,0,0,0-1.15-.62,4.07,4.07,0,0,0-2.34,1,20.46,20.46,0,0,0-2.76,2.62q-1.44,1.62-2.94,3.65t-2.82,4q-1.32,2-2.43,3.81t-1.77,3a8.17,8.17,0,0,1-2.56,3.05,5,5,0,0,1-2.62.78,4.45,4.45,0,0,1-3-.94,3.31,3.31,0,0,1-1.12-2.68c0-.25,0-.74.12-1.48s.2-1.62.32-2.65.26-2.13.39-3.32.26-2.37.38-3.54.24-2.26.32-3.27.13-1.85.13-2.53a24.2,24.2,0,0,0-.13-2.6c-.08-.82-.25-1.33-.51-1.51-.38.11-1.07.78-2.05,2a40.27,40.27,0,0,0-3.78,6.56,2.19,2.19,0,0,1-1,.92,3,3,0,0,1-1.34.32,2.38,2.38,0,0,1-1.73-.62,1.92,1.92,0,0,1-.64-1.43,2,2,0,0,1,.19-.81,37.34,37.34,0,0,1,5.41-8.51c1.69-1.82,3.36-2.73,5-2.73a4.57,4.57,0,0,1,4.13,2.27,7.81,7.81,0,0,1,.9,2.27,11.37,11.37,0,0,1,.29,2.54c0,.65-.06,1.66-.16,3s-.25,2.84-.42,4.41-.33,3.12-.48,4.67S574.56,694.12,574.43,695.17Z"/><path d="M648.09,694.09a16.61,16.61,0,0,1-2.81-.22,16.22,16.22,0,0,1-2.31,3,14.31,14.31,0,0,1-3.11,2.4,16.61,16.61,0,0,1-3.94,1.62,17.79,17.79,0,0,1-4.74.59,16.11,16.11,0,0,1-5.5-.89,13.61,13.61,0,0,1-4.36-2.48,10.92,10.92,0,0,1-2.88-3.84,11.62,11.62,0,0,1-1-4.94,11.81,11.81,0,0,1,1.48-6,16.9,16.9,0,0,1,3.39-4.27,14.61,14.61,0,0,1,3.84-2.53,8.17,8.17,0,0,1,2.89-.84,2.35,2.35,0,0,1,1.63.49,1.64,1.64,0,0,1,.54,1.29,1.56,1.56,0,0,1-.67,1.38,10.17,10.17,0,0,1-1.7.89,12.7,12.7,0,0,0-2.17,1.21,10.47,10.47,0,0,0-2.15,2,10,10,0,0,0-1.63,2.8,9.72,9.72,0,0,0-.64,3.62,8.47,8.47,0,0,0,.64,3.32,7.26,7.26,0,0,0,1.85,2.65A8.73,8.73,0,0,0,627.6,697a10.61,10.61,0,0,0,3.71.62,11.68,11.68,0,0,0,6.05-1.43,10.17,10.17,0,0,0,3.69-3.65,16.1,16.1,0,0,1-6.22-4.75,10.87,10.87,0,0,1-2.43-6.91,7.2,7.2,0,0,1,1.76-5,6,6,0,0,1,4.65-1.95,7.86,7.86,0,0,1,3.26.7,7.41,7.41,0,0,1,2.73,2.22,11.56,11.56,0,0,1,1.88,3.89,20,20,0,0,1,.71,5.67,13.91,13.91,0,0,1-.51,3.62,6.49,6.49,0,0,0,.77.05h.83a16.14,16.14,0,0,0,3.91-.43,11.05,11.05,0,0,0,3.13-1.3,10.16,10.16,0,0,0,2.53-2.21A21.79,21.79,0,0,0,660.2,683a2,2,0,0,1,.83-.62,3.17,3.17,0,0,1,1.28-.29,2.56,2.56,0,0,1,1.57.56,1.81,1.81,0,0,1,.74,1.49,2.12,2.12,0,0,1-.26.94c-.17.35-.34.66-.51.95a22.74,22.74,0,0,1-2.53,3.1,15.08,15.08,0,0,1-3.39,2.6,19,19,0,0,1-4.39,1.75A20.14,20.14,0,0,1,648.09,694.09Zm-11-13.61a8.13,8.13,0,0,0,.32,2.16,9.36,9.36,0,0,0,1,2.24,11.24,11.24,0,0,0,1.67,2.1,9.29,9.29,0,0,0,2.34,1.71,13.14,13.14,0,0,0,.19-2.22,17.89,17.89,0,0,0-.26-3,14.85,14.85,0,0,0-.73-2.78,6.37,6.37,0,0,0-1.19-2.05,2.14,2.14,0,0,0-1.66-.79,2,2,0,0,0-1,.49C637.35,678.69,637.14,679.4,637.14,680.48Z"/><path d="M696.45,685.07c-.46.82-1.05,1.81-1.76,2.94s-1.5,2.31-2.4,3.54a42.61,42.61,0,0,1-3,3.64,24.61,24.61,0,0,1-3.62,3.24,19.15,19.15,0,0,1-4.16,2.33,12.53,12.53,0,0,1-4.71.89,11,11,0,0,1-6.6-2,17.22,17.22,0,0,1-4.67-5.24,31.42,31.42,0,0,1-3.11-7.37,66.19,66.19,0,0,1-1.83-8.43q-.63-4.29-.86-8.34c-.15-2.7-.22-5.1-.22-7.18,0-3,.11-6.16.35-9.4s.61-6.41,1.12-9.51a79.07,79.07,0,0,1,1.95-8.8,38.78,38.78,0,0,1,2.82-7.29,16.66,16.66,0,0,1,3.75-5,7.15,7.15,0,0,1,4.8-1.84,8.46,8.46,0,0,1,3.81.84,6.89,6.89,0,0,1,2.85,2.73,15.79,15.79,0,0,1,1.8,4.91,37,37,0,0,1,.64,7.4A48.7,48.7,0,0,1,682,648.31a81.45,81.45,0,0,1-3.65,11.59A108.67,108.67,0,0,1,673,671.54q-3.15,5.81-6.73,11.31a32.14,32.14,0,0,0,4.29,10.78c1.8,2.61,4,3.91,6.47,3.91a8.29,8.29,0,0,0,4.93-1.7,24.26,24.26,0,0,0,4.36-4,40.15,40.15,0,0,0,3.49-4.73q1.5-2.4,2.34-3.86a2.15,2.15,0,0,1,.9-.84,2.83,2.83,0,0,1,1.28-.29,2.44,2.44,0,0,1,1.76.64,2,2,0,0,1,.67,1.46A2.05,2.05,0,0,1,696.45,685.07Zm-32.09-21.71q0,3.45.2,6.64c.12,2.12.29,4.16.51,6.1q2.68-4.38,5.12-9.31a104.81,104.81,0,0,0,4.29-10,77.73,77.73,0,0,0,3-10,43.4,43.4,0,0,0,1.12-9.53c0-4.25-.4-7.3-1.21-9.13s-1.9-2.76-3.27-2.76a3.44,3.44,0,0,0-2.59,1.57,16.74,16.74,0,0,0-2.34,4.27,46.56,46.56,0,0,0-2,6.37q-.9,3.68-1.5,7.89c-.41,2.8-.73,5.74-1,8.8S664.36,660.33,664.36,663.36Z"/><path d="M702.54,657.63a4.39,4.39,0,0,1-1.7,3.48,6.64,6.64,0,0,1-8.26,0,4.39,4.39,0,0,1-1.7-3.48,4.24,4.24,0,0,1,.45-1.92,5,5,0,0,1,1.25-1.56,6.05,6.05,0,0,1,1.86-1.06,7.15,7.15,0,0,1,4.54,0,6.05,6.05,0,0,1,1.86,1.06,4.9,4.9,0,0,1,1.25,1.56A4.24,4.24,0,0,1,702.54,657.63Zm-10.38,31.65a104.62,104.62,0,0,1,1.16-15.5,2.11,2.11,0,0,1,.8-1.32,2.62,2.62,0,0,1,1.76-.57,2.23,2.23,0,0,1,1.6.62,1.92,1.92,0,0,1,.64,1.43c0,.22,0,.87-.16,1.95s-.23,2.36-.38,3.86-.28,3.08-.39,4.75-.16,3.21-.16,4.62a13.3,13.3,0,0,0,.67,4.61,7.17,7.17,0,0,0,1.73,2.73,5.53,5.53,0,0,0,2.25,1.3,8.81,8.81,0,0,0,2.27.32,7.57,7.57,0,0,0,3.71-1.08,19.48,19.48,0,0,0,3.94-3,39.94,39.94,0,0,0,4.07-4.67,68.23,68.23,0,0,0,4-6.08,2.19,2.19,0,0,1,.89-.84,2.87,2.87,0,0,1,1.28-.29,2.35,2.35,0,0,1,1.7.64,1.94,1.94,0,0,1,.67,1.41,1.63,1.63,0,0,1-.25.92c-.51.82-1.16,1.83-1.92,3s-1.65,2.41-2.63,3.67-2.06,2.51-3.23,3.76a30.18,30.18,0,0,1-3.75,3.35,19.65,19.65,0,0,1-4.17,2.4,11.29,11.29,0,0,1-4.41.92,11.86,11.86,0,0,1-5.07-1,11.11,11.11,0,0,1-3.68-2.75,11.32,11.32,0,0,1-2.24-4.08A16.85,16.85,0,0,1,692.16,689.28ZM699,657.63a1.69,1.69,0,0,0-.67-1.32,2.35,2.35,0,0,0-1.57-.57,2.24,2.24,0,0,0-1.54.57,1.75,1.75,0,0,0-.64,1.32,1.68,1.68,0,0,0,.64,1.3,2.32,2.32,0,0,0,1.54.54,2.43,2.43,0,0,0,1.57-.54A1.62,1.62,0,0,0,699,657.63Z"/><path d="M732.45,698.46a2.62,2.62,0,0,1-1,2.08,4,4,0,0,1-4.93,0,2.62,2.62,0,0,1-1-2.08,2.55,2.55,0,0,1,1-2,4,4,0,0,1,4.93,0A2.55,2.55,0,0,1,732.45,698.46Z"/><path d="M768.07,684.31q3.13,12.48,9.09,12.48a7.79,7.79,0,0,0,4.42-1.43,20.88,20.88,0,0,0,3.94-3.52,30.56,30.56,0,0,0,3.24-4.4c.94-1.55,1.7-2.9,2.3-4.05a2.3,2.3,0,0,1,2.24-1.29,2.45,2.45,0,0,1,1.73.64,1.92,1.92,0,0,1,.71,1.41,1.49,1.49,0,0,1-.19.75q-.45.93-1.32,2.46a35.54,35.54,0,0,1-2.11,3.3c-.83,1.17-1.76,2.36-2.79,3.59a22.43,22.43,0,0,1-3.39,3.29A19.37,19.37,0,0,1,782,700a10.5,10.5,0,0,1-4.39.94,11.31,11.31,0,0,1-7.37-2.51q-3.07-2.5-5.31-8.29a26.58,26.58,0,0,1-6.22,8,10.69,10.69,0,0,1-6.79,2.49,13.14,13.14,0,0,1-3.71-.52,8,8,0,0,1-3.14-1.7,8.79,8.79,0,0,1-2.18-3.05,11.23,11.23,0,0,1-.83-4.56,15.28,15.28,0,0,1,1.54-6.86,18,18,0,0,1,4-5.38A18.53,18.53,0,0,1,753,675a15.28,15.28,0,0,1,5.93-1.24,2.55,2.55,0,0,1,1.66.57,1.75,1.75,0,0,1,.71,1.43,1.92,1.92,0,0,1-.58,1.35,2.46,2.46,0,0,1-1.54.7,17.34,17.34,0,0,0-4.1,1,13.41,13.41,0,0,0-4,2.35,12,12,0,0,0-3,3.91,12.58,12.58,0,0,0-1.19,5.67,6.18,6.18,0,0,0,1.32,4.21,4.76,4.76,0,0,0,3.81,1.52,6.05,6.05,0,0,0,2.18-.46,7.47,7.47,0,0,0,2.46-1.81,23.74,23.74,0,0,0,2.89-3.84,63.85,63.85,0,0,0,3.49-6.53q-1.1-4.75-2-11a97.27,97.27,0,0,1-.9-13.88q0-3.35.26-7t.83-7.13a51.57,51.57,0,0,1,1.54-6.61,26.17,26.17,0,0,1,2.34-5.51,12.16,12.16,0,0,1,3.23-3.76,7,7,0,0,1,4.23-1.37,6.38,6.38,0,0,1,3.59,1,7.34,7.34,0,0,1,2.4,2.7,14.21,14.21,0,0,1,1.38,4.16,29.43,29.43,0,0,1,.44,5.34,61.89,61.89,0,0,1-1.28,12.53,104.5,104.5,0,0,1-3.17,12q-1.89,5.73-4,10.59T768.07,684.31Zm7.49-43.53c0-.9,0-1.87-.1-2.92a15.87,15.87,0,0,0-.44-2.94,8.27,8.27,0,0,0-.93-2.29,1.75,1.75,0,0,0-1.54-.92c-1.07,0-2.06.79-3,2.37a25.76,25.76,0,0,0-2.4,6.24,66,66,0,0,0-1.63,8.75,78.86,78.86,0,0,0-.61,9.86c0,3.17.15,6.33.45,9.5s.64,6,1,8.48q1.86-4.15,3.52-8.56c1.11-2.93,2.09-5.93,2.92-9a87.22,87.22,0,0,0,2-9.26A58.73,58.73,0,0,0,775.56,640.78Z"/><path d="M807.27,693.38a7.66,7.66,0,0,0,3.58,3.27,12.76,12.76,0,0,0,5.64,1.22,30.27,30.27,0,0,0,3.14-.25,15.87,15.87,0,0,0,5-1.62,25.38,25.38,0,0,0,6.05-4.34,33.62,33.62,0,0,0,6.21-8.38,2.2,2.2,0,0,1,.9-.89,2.83,2.83,0,0,1,1.28-.29,2.43,2.43,0,0,1,1.76.64,2,2,0,0,1,.68,1.41,2.22,2.22,0,0,1-.26.86,41.5,41.5,0,0,1-5,7,32,32,0,0,1-5.95,5.29,26.77,26.77,0,0,1-6.7,3.35,22.29,22.29,0,0,1-7.14,1.16,18.91,18.91,0,0,1-5.41-.75,15.28,15.28,0,0,1-4.36-2,10.73,10.73,0,0,1-2.88-2.86,5.88,5.88,0,0,1-1.06-3.27,3.15,3.15,0,0,1,.07-.59,2.39,2.39,0,0,1,.35-.84,3.19,3.19,0,0,1,.83-.86,4.73,4.73,0,0,1,1.51-.68,31.08,31.08,0,0,0,4.83-1.59,18,18,0,0,0,3.81-2.14,9.74,9.74,0,0,0,2.5-2.61,5.74,5.74,0,0,0,.9-3.11,2.91,2.91,0,0,0-1.15-2.38,4.4,4.4,0,0,0-2.82-.91,6.6,6.6,0,0,0-3.4,1,15.49,15.49,0,0,0-3.23,2.65,27.18,27.18,0,0,0-3,3.78,45.51,45.51,0,0,0-2.59,4.46c-.79,1.55-1.49,3.08-2.09,4.61s-1.08,2.95-1.47,4.24l-.42,1.3a4.33,4.33,0,0,1-.67,1.32,3.82,3.82,0,0,1-1.09,1,3.21,3.21,0,0,1-3.52-.27,2.7,2.7,0,0,1-.9-2.3c0-.21,0-1,0-2.48s.05-3.32.09-5.64.1-5,.16-8,.12-6.19.16-9.56.11-6.83.19-10.39.15-7,.2-10.43.09-6.59.16-9.64.11-5.74.16-8.1.07-4.28.09-5.78,0-2.38,0-2.67a1.72,1.72,0,0,1,.77-1.43,2.76,2.76,0,0,1,1.67-.57,2.67,2.67,0,0,1,1.73.57,1.81,1.81,0,0,1,.7,1.48c0,.08,0,.79,0,2.14s0,3.16-.1,5.43-.09,4.91-.16,7.93-.12,6.24-.19,9.64-.13,6.91-.19,10.51-.13,7.11-.19,10.53-.12,6.68-.16,9.78-.09,5.83-.13,8.21a48.93,48.93,0,0,1,2.63-5.81,30.53,30.53,0,0,1,3.78-5.64,20.16,20.16,0,0,1,4.9-4.27,11.28,11.28,0,0,1,6.05-1.68,10.25,10.25,0,0,1,3.46.57,8.89,8.89,0,0,1,2.78,1.57,7.28,7.28,0,0,1,1.86,2.35,6.41,6.41,0,0,1,.67,2.91A8.13,8.13,0,0,1,821.1,685a13.61,13.61,0,0,1-3.39,3.62,23.75,23.75,0,0,1-4.84,2.78A37.82,37.82,0,0,1,807.27,693.38Z"/></svg>
