<svg xmlns="http://www.w3.org/2000/svg" viewBox="0 0 129.7 187.15"><defs><style>.cls-1,.cls-3{stroke:#060707;}.cls-1,.cls-2,.cls-3{stroke-miterlimit:10;}.cls-1{stroke-width:3px;}.cls-2{stroke:#0e0f0f;}.cls-2,.cls-3{stroke-width:2px;}.cls-4{fill:#b6d4d6;}.cls-5{fill:#caebf4;}.cls-6{fill:#ed96b8;}.cls-7{fill:#020202;}.cls-8{fill:#131516;}.cls-9{fill:#fcfcfc;}.cls-10{fill:#869ea3;}</style></defs><g id="Layer_2" data-name="Layer 2"><g id="Layer_1-2" data-name="Layer 1"><path class="cls-1" d="M80.34,158.36,81,186.14Z"/><path class="cls-1" d="M94.52,185.65h0Z"/><path class="cls-1" d="M57.25,158.36l-.67,27.78Z"/><path class="cls-1" d="M43.07,185.65h0Z"/><path class="cls-2" d="M116.18,103.39,100.6,86.18Z"/><path class="cls-2" d="M116.18,103.39l13.43,1.28Z"/><path class="cls-2" d="M116.18,103.39l8.59,9.49Z"/><path class="cls-2" d="M115.42,116.77l.76-13.38Z"/><path class="cls-3" d="M13.16,107.28,29.22,91.1Z"/><path class="cls-3" d="M13.16,107.28l-.54,13.23Z"/><path class="cls-3" d="M13.16,107.28,4.31,116.2Z"/><path class="cls-3" d="M0,107.24l13.16,0Z"/><polygon class="cls-4" points="65.42 0 24.68 48.89 65.42 48.89 65.42 0"/><polygon class="cls-4" points="65.42 0 106.16 48.89 65.42 48.89 65.42 0"/><rect class="cls-4" x="24.68" y="48.89" width="81.48" height="114.45"/><path class="cls-5" d="M63.13,13.7a106.09,106.09,0,0,1-6.89,8.5c-4,4.39-8.36,8.39-12.11,13l-.43.54,0,0c-.39.54-.8,1.08-1.18,1.63-.65.93-1.28,1.87-1.88,2.82A70.26,70.26,0,0,0,37,46.7a19.19,19.19,0,0,0-1.1,2.19h.08c.49-1.19.54-1.31.16-.36l-.14.36H65.42V10.45C64.67,11.54,63.91,12.63,63.13,13.7Z"/><path class="cls-5" d="M69.68,5.11a8.76,8.76,0,0,1-2,2.77c-.65.61-1.23,1.26-1.83,1.91h0l0,0-.42.62V48.89h40.74Z"/><path class="cls-5" d="M36,48.89l-.1.25c-.45,1.19-.85,2.4-1.22,3.63-.32,1.06-.61,2.14-.83,3.23,0,.09-.16.89-.26,1.45l0,.55a107.11,107.11,0,0,0,.21,16,160.84,160.84,0,0,1,.21,17.15c-.55,11.86-1.74,23.59-.63,35.46s.88,23.89,2,35.79c0,.31,0,.61,0,.91h70.83V48.89Z"/><rect class="cls-6" x="24.68" y="55.09" width="81.48" height="0.78"/><rect class="cls-6" x="24.68" y="89.63" width="81.48" height="0.78"/><rect class="cls-6" x="24.68" y="55.09" width="81.48" height="0.78"/><rect class="cls-6" x="24.68" y="89.63" width="81.48" height="0.78"/><path class="cls-6" d="M48.28,65.75H51.2l1.31,9.33h0l1.31-9.33h2.92v13H54.83V68.92h0l-1.49,9.87H51.59L50.1,68.92h0v9.87H48.28Z"/><path class="cls-6" d="M61.2,65.75h6.73v1.86H64.39v3.45H67.2v1.86H64.39v4h3.54v1.86H62.34V76.24h-2l-.65,2.55h-2Zm1.14,8.72v-6.2h0l-1.53,6.2Z"/><path class="cls-6" d="M69.1,65.75h2.05V76.93h3.37v1.86H69.1Z"/><path class="cls-6" d="M75.51,65.75h2v5.5l2.61-5.5h2l-2.44,4.79,2.48,8.25H80.1L78.37,73l-.82,1.66v4.15h-2Z"/><path class="cls-6" d="M48.28,65.75H51.2l1.31,9.33h0l1.31-9.33h2.92v13H54.83V68.92h0l-1.49,9.87H51.59L50.1,68.92h0v9.87H48.28Z"/><path class="cls-6" d="M61.2,65.75h6.73v1.86H64.39v3.45H67.2v1.86H64.39v4h3.54v1.86H62.34V76.24h-2l-.65,2.55h-2Zm1.14,8.72v-6.2h0l-1.53,6.2Z"/><path class="cls-6" d="M69.1,65.75h2.05V76.93h3.37v1.86H69.1Z"/><path class="cls-6" d="M75.51,65.75h2v5.5l2.61-5.5h2l-2.44,4.79,2.48,8.25H80.1L78.37,73l-.82,1.66v4.15h-2Z"/><circle class="cls-7" cx="52.62" cy="119.89" r="6.6"/><circle class="cls-8" cx="52.62" cy="137.74" r="6.6"/><circle class="cls-9" cx="54.75" cy="120.47" r="4.46"/><circle class="cls-9" cx="54.75" cy="137.54" r="4.46"/><path class="cls-10" d="M65.94,105.61c28.21,25.68-.68,47.8-.68,47.8Z"/><rect class="cls-9" x="64.9" y="131.86" width="6.81" height="6.07" transform="translate(-66.59 203.19) rotate(-90)"/><rect class="cls-9" x="65.01" y="125.62" width="4.77" height="4.25" transform="translate(-60.35 195.13) rotate(-90)"/><path class="cls-10" d="M65.94,105.61c28.21,25.68-.68,47.8-.68,47.8Z"/><rect class="cls-9" x="64.9" y="131.86" width="6.81" height="6.07" transform="translate(-66.59 203.19) rotate(-90)"/><rect class="cls-9" x="65.01" y="125.62" width="4.77" height="4.25" transform="translate(-60.35 195.13) rotate(-90)"/></g></g></svg>
