<svg id="Layer_1" data-name="Layer 1" xmlns="http://www.w3.org/2000/svg" viewBox="0 0 200 200"><defs><style>.cls-1{fill:#020202;}.cls-2{fill:#060707;}.cls-3{fill:#485b60;}.cls-4{fill:#728184;}.cls-5{fill:#030505;}.cls-6{fill:#ed96b8;}.cls-7{fill:#e56197;}.cls-8{fill:#fff;}.cls-9{fill:#040707;}</style></defs><path d="M55.74,109.83,68.39,97.09Z"/><rect class="cls-1" x="53.08" y="102.46" width="17.96" height="2" transform="translate(-55.1 74.67) rotate(-45.24)"/><path d="M55.74,109.83l-.43,10.43Z"/><rect class="cls-1" x="50.31" y="114.05" width="10.43" height="2" transform="translate(-61.71 165.8) rotate(-87.65)"/><path d="M55.74,109.83l-7,7Z"/><rect class="cls-1" x="47.3" y="112.35" width="9.9" height="2" transform="translate(-65.01 70.59) rotate(-45.22)"/><path d="M45.37,109.8l10.37,0Z"/><rect class="cls-1" x="49.55" y="104.63" width="2" height="10.37" transform="translate(-59.44 160) rotate(-89.81)"/><path d="M109.67,154.62l.66,27.38Z"/><rect class="cls-1" x="108.5" y="154.62" width="3" height="27.38" transform="translate(-4.05 2.71) rotate(-1.39)"/><rect class="cls-1" x="108.47" y="180.02" width="15.42" height="3"/><path d="M86.49,154.62,85.83,182Z"/><rect class="cls-1" x="72.47" y="166.81" width="27.38" height="3" transform="translate(-84.18 250.39) rotate(-88.62)"/><path d="M72.27,181.52h0Z"/><rect class="cls-1" x="72.27" y="180.02" width="15.42" height="3"/><path d="M138.71,108.8,126.65,95.48Z"/><rect class="cls-2" x="131.68" y="93.16" width="2" height="17.96" transform="translate(-34.23 115.48) rotate(-42.16)"/><path d="M138.71,108.8l10.38,1Z"/><rect class="cls-2" x="142.9" y="104.07" width="2" height="10.43" transform="translate(21.49 242.21) rotate(-84.57)"/><path d="M138.71,108.8l6.64,7.34Z"/><rect class="cls-2" x="141.03" y="107.51" width="2" height="9.9" transform="translate(-38.74 124.43) rotate(-42.16)"/><path d="M138.12,119.15l.59-10.35Z"/><rect class="cls-2" x="133.23" y="112.97" width="10.37" height="2" transform="translate(16.78 245.71) rotate(-86.75)"/><path class="cls-3" d="M115.83,58.36s20.49,44.27,19.78,66.85c0,0,.37,29.1-14.25,31.73,0,0-2.14,5.11-21.21,4,0,0-24.5.26-24.45-4,0,0-12.41-1.79-14.11-25.66,0,0,2.39-45.79,20.39-72.87l0-1.44,1-34.26s.67-4.21,8.89-4.21h17.16s7.28,1.06,6,7.84Z"/><path class="cls-4" d="M75.76,145.89c-6-7.43-11-16-13.16-25.35-.8,6.54-1,10.69-1,10.69,1.7,23.87,14.11,25.66,14.11,25.66,0,3,11.71,3.74,18.93,3.94A53.22,53.22,0,0,1,75.76,145.89Z"/><rect class="cls-5" x="82.07" y="58" width="33.85" height="0.71"/><ellipse class="cls-6" cx="98.64" cy="104.86" rx="25.48" ry="42.76"/><path class="cls-7" d="M103.25,133.14A71.67,71.67,0,0,1,90.17,122.4a62.47,62.47,0,0,1-16-29.51,70,70,0,0,0-1,12c0,23.62,11.41,42.76,25.48,42.76,6.08,0,11.66-3.58,16-9.54A37.65,37.65,0,0,1,103.25,133.14Z"/><path class="cls-6" d="M109.86,18H88.31A6.33,6.33,0,0,0,82,24.29V58.45h34.21V24.29A6.33,6.33,0,0,0,109.86,18Z"/><path d="M79.08,103.61h1.67L81.5,109h0l.75-5.35H84v7.48H82.84v-5.67h0L82,111.09H81l-.86-5.67h0v5.67h-1Z"/><path d="M85.74,103.61h1.59l1.22,7.48H87.37l-.21-1.49v0H85.82l-.21,1.47H84.52Zm1.28,5-.53-3.7h0l-.51,3.7Z"/><path d="M89.11,103.61h1.75a1.8,1.8,0,0,1,1.32.42,1.77,1.77,0,0,1,.42,1.3v.46a1.41,1.41,0,0,1-.77,1.47v0a.91.91,0,0,1,.6.53,2.56,2.56,0,0,1,.18,1.06v1.31c0,.21,0,.39,0,.52a1.15,1.15,0,0,0,.11.39h-1.2a2.9,2.9,0,0,1-.09-.34c0-.11,0-.3,0-.58V108.8a1.2,1.2,0,0,0-.16-.72.71.71,0,0,0-.57-.2h-.41v3.21H89.11Zm1.61,3.2a.72.72,0,0,0,.53-.18.89.89,0,0,0,.17-.61v-.58a1,1,0,0,0-.14-.58.57.57,0,0,0-.46-.19h-.53v2.14Z"/><path d="M93.42,103.61H95.1l.75,5.35h0l.75-5.35H98.3v7.48H97.18v-5.67h0l-.85,5.67h-1l-.85-5.67h0v5.67h-1Z"/><path d="M99.17,103.61h3.21v1.06h-2v2H102v1.07h-1.61V110h2v1.07H99.17Z"/><path d="M103.05,103.61h1.18V110h1.93v1.07h-3.11Z"/><path d="M107.68,103.61h1.6l1.21,7.48h-1.17l-.22-1.49v0h-1.33l-.22,1.47h-1.09Zm1.29,5-.53-3.7h0l-.51,3.7Z"/><path d="M111.06,103.61h1.8a1.68,1.68,0,0,1,1.31.47,1.94,1.94,0,0,1,.44,1.37v3.79a2,2,0,0,1-.44,1.38,1.72,1.72,0,0,1-1.31.47h-1.8Zm1.77,6.41a.58.58,0,0,0,.45-.17.85.85,0,0,0,.15-.56V105.4a.8.8,0,0,0-.15-.55.55.55,0,0,0-.45-.18h-.59V110Z"/><path d="M115.4,103.61h3.21v1.06h-2v2h1.61v1.07h-1.61V110h2v1.07H115.4Z"/><path class="cls-8" d="M100.61,80.89c-.1,0,7-2.89,7-2.89Z"/><path d="M100.4,81.17l-.05-.22c0-.13,0-.18.17-.3h0l.1,0,1-.42,2.42-1,3.52-1.44.2.5-7.07,2.91Z"/><path class="cls-8" d="M97.48,80.89c.1,0-7-2.89-7-2.89Z"/><path d="M97.69,81.17h-.27l-7.06-2.91.2-.5,3.51,1.44c.88.35,1.76.72,2.42,1l1,.42.1,0h0c.2.12.19.17.16.3Z"/><ellipse class="cls-8" cx="93.65" cy="87.13" rx="3.12" ry="5.52"/><ellipse class="cls-8" cx="104.34" cy="87.13" rx="3.12" ry="5.52"/><rect x="90.53" y="96.92" width="17.1" height="0.53"/><circle class="cls-9" cx="94.72" cy="87.76" r="2.05"/><circle class="cls-9" cx="104.7" cy="87.76" r="2.05"/></svg>
