<svg xmlns="http://www.w3.org/2000/svg" viewBox="0 0 117.36 124.23"><defs><style>.cls-1,.cls-3{stroke:#020202;}.cls-1,.cls-2,.cls-3{stroke-miterlimit:10;}.cls-1{stroke-width:3px;}.cls-2{stroke:#060707;}.cls-2,.cls-3{stroke-width:2px;}.cls-4{fill:#caebf4;}.cls-5{fill:#b6d4d6;}.cls-6{fill:#ed96b8;}.cls-7{fill:#0b0e0f;}.cls-8{fill:#f2f4f4;}.cls-9{fill:#869ea3;}.cls-10{fill:#fcfcfc;}</style></defs><g id="Layer_2" data-name="Layer 2"><g id="Layer_1-2" data-name="Layer 1"><path class="cls-1" d="M70.52,93.23l.72,30Z"/><path class="cls-1" d="M85.85,122.73h0Z"/><path class="cls-1" d="M45.56,93.23l-.71,30Z"/><path class="cls-1" d="M30.24,122.73h0Z"/><path class="cls-2" d="M102.52,65.71,85.4,46.8Z"/><path class="cls-2" d="M102.52,65.71l14.75,1.4Z"/><path class="cls-2" d="M102.52,65.71,112,76.13Z"/><path class="cls-2" d="M101.69,80.41l.83-14.7Z"/><path class="cls-3" d="M16,71.77,35.61,52.05Z"/><path class="cls-3" d="M16,71.77l-.67,16.12Z"/><path class="cls-3" d="M16,71.77,5.25,82.64Z"/><path class="cls-3" d="M0,71.72l16,0Z"/><path class="cls-4" d="M27.35,14.23,19.68,3.32,27.35,2s17,12.19,28,9.19c0,0,29-.46,36-11.23V10l-4,5.27s5,25.58,4,33.29c0,0,.71,24.65-.65,33.18L87.35,91,90,97.06,85.62,102,82.3,99.88S57,103.71,56.18,101.47c0,0-23.54-.74-24.69-5.49l-8.33,6-3.48-8,3.48-2s-1.69-36.32,0-37.28C23.16,54.69,24.85,13.73,27.35,14.23Z"/><path class="cls-5" d="M29.45,61.62a230.49,230.49,0,0,1,5-51.93A6.72,6.72,0,0,1,35.67,7a70.63,70.63,0,0,1-8.32-5L19.68,3.32l7.67,10.91c-2.5-.5-4.19,40.46-4.19,40.46-1.69,1,0,37.28,0,37.28l-3.48,2,3.48,8,8.33-6c.41,1.68,3.62,2.86,7.6,3.68C31.72,88.79,29.61,74.36,29.45,61.62Z"/><path class="cls-6" d="M60.63,35.09a163.78,163.78,0,0,1-36.41-4.37l.25-1c.38.1,38,9.72,65.21,0l.33.94C80.78,34,70.38,35.09,60.63,35.09Z"/><path class="cls-6" d="M61.29,53.09a178.72,178.72,0,0,1-38.07-4.37l.25-1c.39.1,39.71,9.72,68.21,0l.33,1C82.36,52,71.49,53.09,61.29,53.09Z"/><path class="cls-6" d="M52.34,39.21h1.88l.84,6h0l.84-6h1.88v8.4H56.56V41.25h0l-1,6.36H54.47l-1-6.36h0v6.36H52.34Z"/><path class="cls-6" d="M58.79,39.21h3.6v1.2H60.11v2.22h1.82v1.2H60.11v2.58h2.28v1.2h-3.6Z"/><path class="cls-6" d="M63.15,39.21h1.32v7.2h2.17v1.2H63.15Z"/><ellipse class="cls-7" cx="77.35" cy="65.98" rx="4.5" ry="7.75"/><ellipse class="cls-8" cx="77.1" cy="69.23" rx="2.25" ry="4.5"/><ellipse class="cls-7" cx="66.35" cy="65.98" rx="4.5" ry="7.75"/><ellipse class="cls-8" cx="66.1" cy="69.23" rx="2.25" ry="4.5"/><circle cx="66.35" cy="69.73" r="1.5"/><circle cx="76.82" cy="69.28" r="1.5"/><path class="cls-9" d="M81.81,78.6C71,93.74,61.65,78.23,61.65,78.23Z"/><rect class="cls-10" x="68.02" y="78.23" width="2.87" height="3.26"/><rect class="cls-10" x="71.47" y="78.23" width="2.01" height="2.28"/></g></g></svg>
