<svg id="Layer_1" data-name="Layer 1" xmlns="http://www.w3.org/2000/svg" viewBox="0 0 1920 1080"><defs><style>.cls-1{fill:#d9bfdc;}.cls-2{fill:#f0ccbf;}.cls-3{fill:#ed96b8;}.cls-4{fill:#110b0e;stroke:#020202;}.cls-10,.cls-11,.cls-12,.cls-23,.cls-4,.cls-5{stroke-miterlimit:10;}.cls-5{fill:#ea6eaa;}.cls-23,.cls-5{stroke:#ea6eaa;}.cls-6{fill:#f1c27d;}.cls-7{fill:#caebf4;}.cls-8{fill:#e870a1;}.cls-9{fill:#eab56e;}.cls-10{fill:#0f0309;}.cls-10,.cls-11,.cls-12{stroke:#110c0f;}.cls-11{fill:#fff;}.cls-12{fill:#0c0308;}.cls-13{fill:#ed9696;}.cls-14{fill:#e8dd58;}.cls-15{fill:#eaa347;}.cls-16{fill:#e83d3d;}.cls-17{fill:#ad2d2d;}.cls-18{opacity:0.67;}.cls-19{fill:#070405;}.cls-20{fill:#f9f9f9;}.cls-21{fill:#cbe4bd;}.cls-22{fill:#a7cac4;}.cls-23{fill:#e55aa3;}.cls-24{fill:#ff0;opacity:0.4;}.cls-25{fill:#030502;}.cls-26{fill:#bcdda6;}.cls-27{fill:#ddca9f;}.cls-28{fill:#ff1200;opacity:0.47;}.cls-29{fill:#ce7d46;}.cls-30{fill:#0f080b;}.cls-31{fill:#ead539;}</style></defs><rect class="cls-1" width="1920" height="1078"/><rect class="cls-2" x="1834" y="581" width="85" height="85"/><rect class="cls-2" x="1834" y="488" width="85" height="85"/><rect class="cls-2" x="1834" y="395" width="85" height="85"/><rect class="cls-2" x="1738" y="581" width="85" height="85"/><rect class="cls-2" x="1738" y="488" width="85" height="85"/><rect class="cls-2" x="1640" y="581" width="85" height="85"/><rect class="cls-2" x="1640" y="488" width="85" height="85"/><rect class="cls-2" x="1544" y="581" width="85" height="85"/><rect class="cls-2" x="1544" y="488" width="85" height="85"/><rect class="cls-2" x="673" y="586" width="85" height="85"/><rect class="cls-2" x="673" y="493" width="85" height="85"/><rect class="cls-2" x="673" y="400" width="85" height="85"/><rect class="cls-2" x="577" y="586" width="85" height="85"/><rect class="cls-2" x="577" y="493" width="85" height="85"/><rect class="cls-2" x="577" y="400" width="85" height="85"/><rect class="cls-2" x="865" y="583" width="85" height="85"/><rect class="cls-2" x="865" y="490" width="85" height="85"/><rect class="cls-2" x="865" y="397" width="85" height="85"/><rect class="cls-2" x="769" y="583" width="85" height="85"/><rect class="cls-2" x="769" y="490" width="85" height="85"/><rect class="cls-2" x="769" y="397" width="85" height="85"/><rect class="cls-2" x="1056" y="582" width="85" height="85"/><rect class="cls-2" x="1056" y="489" width="85" height="85"/><rect class="cls-2" x="1056" y="396" width="85" height="85"/><rect class="cls-2" x="960" y="582" width="85" height="85"/><rect class="cls-2" x="960" y="489" width="85" height="85"/><rect class="cls-2" x="960" y="396" width="85" height="85"/><rect class="cls-2" x="1252" y="583" width="85" height="85"/><rect class="cls-2" x="1251" y="490" width="85" height="85"/><rect class="cls-2" x="1252" y="397" width="85" height="85"/><rect class="cls-2" x="1156" y="583" width="85" height="85"/><rect class="cls-2" x="1155" y="490" width="85" height="85"/><rect class="cls-2" x="1154" y="397" width="85" height="85"/><rect class="cls-2" x="1445" y="581" width="85" height="85"/><rect class="cls-2" x="1445" y="488" width="85" height="85"/><rect class="cls-2" x="1349" y="581" width="85" height="85"/><rect class="cls-2" x="1349" y="488" width="85" height="85"/><rect class="cls-2" x="1349" y="395" width="85" height="85"/><rect class="cls-2" x="1448" y="394" width="85" height="85"/><rect class="cls-2" x="1546" y="394" width="85" height="85"/><rect class="cls-2" x="1641" y="394" width="85" height="85"/><rect class="cls-2" x="1738" y="394" width="85" height="85"/><rect class="cls-2" x="479" y="585" width="85" height="85"/><rect class="cls-2" x="479" y="492" width="85" height="85"/><rect class="cls-2" x="479" y="399" width="85" height="85"/><rect class="cls-2" x="383" y="585" width="85" height="85"/><rect class="cls-2" x="383" y="492" width="85" height="85"/><rect class="cls-2" x="383" y="399" width="85" height="85"/><rect class="cls-2" x="287" y="586" width="85" height="85"/><rect class="cls-2" x="287" y="493" width="85" height="85"/><rect class="cls-2" x="287" y="400" width="85" height="85"/><rect class="cls-2" x="191" y="586" width="85" height="85"/><rect class="cls-2" x="191" y="493" width="85" height="85"/><rect class="cls-2" x="191" y="400" width="85" height="85"/><rect class="cls-2" x="96" y="589" width="85" height="85"/><rect class="cls-2" x="96" y="496" width="85" height="85"/><rect class="cls-2" x="96" y="403" width="85" height="85"/><rect class="cls-3" y="679" width="1920" height="399"/><ellipse class="cls-4" cx="149" cy="762.21" rx="14.5" ry="11.83"/><rect class="cls-5" x="39" y="731.18" width="223" height="81.59"/><rect class="cls-5" x="39" y="930.18" width="221" height="81.59"/><polygon class="cls-5" points="270.57 720 270.57 1010.49 648.95 1010.49 648.95 720 277.32 720 270.57 720"/><ellipse class="cls-4" cx="612" cy="761.21" rx="14.5" ry="11.83"/><rect class="cls-6" x="409.98" y="687.81" width="56.37" height="149.67" rx="28" transform="translate(-324.48 1200.81) rotate(-90)"/><rect class="cls-6" x="76.67" y="724.95" width="56.37" height="105.41" rx="28" transform="translate(772.8 1189.45) rotate(129.33)"/><rect class="cls-6" x="176" y="890" width="48" height="188"/><rect class="cls-6" x="253" y="892" width="48" height="188"/><rect class="cls-5" x="697.5" y="717" width="323.99" height="81.59"/><rect class="cls-5" x="1474.5" y="717" width="399.5" height="81.59"/><rect class="cls-5" x="1474.5" y="818.18" width="399.5" height="81.59"/><rect class="cls-5" x="39" y="833.18" width="222" height="81.59"/><rect class="cls-5" x="697.5" y="818.18" width="323.99" height="81.59"/><rect class="cls-5" x="697.5" y="925.9" width="323.99" height="81.59"/><rect class="cls-5" x="1474.5" y="925.9" width="399.5" height="81.59"/><ellipse class="cls-4" cx="863" cy="758.21" rx="14.5" ry="11.83"/><ellipse class="cls-4" cx="149" cy="872.21" rx="14.5" ry="11.83"/><ellipse class="cls-4" cx="149" cy="972.21" rx="14.5" ry="11.83"/><polygon class="cls-5" points="1060.57 717 1060.57 1007.49 1438.95 1007.49 1438.95 717 1067.32 717 1060.57 717"/><ellipse class="cls-4" cx="1402" cy="758.21" rx="14.5" ry="11.83"/><ellipse class="cls-4" cx="1677" cy="758.21" rx="14.5" ry="11.83"/><ellipse class="cls-4" cx="1677" cy="861.84" rx="14.5" ry="11.83"/><ellipse class="cls-4" cx="1676" cy="970.37" rx="14.5" ry="11.83"/><ellipse class="cls-4" cx="863" cy="861.84" rx="14.5" ry="11.83"/><ellipse class="cls-4" cx="860" cy="970.37" rx="14.5" ry="11.83"/><polygon class="cls-7" points="1193.78 515.5 1251.5 420.5 1270.5 432.5 1218.11 515.5 1193.78 515.5"/><path class="cls-3" d="M968.84,515.5a120.36,120.36,0,0,0-.84,14.14c0,77,73.76,139.37,164.75,139.37s164.75-62.4,164.75-139.37a120.36,120.36,0,0,0-.84-14.14Z"/><path class="cls-8" d="M1170.2,635.43c-35-7.55-70.39-15.95-102.44-32.44-33.87-17.42-59.76-44.45-74.45-79.66a8.9,8.9,0,0,1,.78-7.83H968.84a120.23,120.23,0,0,0-.84,14.14c0,77,73.76,139.37,164.75,139.37,32.77,0,63.31-8.09,89-22C1204.66,642.66,1187.4,639.14,1170.2,635.43Z"/><rect class="cls-9" x="203.11" y="549.72" width="85.44" height="131.28" rx="35.21"/><ellipse class="cls-6" cx="271.22" cy="516.02" rx="126.5" ry="117.4"/><ellipse class="cls-10" cx="223.24" cy="520.61" rx="25.93" ry="23.3"/><ellipse class="cls-11" cx="231.41" cy="508.39" rx="4.32" ry="3.88"/><ellipse class="cls-11" cx="239.73" cy="518.17" rx="6.56" ry="5.9"/><path class="cls-12" d="M203.64,510.68s-.62,3.84-8-3.9,0-9.38,0-9.38,1.67-.94,4.11,2.21a61.35,61.35,0,0,0,7.22,7.17Z"/><path class="cls-12" d="M211.05,503.52s-.61,3.83-8-3.91,0-9.38,0-9.38,1.68-.94,4.12,2.21a59.72,59.72,0,0,0,7.22,7.17Z"/><ellipse class="cls-10" cx="319.42" cy="521.76" rx="25.93" ry="23.3"/><ellipse class="cls-11" cx="328.24" cy="508.39" rx="4.32" ry="3.88"/><ellipse class="cls-11" cx="334.75" cy="518.17" rx="6.56" ry="5.9"/><path class="cls-12" d="M339,511.83s.62,3.84,8-3.9,0-9.38,0-9.38-1.67-.95-4.11,2.21a61.35,61.35,0,0,1-7.22,7.17Z"/><path class="cls-12" d="M331.61,504.66s.61,3.84,8-3.9,0-9.38,0-9.38-1.67-.94-4.11,2.21a61.35,61.35,0,0,1-7.22,7.17Z"/><ellipse class="cls-13" cx="349.78" cy="564.26" rx="17.56" ry="16.3"/><ellipse class="cls-13" cx="188.4" cy="564.26" rx="17.56" ry="16.3"/><path class="cls-14" d="M430,481.85v-.26C430,405.6,358.7,344,270.75,344S111.5,405.6,111.5,481.59v.26Z"/><path class="cls-14" d="M149.49,481.9V612.26c0,4.37,4.93,8,10.95,8h10c6,0,10.94-3.58,10.94-8V481.9Z"/><path class="cls-14" d="M133.08,481.9V587.11c0,4.37,4.92,7.94,10.94,7.94h10c6,0,10.95-3.57,10.95-7.94V481.9Z"/><path class="cls-14" d="M112.1,481.9V556c0,4.37,4.92,7.94,10.94,7.94h10c6,0,10.94-3.57,10.94-7.94V481.9Z"/><path class="cls-14" d="M392.61,481.9V612.26c0,4.37-4.93,8-10.95,8h-10c-6,0-10.95-3.58-10.95-8V481.9Z"/><path class="cls-14" d="M409,481.9V587.11c0,4.37-4.92,7.94-10.94,7.94H388c-6,0-10.94-3.57-10.94-7.94V481.9Z"/><path class="cls-14" d="M430,481.9V556c0,4.37-4.93,7.94-10.94,7.94H409c-6,0-10.94-3.57-10.94-7.94V481.9Z"/><path class="cls-14" d="M430,481.85v-.26C430,405.6,358.7,344,270.75,344S111.5,405.6,111.5,481.59v.26Z"/><path class="cls-14" d="M149.49,481.9V612.26c0,4.37,4.93,8,10.95,8h10c6,0,10.94-3.58,10.94-8V481.9Z"/><path class="cls-14" d="M133.08,481.9V587.11c0,4.37,4.92,7.94,10.94,7.94h10c6,0,10.95-3.57,10.95-7.94V481.9Z"/><path class="cls-14" d="M112.1,481.9V556c0,4.37,4.92,7.94,10.94,7.94h10c6,0,10.94-3.57,10.94-7.94V481.9Z"/><path class="cls-14" d="M392.61,481.9V612.26c0,4.37-4.93,8-10.95,8h-10c-6,0-10.95-3.58-10.95-8V481.9Z"/><path class="cls-14" d="M409,481.9V587.11c0,4.37-4.92,7.94-10.94,7.94H388c-6,0-10.94-3.57-10.94-7.94V481.9Z"/><path class="cls-14" d="M430,481.9V556c0,4.37-4.93,7.94-10.94,7.94H409c-6,0-10.94-3.57-10.94-7.94V481.9Z"/><ellipse class="cls-15" cx="260.54" cy="558.98" rx="3.32" ry="3.08"/><ellipse class="cls-15" cx="280.48" cy="558.98" rx="3.32" ry="3.08"/><path class="cls-16" d="M280.44,587.61h-1.32a13.49,13.49,0,0,0-8.79,3.18,13.49,13.49,0,0,0-8.79-3.18c-7.06,0-12.79,5.21-12.86,11.65.12,9.15,10.06,16.54,22.3,16.54s22.19-7.39,22.31-16.54h0C293.23,592.82,287.5,587.61,280.44,587.61Z"/><ellipse class="cls-17" cx="270.99" cy="601.89" rx="5.46" ry="4.51"/><g class="cls-18"><path class="cls-19" d="M899.73,653.27c-1.51.92-37.19,22.31-65.1,13.77-10.92-3.34-19.14-10.85-24.42-22.32l-.22-.49,1.25-14.11.35-.46c6.92-9,15.93-14.19,26.79-15.52,29.09-3.54,61.34,21.78,62.7,22.86l-2.49,3.14c-.32-.26-32.32-25.37-59.74-22a34.8,34.8,0,0,0-23.73,13.53l-1,11.87c4.78,10.12,12.09,16.75,21.72,19.69,26.19,8,61.5-13.14,61.86-13.35Z"/></g><g class="cls-18"><path class="cls-19" d="M899.78,651.76c-1.23.67-30.46,16.4-53.15,9.43a31.59,31.59,0,0,1-19.31-16.46l-.27-.51,1-10.68.41-.48c10.09-11.92,25.91-14.62,45.76-7.82a113.14,113.14,0,0,1,26.67,13.67l-2.35,3.24c-.45-.32-44.68-31.85-66.62-7l-.73,8.24a27.63,27.63,0,0,0,16.66,14c21.06,6.48,49.78-9,50.07-9.11Z"/></g><g class="cls-18"><path class="cls-19" d="M904.74,650.61c-1.89.81-46.54,19.6-63.23-6.14l-.37-.58.72-8.1.54-.52c20.69-19.87,61.44,4.08,63.17,5.11l-2.05,3.44c-.39-.24-39.1-23-57.81-6.17l-.46,5.21c15.19,22,57.48,4.25,57.91,4.07Z"/></g><g class="cls-18"><path class="cls-19" d="M904.49,649c-1.33.26-32.71,6.24-45.49-4.31l-.81-.67.42-4.74,1-.5c14.29-7.14,44.13,3.34,45.39,3.79l-1.14,3.21Zm-42.12-6.77c9.8,7,31.32,4.42,38.76,3.28-7.18-2.26-27.86-8.06-38.74-3.6Z"/></g><path class="cls-7" d="M897.53,653.27l76.85,20.66s53.41-10.17,5.84-37.93l-81.2.49Z"/><path class="cls-20" d="M988.26,648.13c-7.44-9.18-62.52-6-83.12-4l-.28-3c7.74-.75,75.93-7,85.73,5.12Z"/><rect class="cls-21" x="470" y="78" width="721" height="399" rx="12"/><rect class="cls-22" x="671" y="360" width="227" height="82" rx="12"/><path d="M734.25,419.3q-2.46-2.73-2.46-7.83v-2.4H738V412q0,4.08,3.42,4.08a3.21,3.21,0,0,0,2.55-1,4.81,4.81,0,0,0,.87-3.21,8.9,8.9,0,0,0-1.2-4.65,22.18,22.18,0,0,0-4.44-4.83,26.58,26.58,0,0,1-5.7-6.51,13.28,13.28,0,0,1-1.62-6.57q0-5,2.52-7.71t7.32-2.73q4.74,0,7.17,2.73t2.43,7.83v1.74h-6.24V389a4.82,4.82,0,0,0-.84-3.15,3,3,0,0,0-2.46-1q-3.3,0-3.3,4a7.93,7.93,0,0,0,1.23,4.26,23.51,23.51,0,0,0,4.47,4.8,24.7,24.7,0,0,1,5.7,6.54,14.52,14.52,0,0,1,1.56,6.9q0,5.16-2.55,7.92T741.51,422Q736.71,422,734.25,419.3Z"/><path d="M760.41,385.43h-6.9v-6h20.4v6H767v36h-6.6Z"/><path d="M779.43,379.43h8.94l6.84,42h-6.6l-1.2-8.34v.12h-7.5l-1.2,8.22h-6.12Zm7.2,28.08-2.94-20.76h-.12l-2.88,20.76Z"/><path d="M798.39,379.43h9.78q5.1,0,7.44,2.37t2.34,7.29v2.58q0,6.54-4.32,8.28v.12A5.15,5.15,0,0,1,817,403a14.8,14.8,0,0,1,1,5.94v7.38a28.22,28.22,0,0,0,.12,2.91,7.3,7.3,0,0,0,.6,2.19H812a9.62,9.62,0,0,1-.48-1.92,28.88,28.88,0,0,1-.12-3.24v-7.68a6.52,6.52,0,0,0-.93-4,3.93,3.93,0,0,0-3.21-1.14H805v18h-6.6Zm9,18a4,4,0,0,0,3-1,4.82,4.82,0,0,0,1-3.42v-3.24a5.33,5.33,0,0,0-.81-3.3,3.06,3.06,0,0,0-2.55-1h-3v12Z"/><path d="M827.61,385.43h-6.9v-6h20.4v6h-6.9v36h-6.6Z"/><rect class="cls-2" y="589" width="85" height="85"/><rect class="cls-2" y="496" width="85" height="85"/><rect class="cls-2" y="403" width="85" height="85"/><rect class="cls-3" x="1535" width="14" height="214"/><polygon class="cls-5" points="1660.1 251 1424.12 251 1439 142 1642 142 1660.1 251"/><polygon class="cls-23" points="1498 142 1434.05 142 1424.12 251 1498 251 1498 142"/><polygon class="cls-24" points="1688 531 1401 531 1423.28 251 1660.91 251 1688 531"/><path class="cls-8" d="M42,87.22c7.49,0,11.24,0,18.73-.18,6.4-.12,11.06,1.55,14,5.08s4.41,9,4.41,16.58v3.85a32,32,0,0,1-2,12.19,13.35,13.35,0,0,1-6,6.94V132c6.17,2.39,9.26,9,9.26,19.8V160q0,11.16-4.8,17.18c-3.2,4-7.88,6.1-14,6.23-7.81.15-11.71.19-19.52.19Zm17.27,39.1a6.83,6.83,0,0,0,5.58-2.46q1.86-2.39,1.86-7.89V110.6q0-5.23-1.52-7.54a5.21,5.21,0,0,0-4.8-2.24l-6,.09v25.48Zm2.25,43.33a5.74,5.74,0,0,0,4.85-2.24C67.43,166,68,163.49,68,160v-8.4q0-6.6-1.86-9.11t-6.15-2.41l-5.53.08v29.61C57.26,169.73,58.68,169.71,61.52,169.65Z"/><path class="cls-8" d="M97.18,85.72c6.73-.36,10.09-.56,16.81-1l12.87,95.49c-5,.37-7.45.55-12.41.88-.91-7.59-1.36-11.39-2.26-19v.28c-5.64.36-8.47.53-14.11.83l-2.25,19c-4.61.24-6.91.34-11.51.53Q90.76,134.22,97.18,85.72Zm13.54,63.66q-2.76-23.65-5.53-47.31H105q-2.72,24-5.42,48C104,149.8,106.25,149.66,110.72,149.38Z"/><path class="cls-8" d="M136.45,174.54q-4.74-5.86-4.74-17.58V106.28q0-11.7,4.74-18.36c3.16-4.44,7.75-6.92,13.77-7.48s10.6,1.08,13.76,4.93,4.74,9.68,4.74,17.49v8.26c-4.69.49-7,.72-11.73,1.18v-9.23q0-9.5-6.44-8.89c-4.28.4-6.43,3.75-6.43,10.09V157q0,9.38,6.43,8.78t6.44-10V137l-6.21.59V123.77c7.18-.67,10.76-1,17.94-1.77v31.53q0,11.72-4.74,18.46c-3.16,4.5-7.75,7-13.76,7.61S139.61,178.46,136.45,174.54Z"/><path class="cls-8" d="M194.79,77.09c7.08-.84,10.63-1.27,17.71-2.17q3.94,34,7.9,68l.23,0q3.94-35,7.9-70c7.08-.94,10.63-1.42,17.71-2.4v96.4c-4.69.65-7,1-11.73,1.6v-73l-.23,0-9,74.19L214.87,171l-9-71.86-.22,0v73c-4.33.54-6.5.8-10.83,1.31Z"/><path class="cls-8" d="M255.49,69.14q16.93-2.42,33.86-4.91V78c-8.58,1.27-12.87,1.9-21.44,3.14v25.48c6.81-1,10.22-1.48,17-2.49V117.9c-6.82,1-10.23,1.51-17,2.49V150c8.57-1.24,12.86-1.87,21.44-3.14v13.77q-16.92,2.49-33.86,4.91Z"/><path class="cls-8" d="M296.46,63.17l19-2.84q9.25-1.39,13.88,4t4.63,17.06v48.75q0,11.71-4.63,18.47t-13.88,8.15l-19,2.84ZM315.19,143a6.5,6.5,0,0,0,4.68-2.91q1.63-2.45,1.64-7.4V82.55c0-3.31-.55-5.61-1.64-6.92a4.75,4.75,0,0,0-4.68-1.49l-6.32,1v68.85Z"/><path class="cls-8" d="M369.91,52.15l16.82-2.46q6.43,47.28,12.86,94.56L387.18,146c-.9-7.53-1.35-11.29-2.26-18.82v.28l-14.1,2.06c-.91,7.68-1.36,11.52-2.26,19.2l-11.51,1.71Q363.48,101.31,369.91,52.15Zm13.54,62.47-5.52-46.84-.23,0Q375,92,372.28,116.25Z"/><path class="cls-8" d="M409.18,138q-4.73-5.61-4.74-17.31V70q0-11.7,4.74-18.63A18.89,18.89,0,0,1,423,43.26q9-1.21,13.77,4.45t4.74,17.36v8.27c-4.7.59-7,.9-11.74,1.52V65.63q0-9.51-6.43-8.65t-6.43,10.37V120.1q0,9.36,6.43,8.49t6.43-10.22V99.51l-6.21.82V86.56c7.18-1,10.77-1.43,17.95-2.34v31.53q0,11.72-4.74,18.58c-3.16,4.59-7.75,7.27-13.77,8.08S412.34,141.76,409.18,138Z"/><path class="cls-8" d="M449.47,41.21c6.23-.77,9.34-1.15,15.57-1.87q6,28.17,12.07,56.34l.23,0V38c4.42-.48,6.63-.72,11.06-1.17v96.4c-5.1.52-7.65.8-12.75,1.36q-7.45-34.33-14.9-68.67l-.22,0v70.37c-4.43.52-6.64.79-11.06,1.34Z"/><path class="cls-8" d="M497.65,35.85q16.92-1.59,33.85-2.92V46.7c-8.57.64-12.86,1-21.44,1.76V73.93c6.82-.61,10.23-.89,17-1.42V86.28c-6.81.53-10.22.81-17,1.42v29.61c8.58-.76,12.87-1.12,21.44-1.75v13.77q-16.93,1.32-33.85,2.92Z"/><path class="cls-8" d="M548.32,45.56c-5.19.32-7.79.49-13,.86V32.65q19.17-1.38,38.37-2.14V44.28c-5.19.21-7.79.32-13,.59v82.62c-5,.26-7.45.39-12.41.7Z"/><path class="cls-8" d="M579.69,30.29c11.29-.31,22.55-.51,33.85-.58V43.48c-8.58,0-12.86.05-21.44.24V69.2c6.82-.15,10.22-.2,17-.23V82.74c-6.82,0-10.22.08-17,.23v29.61c8.58-.19,12.86-.24,21.44-.24v13.77c-11.3.07-22.56.27-33.85.58Z"/><path class="cls-8" d="M511.84,159.57h4v10.26H520V159.57h4v25.2h-4V173.43H515.8v11.34h-4Z"/><path class="cls-8" d="M527,159.57h10.8v3.6h-6.84v6.66h5.43v3.6h-5.43v7.74h6.84v3.6H527Z"/><path class="cls-8" d="M539.13,184.77v-3.6a5.08,5.08,0,0,0,1.29.15,2.33,2.33,0,0,0,1.76-.6,2.48,2.48,0,0,0,.58-1.81V159.57h4V178.8a6.53,6.53,0,0,1-1.42,4.61,5.72,5.72,0,0,1-4.34,1.51A9.5,9.5,0,0,1,539.13,184.77Z"/><path class="cls-8" d="M549.89,170.09V159.57h4v10.52l-.51,8h-3ZM550,181h3.82v3.81H550Z"/><path class="cls-8" d="M525.83,206.47c-.12-2.25-.27-5-.26-7h-.06c-.56,1.88-1.23,3.92-2,6.14l-2.86,7.84H519l-2.64-7.7c-.77-2.29-1.4-4.36-1.85-6.28h-.06c0,2-.16,4.71-.32,7.14l-.43,6.94h-2l1.13-16.17h2.66l2.76,7.83c.67,2,1.21,3.76,1.63,5.45H520c.43-1.64,1-3.42,1.71-5.45l2.89-7.83h2.67l1,16.17h-2Z"/><path class="cls-8" d="M534.06,198.69a1.31,1.31,0,1,1-2.62,0,1.29,1.29,0,0,1,1.32-1.32A1.27,1.27,0,0,1,534.06,198.69Zm-2.36,14.88V202h2.1v11.6Z"/><path class="cls-8" d="M539.85,198.63V202h3v1.6h-3v6.25c0,1.45.42,2.26,1.6,2.26a4.09,4.09,0,0,0,1.22-.15l.1,1.61a5.45,5.45,0,0,1-1.89.29,2.93,2.93,0,0,1-2.28-.9,4.43,4.43,0,0,1-.82-3v-6.34H536V202h1.79v-2.8Z"/><path class="cls-8" d="M550.35,205.1c0-1.21,0-2.17-.1-3.13h1.87l.11,1.91h.06a4.29,4.29,0,0,1,3.84-2.18c1.6,0,4.09,1,4.09,5v6.92h-2.1v-6.69c0-1.87-.7-3.45-2.68-3.45a3,3,0,0,0-2.85,2.17,3.56,3.56,0,0,0-.14,1v7h-2.1Z"/><path class="cls-8" d="M570.1,213.57l-.18-1.46h-.06a4.34,4.34,0,0,1-3.56,1.73,3.31,3.31,0,0,1-3.54-3.33c0-2.81,2.49-4.36,7-4.33v-.24a2.4,2.4,0,0,0-2.65-2.68,5.65,5.65,0,0,0-3,.86l-.48-1.4a7.31,7.31,0,0,1,3.83-1c3.55,0,4.41,2.43,4.41,4.75v4.35a18,18,0,0,0,.18,2.77Zm-.32-5.92c-2.29-.05-4.9.36-4.9,2.6a1.85,1.85,0,0,0,2,2,2.91,2.91,0,0,0,2.83-1.94,2.25,2.25,0,0,0,.1-.66Z"/><path class="cls-8" d="M575.86,202l2.27,6.51a29.9,29.9,0,0,1,1,3h.07c.26-1,.6-1.93,1-3l2.27-6.51h2.21L580,213.57h-2L573.6,202Z"/><path class="cls-8" d="M586.59,205.1c0-1.21,0-2.17-.1-3.13h1.87l.11,1.91h.06a4.29,4.29,0,0,1,3.84-2.18c1.6,0,4.09,1,4.09,5v6.92h-2.1v-6.69c0-1.87-.7-3.45-2.68-3.45a3,3,0,0,0-2.85,2.17,3.56,3.56,0,0,0-.14,1v7h-2.1Z"/><path class="cls-8" d="M606.18,208.15a3.7,3.7,0,0,0,4,4,7.94,7.94,0,0,0,3.22-.59l.36,1.5a9.41,9.41,0,0,1-3.87.74c-3.57,0-5.71-2.38-5.71-5.86s2.07-6.27,5.46-6.27c3.79,0,4.78,3.33,4.78,5.46a5.78,5.78,0,0,1-.07,1Zm6.18-1.52c0-1.33-.55-3.41-2.92-3.41-2.15,0-3.07,1.94-3.24,3.41Z"/><path class="cls-8" d="M617,205.58c0-1.37,0-2.54-.1-3.61h1.85l.08,2.27h.07a3.55,3.55,0,0,1,3.24-2.54,2.74,2.74,0,0,1,.59.06v2a3.12,3.12,0,0,0-.72-.06,3,3,0,0,0-2.83,2.7,6,6,0,0,0-.08,1v6.2H617Z"/><path class="cls-8" d="M632.64,208.49,631,213.57H628.8l5.51-16.17h2.51l5.52,16.17h-2.23l-1.73-5.08Zm5.31-1.63-1.6-4.66c-.35-1.06-.59-2-.83-2.95h-.06c-.23.95-.48,1.93-.8,2.92l-1.59,4.69Z"/><path class="cls-8" d="M654.37,202c-.06.82-.1,1.76-.1,3.17v6.74c0,2.69-.54,4.3-1.65,5.32a6.28,6.28,0,0,1-4.23,1.39,7.59,7.59,0,0,1-3.88-1L645,216a6.5,6.5,0,0,0,3.42.93c2.15,0,3.74-1.13,3.74-4.07v-1.29h-.05a4.12,4.12,0,0,1-3.69,2c-2.89,0-5-2.47-5-5.68,0-3.94,2.56-6.16,5.24-6.16a3.84,3.84,0,0,1,3.62,2h0l.09-1.74Zm-2.19,4.56a3.1,3.1,0,0,0-.12-.94,3.06,3.06,0,0,0-3-2.25c-2,0-3.45,1.71-3.45,4.4,0,2.27,1.17,4.18,3.43,4.18a3.09,3.09,0,0,0,2.94-2.17,3.85,3.85,0,0,0,.17-1.12Z"/><path class="cls-8" d="M657.63,205.1c0-1.21,0-2.17-.1-3.13h1.87l.11,1.91h.06a4.29,4.29,0,0,1,3.84-2.18c1.59,0,4.09,1,4.09,5v6.92h-2.1v-6.69c0-1.87-.71-3.45-2.68-3.45a3,3,0,0,0-2.85,2.17,3.56,3.56,0,0,0-.14,1v7h-2.1Z"/><path class="cls-8" d="M672.13,208.15a3.7,3.7,0,0,0,4,4,7.91,7.91,0,0,0,3.22-.59l.37,1.5a9.51,9.51,0,0,1-3.88.74c-3.56,0-5.71-2.38-5.71-5.86s2.07-6.27,5.46-6.27c3.79,0,4.78,3.33,4.78,5.46a4.9,4.9,0,0,1-.07,1Zm6.18-1.52c0-1.33-.55-3.41-2.91-3.41-2.16,0-3.08,1.94-3.25,3.41Z"/><path class="cls-8" d="M685.5,198.63V202h3v1.6h-3v6.25c0,1.45.42,2.26,1.6,2.26a4,4,0,0,0,1.22-.15l.1,1.61a5.41,5.41,0,0,1-1.89.29,2.91,2.91,0,0,1-2.27-.9,4.38,4.38,0,0,1-.82-3v-6.34h-1.8V202h1.8v-2.8Z"/><path class="cls-8" d="M692,208.15a3.7,3.7,0,0,0,4,4,7.91,7.91,0,0,0,3.22-.59l.37,1.5a9.49,9.49,0,0,1-3.87.74c-3.57,0-5.72-2.38-5.72-5.86s2.08-6.27,5.47-6.27c3.78,0,4.77,3.33,4.77,5.46a4.9,4.9,0,0,1-.07,1Zm6.18-1.52c0-1.33-.54-3.41-2.91-3.41-2.16,0-3.07,1.94-3.24,3.41Z"/><path class="cls-8" d="M702,212.33a1.43,1.43,0,0,1,1.44-1.52,1.52,1.52,0,0,1,0,3A1.42,1.42,0,0,1,702,212.33Z"/><path class="cls-8" d="M715.93,197.4H718v10.81c0,4.31-2.11,5.63-4.89,5.63a6.88,6.88,0,0,1-2.24-.38l.31-1.7a5.19,5.19,0,0,0,1.77.3c1.86,0,2.95-.85,2.95-4Z"/><path class="cls-8" d="M722.67,208.15a3.7,3.7,0,0,0,4,4,7.91,7.91,0,0,0,3.22-.59l.37,1.5a9.49,9.49,0,0,1-3.87.74c-3.57,0-5.72-2.38-5.72-5.86s2.08-6.27,5.47-6.27c3.78,0,4.77,3.33,4.77,5.46a4.9,4.9,0,0,1-.07,1Zm6.18-1.52c0-1.33-.55-3.41-2.91-3.41-2.16,0-3.08,1.94-3.24,3.41Z"/><path class="cls-8" d="M743.53,202c-.06.82-.1,1.76-.1,3.17v6.74c0,2.69-.55,4.3-1.66,5.32a6.26,6.26,0,0,1-4.23,1.39,7.55,7.55,0,0,1-3.87-1l.53-1.63a6.47,6.47,0,0,0,3.42.93c2.15,0,3.73-1.13,3.73-4.07v-1.29h0a4.13,4.13,0,0,1-3.69,2c-2.9,0-5-2.47-5-5.68,0-3.94,2.56-6.16,5.24-6.16a3.86,3.86,0,0,1,3.62,2h.05l.09-1.74Zm-2.2,4.56a3.47,3.47,0,0,0-.11-.94,3.06,3.06,0,0,0-3-2.25c-2,0-3.46,1.71-3.46,4.4,0,2.27,1.18,4.18,3.44,4.18a3.09,3.09,0,0,0,2.94-2.17,3.84,3.84,0,0,0,.16-1.12Z"/><path class="cls-8" d="M751.72,211.43a5.79,5.79,0,0,0,2.8.82c1.54,0,2.25-.76,2.25-1.73s-.61-1.54-2.16-2.12c-2.09-.76-3.09-1.9-3.08-3.29,0-1.87,1.52-3.41,4-3.41a5.57,5.57,0,0,1,2.85.72l-.53,1.53a4.52,4.52,0,0,0-2.38-.68c-1.24,0-1.92.72-1.92,1.59s.68,1.39,2.2,2c2,.75,3,1.76,3,3.49,0,2.06-1.6,3.5-4.34,3.5a6.6,6.6,0,0,1-3.26-.81Z"/><path class="cls-8" d="M763.62,207.29h0c.29-.41.68-.92,1-1.32l3.42-4h2.53l-4.48,4.77,5.11,6.83h-2.57l-4-5.57-1.08,1.21v4.36h-2.1v-17h2.1Z"/><path class="cls-8" d="M779.64,213.57l-.18-1.46h-.07a4.31,4.31,0,0,1-3.55,1.73,3.31,3.31,0,0,1-3.54-3.33c0-2.81,2.49-4.36,7-4.33v-.24a2.39,2.39,0,0,0-2.64-2.68,5.65,5.65,0,0,0-3,.86l-.48-1.4a7.28,7.28,0,0,1,3.83-1c3.55,0,4.41,2.43,4.41,4.75v4.35a18,18,0,0,0,.18,2.77Zm-.32-5.92c-2.29-.05-4.9.36-4.9,2.6a1.85,1.85,0,0,0,2,2,2.91,2.91,0,0,0,2.83-1.94,2.25,2.25,0,0,0,.1-.66Z"/><path class="cls-8" d="M784.78,196.53h2.1v17h-2.1Z"/><path class="cls-8" d="M795.43,213.57c.05-.79.09-2,.09-3V196.53h2.1v7.3h0a4.29,4.29,0,0,1,4-2.13c2.88,0,4.91,2.4,4.9,5.91,0,4.17-2.64,6.23-5.23,6.23a4.2,4.2,0,0,1-3.89-2.17h0l-.11,1.9Zm2.19-4.65a3.23,3.23,0,0,0,3.26,3.24c2.22,0,3.52-1.8,3.52-4.46,0-2.34-1.2-4.34-3.46-4.34a3.38,3.38,0,0,0-3.2,2.6,3.74,3.74,0,0,0-.12.88Z"/><path class="cls-8" d="M815.62,213.57l-.19-1.46h-.06a4.34,4.34,0,0,1-3.55,1.73,3.32,3.32,0,0,1-3.55-3.33c0-2.81,2.5-4.36,7-4.33v-.24a2.39,2.39,0,0,0-2.64-2.68,5.71,5.71,0,0,0-3,.86l-.48-1.4a7.33,7.33,0,0,1,3.83-1c3.55,0,4.42,2.43,4.42,4.75v4.35a18.06,18.06,0,0,0,.17,2.77Zm-.33-5.92c-2.28-.05-4.9.36-4.9,2.6a1.85,1.85,0,0,0,2,2,2.91,2.91,0,0,0,2.83-1.94,2.25,2.25,0,0,0,.1-.66Z"/><path class="cls-8" d="M830.77,202c-.06.82-.1,1.76-.1,3.17v6.74c0,2.69-.55,4.3-1.66,5.32a6.26,6.26,0,0,1-4.23,1.39,7.55,7.55,0,0,1-3.87-1l.53-1.63a6.46,6.46,0,0,0,3.41.93c2.16,0,3.74-1.13,3.74-4.07v-1.29h-.05a4.1,4.1,0,0,1-3.68,2c-2.9,0-5-2.47-5-5.68,0-3.94,2.56-6.16,5.24-6.16a3.86,3.86,0,0,1,3.62,2h.05l.09-1.74Zm-2.2,4.56a3.1,3.1,0,0,0-.12-.94,3,3,0,0,0-3-2.25c-2,0-3.46,1.71-3.46,4.4,0,2.27,1.18,4.18,3.44,4.18a3.09,3.09,0,0,0,2.94-2.17,3.84,3.84,0,0,0,.16-1.12Z"/><path class="cls-8" d="M835.35,208.15a3.7,3.7,0,0,0,4,4,7.94,7.94,0,0,0,3.22-.59l.37,1.5a9.51,9.51,0,0,1-3.88.74c-3.56,0-5.71-2.38-5.71-5.86s2.07-6.27,5.46-6.27c3.79,0,4.78,3.33,4.78,5.46a4.9,4.9,0,0,1-.07,1Zm6.18-1.52c0-1.33-.55-3.41-2.91-3.41-2.16,0-3.08,1.94-3.25,3.41Z"/><path class="cls-8" d="M852.46,208.15a3.7,3.7,0,0,0,4,4,7.91,7.91,0,0,0,3.22-.59l.37,1.5a9.51,9.51,0,0,1-3.88.74c-3.56,0-5.71-2.38-5.71-5.86s2.07-6.27,5.46-6.27c3.79,0,4.78,3.33,4.78,5.46a4.9,4.9,0,0,1-.07,1Zm6.18-1.52c0-1.33-.55-3.41-2.91-3.41-2.16,0-3.08,1.94-3.24,3.41Z"/><path class="cls-8" d="M863.3,205.1c0-1.21,0-2.17-.09-3.13h1.86l.12,1.91h.06a4.28,4.28,0,0,1,3.83-2.18c1.6,0,4.1,1,4.1,5v6.92h-2.1v-6.69c0-1.87-.71-3.45-2.69-3.45a3,3,0,0,0-2.84,2.17,3.2,3.2,0,0,0-.15,1v7h-2.1Z"/><path class="cls-8" d="M881.71,196.53h2.1v17h-2.1Z"/><path class="cls-8" d="M893.81,213.57l-.19-1.46h-.06a4.34,4.34,0,0,1-3.55,1.73,3.32,3.32,0,0,1-3.55-3.33c0-2.81,2.5-4.36,7-4.33v-.24a2.39,2.39,0,0,0-2.64-2.68,5.71,5.71,0,0,0-3,.86l-.48-1.4a7.34,7.34,0,0,1,3.84-1c3.54,0,4.41,2.43,4.41,4.75v4.35a18.06,18.06,0,0,0,.17,2.77Zm-.33-5.92c-2.28-.05-4.9.36-4.9,2.6a1.85,1.85,0,0,0,2,2,2.91,2.91,0,0,0,2.83-1.94,2,2,0,0,0,.1-.66Z"/><path class="cls-8" d="M909,202c-.06.82-.1,1.76-.1,3.17v6.74c0,2.69-.55,4.3-1.66,5.32a6.26,6.26,0,0,1-4.23,1.39,7.55,7.55,0,0,1-3.87-1l.53-1.63a6.47,6.47,0,0,0,3.42.93c2.15,0,3.73-1.13,3.73-4.07v-1.29h0a4.13,4.13,0,0,1-3.69,2c-2.9,0-4.95-2.47-4.95-5.68,0-3.94,2.56-6.16,5.24-6.16a3.86,3.86,0,0,1,3.62,2h0l.09-1.74Zm-2.2,4.56a3.47,3.47,0,0,0-.11-.94,3.06,3.06,0,0,0-3-2.25c-2,0-3.46,1.71-3.46,4.4,0,2.27,1.18,4.18,3.44,4.18a3.09,3.09,0,0,0,2.94-2.17,3.84,3.84,0,0,0,.16-1.12Z"/><path class="cls-8" d="M914.45,207.29h0c.28-.41.68-.92,1-1.32l3.43-4h2.53L917,206.74l5.11,6.83h-2.57l-4-5.57-1.08,1.21v4.36h-2.1v-17h2.1Z"/><path class="cls-8" d="M930.48,213.57l-.18-1.46h-.07a4.32,4.32,0,0,1-3.55,1.73,3.31,3.31,0,0,1-3.54-3.33c0-2.81,2.49-4.36,7-4.33v-.24a2.39,2.39,0,0,0-2.64-2.68,5.65,5.65,0,0,0-3,.86l-.48-1.4a7.28,7.28,0,0,1,3.83-1c3.54,0,4.41,2.43,4.41,4.75v4.35a18,18,0,0,0,.18,2.77Zm-.33-5.92c-2.28-.05-4.9.36-4.9,2.6a1.86,1.86,0,0,0,2,2,2.9,2.9,0,0,0,2.83-1.94,2,2,0,0,0,.1-.66Z"/><path class="cls-8" d="M945.63,202c-.06.82-.1,1.76-.1,3.17v6.74c0,2.69-.54,4.3-1.65,5.32a6.28,6.28,0,0,1-4.23,1.39,7.56,7.56,0,0,1-3.88-1l.53-1.63a6.5,6.5,0,0,0,3.42.93c2.15,0,3.74-1.13,3.74-4.07v-1.29h-.05a4.13,4.13,0,0,1-3.69,2c-2.89,0-5-2.47-5-5.68,0-3.94,2.56-6.16,5.24-6.16a3.84,3.84,0,0,1,3.62,2h0l.09-1.74Zm-2.2,4.56a3.47,3.47,0,0,0-.11-.94,3.06,3.06,0,0,0-3-2.25c-2,0-3.45,1.71-3.45,4.4,0,2.27,1.17,4.18,3.43,4.18a3.09,3.09,0,0,0,2.94-2.17,3.84,3.84,0,0,0,.16-1.12Z"/><path class="cls-8" d="M950.21,208.15a3.7,3.7,0,0,0,4,4,7.91,7.91,0,0,0,3.22-.59l.37,1.5a9.49,9.49,0,0,1-3.87.74c-3.57,0-5.72-2.38-5.72-5.86s2.08-6.27,5.47-6.27c3.78,0,4.77,3.33,4.77,5.46a4.9,4.9,0,0,1-.07,1Zm6.18-1.52c0-1.33-.54-3.41-2.91-3.41-2.16,0-3.07,1.94-3.24,3.41Z"/><path class="cls-8" d="M968.67,198.63V202h3v1.6h-3v6.25c0,1.45.42,2.26,1.6,2.26a4.12,4.12,0,0,0,1.23-.15l.09,1.61a5.39,5.39,0,0,1-1.88.29,2.93,2.93,0,0,1-2.28-.9,4.38,4.38,0,0,1-.82-3v-6.34h-1.8V202h1.8v-2.8Z"/><path class="cls-8" d="M976.44,198.69a1.31,1.31,0,1,1-2.61,0,1.29,1.29,0,0,1,1.31-1.32A1.26,1.26,0,0,1,976.44,198.69Zm-2.36,14.88V202h2.11v11.6Z"/><path class="cls-8" d="M979.7,196.53h2.1v17h-2.1Z"/><path class="cls-8" d="M990.45,205.1c0-1.21,0-2.17-.09-3.13h1.83l.11,1.87h.06A4,4,0,0,1,996,201.7,3.42,3.42,0,0,1,999.3,204h.05a4.69,4.69,0,0,1,1.31-1.51,3.94,3.94,0,0,1,2.55-.82c1.55,0,3.83,1,3.83,5v6.83H1005V207c0-2.25-.83-3.58-2.52-3.58a2.75,2.75,0,0,0-2.51,1.9,3.46,3.46,0,0,0-.17,1.06v7.18h-2.06v-7c0-1.85-.82-3.18-2.42-3.18a2.92,2.92,0,0,0-2.63,2.11,3.49,3.49,0,0,0-.16,1v7h-2.06Z"/><path class="cls-8" d="M1012.83,198.69a1.28,1.28,0,0,1-1.35,1.31,1.26,1.26,0,0,1-1.27-1.31,1.31,1.31,0,1,1,2.62,0Zm-2.36,14.88V202h2.1v11.6Z"/><path class="cls-8" d="M1016.08,205.1c0-1.21,0-2.17-.09-3.13h1.86l.12,1.91h.06a4.29,4.29,0,0,1,3.84-2.18c1.59,0,4.09,1,4.09,5v6.92h-2.1v-6.69c0-1.87-.71-3.45-2.69-3.45a3,3,0,0,0-2.84,2.17,3.22,3.22,0,0,0-.14,1v7h-2.11Z"/><path class="cls-8" d="M1036.59,207.29h.05c.28-.41.68-.92,1-1.32l3.42-4h2.54l-4.49,4.77,5.11,6.83h-2.57l-4-5.57-1.08,1.21v4.36h-2.1v-17h2.1Z"/><path class="cls-8" d="M1055.55,210.4c0,1.22,0,2.26.1,3.17h-1.87l-.11-1.89h-.06a4.33,4.33,0,0,1-3.84,2.16c-1.82,0-4-1-4-5.09V202h2.1v6.41c0,2.21.69,3.72,2.6,3.72a3.07,3.07,0,0,0,2.79-1.94,3.2,3.2,0,0,0,.19-1.08V202h2.1Z"/><path class="cls-8" d="M1058.77,211.43a5.86,5.86,0,0,0,2.8.82c1.54,0,2.25-.76,2.25-1.73s-.61-1.54-2.15-2.12c-2.1-.76-3.09-1.9-3.09-3.29,0-1.87,1.52-3.41,4-3.41a5.53,5.53,0,0,1,2.84.72l-.52,1.53a4.59,4.59,0,0,0-2.38-.68c-1.25,0-1.93.72-1.93,1.59s.68,1.39,2.21,2c2,.75,3,1.76,3,3.49,0,2.06-1.6,3.5-4.34,3.5a6.62,6.62,0,0,1-3.26-.81Z"/><path class="cls-8" d="M1070.93,198.69a1.31,1.31,0,1,1-2.62,0,1.29,1.29,0,0,1,1.32-1.32A1.26,1.26,0,0,1,1070.93,198.69Zm-2.36,14.88V202h2.1v11.6Z"/><path class="cls-8" d="M1074.19,205.1c0-1.21,0-2.17-.1-3.13H1076l.12,1.91h.05a4.3,4.3,0,0,1,3.84-2.18c1.6,0,4.09,1,4.09,5v6.92H1082v-6.69c0-1.87-.7-3.45-2.68-3.45a3,3,0,0,0-2.85,2.17,3.56,3.56,0,0,0-.14,1v7h-2.1Z"/><path class="cls-8" d="M1088.69,208.15a3.7,3.7,0,0,0,4,4,7.91,7.91,0,0,0,3.22-.59l.37,1.5a9.49,9.49,0,0,1-3.87.74c-3.57,0-5.72-2.38-5.72-5.86s2.08-6.27,5.47-6.27c3.78,0,4.77,3.33,4.77,5.46a4.9,4.9,0,0,1-.07,1Zm6.18-1.52c0-1.33-.54-3.41-2.91-3.41-2.16,0-3.08,1.94-3.24,3.41Z"/><path class="cls-8" d="M520.55,234.79h-6.27v5.84h7v1.74h-9.11V226.2h8.74v1.74h-6.64v5.12h6.27Z"/><path class="cls-8" d="M523.9,225.33H526v17h-2.1Z"/><path class="cls-8" d="M529.57,225.33h2.1v17h-2.1Z"/><path class="cls-8" d="M537.59,227.49a1.28,1.28,0,0,1-1.34,1.31,1.26,1.26,0,0,1-1.28-1.31,1.31,1.31,0,1,1,2.62,0Zm-2.36,14.88v-11.6h2.1v11.6Z"/><path class="cls-8" d="M542,237a3.7,3.7,0,0,0,4,4,7.85,7.85,0,0,0,3.21-.59l.37,1.5a9.41,9.41,0,0,1-3.87.74c-3.57,0-5.71-2.38-5.71-5.86s2.07-6.27,5.46-6.27c3.79,0,4.78,3.33,4.78,5.46a5.78,5.78,0,0,1-.07,1Zm6.18-1.52c0-1.33-.55-3.41-2.92-3.41-2.15,0-3.07,1.94-3.24,3.41Z"/><path class="cls-8" d="M552.57,240.23a5.86,5.86,0,0,0,2.8.82c1.54,0,2.25-.76,2.25-1.73s-.61-1.54-2.15-2.12c-2.1-.76-3.09-1.9-3.09-3.29,0-1.87,1.52-3.41,4-3.41a5.53,5.53,0,0,1,2.84.72l-.52,1.53a4.6,4.6,0,0,0-2.39-.68c-1.24,0-1.92.72-1.92,1.59s.68,1.39,2.21,2c2,.75,3,1.76,3,3.49,0,2.06-1.6,3.5-4.34,3.5a6.62,6.62,0,0,1-3.26-.81Z"/><path class="cls-8" d="M573.31,242.37v-4.25h-7.24v-1.38l6.95-10h2.28v9.71h2.19v1.64H575.3v4.25Zm0-5.89v-5.22c0-.81,0-1.63.08-2.44l-.08,0c-.49.93-.87,1.6-1.3,2.33l-3.8,5.3v0Z"/><path class="cls-8" d="M584.66,235.11v1.55h-5.92v-1.55Z"/><path class="cls-8" d="M593.58,242.37l-.19-1.46h-.06a4.34,4.34,0,0,1-3.55,1.73,3.32,3.32,0,0,1-3.55-3.33c0-2.81,2.49-4.36,7-4.33v-.24a2.4,2.4,0,0,0-2.65-2.68,5.65,5.65,0,0,0-3,.86l-.48-1.4a7.31,7.31,0,0,1,3.83-1c3.55,0,4.42,2.43,4.42,4.75v4.35a18.06,18.06,0,0,0,.17,2.77Zm-.33-5.92c-2.29,0-4.9.36-4.9,2.6a1.85,1.85,0,0,0,2,2,2.91,2.91,0,0,0,2.83-1.94,2.25,2.25,0,0,0,.1-.66Zm-4.54-9.16a2.28,2.28,0,0,1,2.47-2.26,2.23,2.23,0,0,1,2.37,2.26,2.43,2.43,0,0,1-4.84,0Zm3.66,0a1.22,1.22,0,1,0-1.24,1.33A1.25,1.25,0,0,0,592.37,227.26Z"/><path class="cls-8" d="M598.71,234.38c0-1.37,0-2.54-.1-3.61h1.85l.08,2.27h.07a3.55,3.55,0,0,1,3.24-2.54,2.58,2.58,0,0,1,.58.06v2a3,3,0,0,0-.71-.06,3,3,0,0,0-2.83,2.7,5.94,5.94,0,0,0-.09,1v6.2h-2.09Z"/><path class="cls-8" d="M606.26,240.23a5.79,5.79,0,0,0,2.8.82c1.54,0,2.25-.76,2.25-1.73s-.61-1.54-2.16-2.12c-2.09-.76-3.09-1.9-3.08-3.29,0-1.87,1.52-3.41,4-3.41a5.57,5.57,0,0,1,2.85.72l-.53,1.53a4.52,4.52,0,0,0-2.38-.68c-1.24,0-1.92.72-1.92,1.59s.68,1.39,2.2,2c2,.75,3,1.76,3.05,3.49,0,2.06-1.6,3.5-4.34,3.5a6.6,6.6,0,0,1-3.26-.81Z"/><path class="cls-8" d="M621.35,242.37v-10h-1.62v-1.6h1.62v-.56a5.58,5.58,0,0,1,1.35-4.07,4.1,4.1,0,0,1,2.83-1.07,4.6,4.6,0,0,1,1.8.34l-.28,1.62a3.27,3.27,0,0,0-1.36-.26c-1.78,0-2.25,1.58-2.25,3.37v.63h2.81v1.6h-2.8v10Z"/><path class="cls-8" d="M635.66,231.32l1-1.44,1,.65-1,1.5a6,6,0,0,1,1.76,4.45c0,4.25-3,6.16-5.67,6.16a5.43,5.43,0,0,1-3-.82l-1.05,1.47-.88-.73,1-1.44a6,6,0,0,1-1.79-4.48c0-3.85,2.54-6.14,5.7-6.14A5.52,5.52,0,0,1,635.66,231.32Zm-1,1.46a3,3,0,0,0-2-.7c-2.58,0-3.61,2.41-3.61,4.51a5,5,0,0,0,.84,2.91h.05Zm-4,7.6a2.87,2.87,0,0,0,1.93.68c2.21,0,3.69-1.91,3.69-4.51a5.19,5.19,0,0,0-.83-2.84h-.05Z"/><path class="cls-8" d="M651.06,225.33v14c0,1,0,2.19.1,3h-1.88l-.11-2h0a4.27,4.27,0,0,1-3.94,2.27c-2.81,0-5-2.38-5-5.9,0-3.88,2.39-6.24,5.21-6.24a3.89,3.89,0,0,1,3.51,1.76h0v-6.93ZM649,235.49a4.5,4.5,0,0,0-.08-.9,3.13,3.13,0,0,0-3.06-2.43c-2.19,0-3.49,1.92-3.49,4.47,0,2.35,1.17,4.31,3.44,4.31a3.18,3.18,0,0,0,3.09-2.53,3.73,3.73,0,0,0,.1-.91Z"/><path class="cls-8" d="M654.28,240.23a5.86,5.86,0,0,0,2.8.82c1.54,0,2.25-.76,2.25-1.73s-.61-1.54-2.15-2.12c-2.1-.76-3.09-1.9-3.09-3.29,0-1.87,1.52-3.41,4-3.41a5.53,5.53,0,0,1,2.84.72l-.52,1.53a4.59,4.59,0,0,0-2.38-.68c-1.25,0-1.93.72-1.93,1.59s.69,1.39,2.21,2c2,.75,3,1.76,3,3.49,0,2.06-1.6,3.5-4.34,3.5a6.62,6.62,0,0,1-3.26-.81Z"/><path class="cls-8" d="M665.27,237a3.7,3.7,0,0,0,4,4,7.85,7.85,0,0,0,3.21-.59l.37,1.5a9.49,9.49,0,0,1-3.87.74c-3.57,0-5.71-2.38-5.71-5.86s2.07-6.27,5.46-6.27c3.79,0,4.78,3.33,4.78,5.46a5.78,5.78,0,0,1-.07,1Zm6.17-1.52c0-1.33-.54-3.41-2.91-3.41-2.15,0-3.07,1.94-3.24,3.41Z"/><path class="cls-8" d="M676.11,225.33h2.1v17h-2.1Z"/><path class="cls-8" d="M681.47,240.23a5.86,5.86,0,0,0,2.8.82c1.54,0,2.26-.76,2.26-1.73s-.62-1.54-2.16-2.12c-2.1-.76-3.09-1.9-3.09-3.29,0-1.87,1.52-3.41,4-3.41a5.53,5.53,0,0,1,2.84.72l-.52,1.53a4.59,4.59,0,0,0-2.38-.68c-1.25,0-1.93.72-1.93,1.59s.69,1.39,2.21,2c2,.75,3,1.76,3,3.49,0,2.06-1.6,3.5-4.34,3.5a6.62,6.62,0,0,1-3.26-.81Z"/><path class="cls-8" d="M701.29,225.33v14c0,1,0,2.19.1,3h-1.88l-.1-2h-.06a4.27,4.27,0,0,1-3.94,2.27c-2.81,0-5-2.38-5-5.9,0-3.88,2.39-6.24,5.22-6.24a3.89,3.89,0,0,1,3.5,1.76h.05v-6.93Zm-2.09,10.16a4.5,4.5,0,0,0-.09-.9,3.13,3.13,0,0,0-3.06-2.43c-2.19,0-3.49,1.92-3.49,4.47,0,2.35,1.17,4.31,3.45,4.31a3.18,3.18,0,0,0,3.08-2.53,3.29,3.29,0,0,0,.11-.91Z"/><path class="cls-8" d="M711.25,242.37l-.19-1.46H711a4.34,4.34,0,0,1-3.55,1.73,3.32,3.32,0,0,1-3.55-3.33c0-2.81,2.49-4.36,7-4.33v-.24a2.4,2.4,0,0,0-2.65-2.68,5.65,5.65,0,0,0-3,.86l-.48-1.4a7.31,7.31,0,0,1,3.83-1c3.55,0,4.42,2.43,4.42,4.75v4.35a18.06,18.06,0,0,0,.17,2.77Zm-.33-5.92c-2.29,0-4.9.36-4.9,2.6a1.85,1.85,0,0,0,2,2,2.91,2.91,0,0,0,2.83-1.94,2.25,2.25,0,0,0,.1-.66Z"/><path class="cls-8" d="M726.4,230.77c-.06.82-.1,1.76-.1,3.17v6.74c0,2.69-.55,4.3-1.66,5.32a6.26,6.26,0,0,1-4.23,1.39,7.55,7.55,0,0,1-3.87-.95l.53-1.63a6.44,6.44,0,0,0,3.41.93c2.16,0,3.74-1.13,3.74-4.07v-1.29h-.05a4.1,4.1,0,0,1-3.68,2c-2.9,0-5-2.46-5-5.67,0-3.94,2.56-6.16,5.24-6.16a3.86,3.86,0,0,1,3.62,2h.05l.08-1.74Zm-2.2,4.56a3.1,3.1,0,0,0-.12-.94,3.05,3.05,0,0,0-3-2.25c-2,0-3.46,1.71-3.46,4.4,0,2.27,1.17,4.18,3.44,4.18a3.07,3.07,0,0,0,2.93-2.17,3.56,3.56,0,0,0,.17-1.13Z"/><path class="cls-8" d="M728.93,241.13a1.43,1.43,0,0,1,1.44-1.52,1.52,1.52,0,0,1,0,3A1.42,1.42,0,0,1,728.93,241.13Z"/><path class="cls-8" d="M525.83,264.07c-.12-2.25-.27-5-.26-7h-.06c-.56,1.88-1.23,3.92-2,6.14l-2.86,7.84H519l-2.64-7.7c-.77-2.29-1.4-4.36-1.85-6.28h-.06c0,2-.16,4.71-.32,7.14l-.43,6.94h-2L512.89,255h2.66l2.76,7.83c.67,2,1.21,3.76,1.63,5.45H520c.43-1.64,1-3.42,1.71-5.45L524.6,255h2.67l1,16.17h-2Z"/><path class="cls-8" d="M532.74,265.75a3.7,3.7,0,0,0,4,4,7.94,7.94,0,0,0,3.22-.59l.36,1.5a9.41,9.41,0,0,1-3.87.74c-3.56,0-5.71-2.38-5.71-5.86s2.07-6.27,5.46-6.27c3.79,0,4.78,3.33,4.78,5.46a5.78,5.78,0,0,1-.07,1Zm6.18-1.52c0-1.33-.55-3.41-2.92-3.41-2.15,0-3.07,1.94-3.24,3.41Z"/><path class="cls-8" d="M543.58,262.7c0-1.21,0-2.17-.1-3.13h1.87l.12,1.91h0a4.31,4.31,0,0,1,3.84-2.18c1.6,0,4.09,1,4.09,4.95v6.92h-2.1v-6.69c0-1.87-.7-3.45-2.68-3.45a3,3,0,0,0-2.84,2.17,3.2,3.2,0,0,0-.15,1v7h-2.1Z"/><path class="cls-8" d="M562,262.7c0-1.21,0-2.17-.1-3.13h1.87l.11,1.91h.06a4.29,4.29,0,0,1,3.84-2.18c1.59,0,4.09,1,4.09,4.95v6.92h-2.1v-6.69c0-1.87-.71-3.45-2.68-3.45a3,3,0,0,0-2.85,2.17,3.56,3.56,0,0,0-.14,1v7H562Z"/><path class="cls-8" d="M585.81,265.26c0,4.3-3,6.18-5.77,6.18-3.15,0-5.58-2.3-5.58-6,0-3.89,2.56-6.16,5.77-6.16S585.81,261.72,585.81,265.26Zm-9.2.13c0,2.55,1.46,4.47,3.52,4.47s3.54-1.89,3.54-4.53c0-2-1-4.45-3.5-4.45S576.61,263.19,576.61,265.39Z"/><path class="cls-8" d="M598.52,259.57c0,.82-.09,1.76-.09,3.17v6.74c0,2.69-.55,4.3-1.66,5.32a6.28,6.28,0,0,1-4.23,1.39,7.55,7.55,0,0,1-3.87-.95l.52-1.63a6.5,6.5,0,0,0,3.42.93c2.16,0,3.74-1.13,3.74-4.07v-1.29h-.05a4.12,4.12,0,0,1-3.69,2c-2.89,0-5-2.47-5-5.68,0-3.94,2.56-6.16,5.25-6.16a3.86,3.86,0,0,1,3.62,2h0l.09-1.74Zm-2.19,4.56a3.1,3.1,0,0,0-.12-.94,3.05,3.05,0,0,0-3-2.25c-2,0-3.46,1.71-3.46,4.4,0,2.27,1.17,4.18,3.44,4.18a3.07,3.07,0,0,0,2.93-2.17,3.85,3.85,0,0,0,.17-1.12Z"/><path class="cls-8" d="M601.92,254.13H604v17h-2.1Z"/><path class="cls-8" d="M608.77,265.75a3.7,3.7,0,0,0,4,4,7.91,7.91,0,0,0,3.22-.59l.37,1.5a9.51,9.51,0,0,1-3.88.74c-3.56,0-5.71-2.38-5.71-5.86s2.07-6.27,5.46-6.27c3.79,0,4.78,3.33,4.78,5.46a4.9,4.9,0,0,1-.07,1Zm6.18-1.52c0-1.33-.55-3.41-2.91-3.41-2.16,0-3.08,1.94-3.25,3.41Z"/><path class="cls-8" d="M631.13,271.17l-.18-1.46h-.06a4.34,4.34,0,0,1-3.56,1.73,3.31,3.31,0,0,1-3.54-3.33c0-2.81,2.49-4.36,7-4.33v-.24a2.4,2.4,0,0,0-2.65-2.68,5.65,5.65,0,0,0-3,.86l-.48-1.4a7.31,7.31,0,0,1,3.83-1c3.55,0,4.41,2.43,4.41,4.75v4.35a18,18,0,0,0,.18,2.77Zm-.32-5.92c-2.29-.05-4.9.36-4.9,2.6a1.86,1.86,0,0,0,2,2,2.92,2.92,0,0,0,2.83-1.95,2.25,2.25,0,0,0,.1-.66Z"/><path class="cls-8" d="M636.47,271.17v-10h-1.62v-1.6h1.62V259a5.58,5.58,0,0,1,1.35-4.07,4.06,4.06,0,0,1,2.82-1.07,4.61,4.61,0,0,1,1.81.34l-.28,1.62a3.27,3.27,0,0,0-1.36-.26c-1.78,0-2.25,1.58-2.25,3.37v.63h2.81v1.6h-2.8v10Z"/><path class="cls-8" d="M648.36,262.7c0-1.21,0-2.17-.09-3.13h1.83l.11,1.87h.06a4,4,0,0,1,3.67-2.14,3.42,3.42,0,0,1,3.27,2.33h0a4.69,4.69,0,0,1,1.31-1.51,3.94,3.94,0,0,1,2.55-.82c1.55,0,3.83,1,3.83,5v6.83h-2.06v-6.56c0-2.25-.83-3.58-2.52-3.58a2.75,2.75,0,0,0-2.51,1.9,3.46,3.46,0,0,0-.17,1.06v7.18h-2.06v-7c0-1.85-.82-3.18-2.42-3.18a2.92,2.92,0,0,0-2.63,2.11,3.49,3.49,0,0,0-.16,1v7h-2.06Z"/><path class="cls-8" d="M670.74,256.29a1.28,1.28,0,0,1-1.35,1.31,1.26,1.26,0,0,1-1.27-1.31,1.31,1.31,0,1,1,2.62,0Zm-2.36,14.88v-11.6h2.1v11.6Z"/><path class="cls-8" d="M674,262.7c0-1.21,0-2.17-.1-3.13h1.86l.12,1.91h.06a4.29,4.29,0,0,1,3.84-2.18c1.59,0,4.09,1,4.09,4.95v6.92h-2.1v-6.69c0-1.87-.71-3.45-2.69-3.45a3,3,0,0,0-2.84,2.17,3.22,3.22,0,0,0-.14,1v7H674Z"/><path class="cls-8" d="M688.5,265.75a3.7,3.7,0,0,0,4,4,7.85,7.85,0,0,0,3.21-.59l.37,1.5a9.49,9.49,0,0,1-3.87.74c-3.57,0-5.71-2.38-5.71-5.86s2.07-6.27,5.46-6.27c3.79,0,4.78,3.33,4.78,5.46a5.78,5.78,0,0,1-.07,1Zm6.17-1.52c0-1.33-.54-3.41-2.91-3.41-2.15,0-3.07,1.94-3.24,3.41Z"/><path class="cls-8" d="M706.78,256.29a1.31,1.31,0,1,1-2.61,0,1.29,1.29,0,0,1,1.31-1.32A1.26,1.26,0,0,1,706.78,256.29Zm-2.35,14.88v-11.6h2.1v11.6Z"/><path class="cls-8" d="M710,262.7c0-1.21,0-2.17-.09-3.13h1.86l.12,1.91H712a4.29,4.29,0,0,1,3.84-2.18c1.59,0,4.09,1,4.09,4.95v6.92h-2.1v-6.69c0-1.87-.71-3.45-2.69-3.45a3,3,0,0,0-2.84,2.17,3.2,3.2,0,0,0-.15,1v7H710Z"/><path class="cls-8" d="M733.38,259.57c-.06.82-.1,1.76-.1,3.17v6.74c0,2.69-.55,4.3-1.66,5.32a6.26,6.26,0,0,1-4.23,1.39,7.55,7.55,0,0,1-3.87-.95l.53-1.63a6.46,6.46,0,0,0,3.41.93c2.16,0,3.74-1.13,3.74-4.07v-1.29h0a4.13,4.13,0,0,1-3.69,2c-2.9,0-5-2.47-5-5.68,0-3.94,2.56-6.16,5.24-6.16a3.86,3.86,0,0,1,3.62,2h0l.09-1.74Zm-2.2,4.56a3.1,3.1,0,0,0-.12-.94,3,3,0,0,0-3-2.25c-2,0-3.46,1.71-3.46,4.4,0,2.27,1.18,4.18,3.44,4.18a3.09,3.09,0,0,0,2.94-2.17,3.84,3.84,0,0,0,.16-1.12Z"/><path class="cls-8" d="M736.63,263.18c0-1.37,0-2.54-.1-3.61h1.85l.08,2.27h.08a3.53,3.53,0,0,1,3.23-2.54,2.68,2.68,0,0,1,.59.06v2a3.12,3.12,0,0,0-.72-.06,3,3,0,0,0-2.83,2.7,6,6,0,0,0-.08,1v6.2h-2.1Z"/><path class="cls-8" d="M745.42,265.75a3.7,3.7,0,0,0,4,4,7.87,7.87,0,0,0,3.22-.59l.37,1.5a9.49,9.49,0,0,1-3.87.74c-3.57,0-5.71-2.38-5.71-5.86s2.07-6.27,5.46-6.27c3.78,0,4.77,3.33,4.77,5.46a4.9,4.9,0,0,1-.07,1Zm6.18-1.52c0-1.33-.54-3.41-2.91-3.41-2.16,0-3.07,1.94-3.24,3.41Z"/><path class="cls-8" d="M766.28,254.13v14.05c0,1,0,2.19.1,3H764.5l-.1-2h-.06a4.27,4.27,0,0,1-3.94,2.27c-2.81,0-5-2.38-5-5.9,0-3.88,2.39-6.24,5.21-6.24a3.89,3.89,0,0,1,3.51,1.76h0v-6.93Zm-2.1,10.16a4.56,4.56,0,0,0-.08-.9A3.13,3.13,0,0,0,761,261c-2.19,0-3.49,1.92-3.49,4.47,0,2.35,1.17,4.31,3.45,4.31a3.18,3.18,0,0,0,3.08-2.53,3.3,3.3,0,0,0,.1-.91Z"/><path class="cls-8" d="M772.16,256.29a1.31,1.31,0,1,1-2.62,0,1.29,1.29,0,0,1,1.32-1.32A1.27,1.27,0,0,1,772.16,256.29Zm-2.36,14.88v-11.6h2.1v11.6Z"/><path class="cls-8" d="M776.6,265.75a3.7,3.7,0,0,0,4,4,7.94,7.94,0,0,0,3.22-.59l.37,1.5a9.51,9.51,0,0,1-3.88.74c-3.56,0-5.71-2.38-5.71-5.86s2.07-6.27,5.46-6.27c3.79,0,4.78,3.33,4.78,5.46a4.9,4.9,0,0,1-.07,1Zm6.18-1.52c0-1.33-.55-3.41-2.91-3.41-2.16,0-3.08,1.94-3.25,3.41Z"/><path class="cls-8" d="M787.44,262.7c0-1.21,0-2.17-.1-3.13h1.87l.12,1.91h0a4.31,4.31,0,0,1,3.84-2.18c1.6,0,4.09,1,4.09,4.95v6.92h-2.1v-6.69c0-1.87-.7-3.45-2.68-3.45a3,3,0,0,0-2.84,2.17,3.2,3.2,0,0,0-.15,1v7h-2.1Z"/><path class="cls-8" d="M800.46,269a5.86,5.86,0,0,0,2.8.82c1.54,0,2.26-.76,2.26-1.73s-.62-1.54-2.16-2.12c-2.1-.76-3.09-1.9-3.09-3.29,0-1.87,1.52-3.41,4-3.41a5.53,5.53,0,0,1,2.84.72l-.52,1.53a4.59,4.59,0,0,0-2.38-.68c-1.25,0-1.93.72-1.93,1.59s.69,1.39,2.21,2c2,.75,3,1.76,3,3.49,0,2.06-1.6,3.5-4.34,3.5a6.62,6.62,0,0,1-3.26-.81Z"/><path class="cls-8" d="M811.45,265.75a3.7,3.7,0,0,0,4,4,7.85,7.85,0,0,0,3.21-.59l.37,1.5a9.49,9.49,0,0,1-3.87.74c-3.57,0-5.71-2.38-5.71-5.86s2.07-6.27,5.46-6.27c3.79,0,4.78,3.33,4.78,5.46a5.78,5.78,0,0,1-.07,1Zm6.17-1.52c0-1.33-.54-3.41-2.91-3.41-2.15,0-3.07,1.94-3.24,3.41Z"/><path class="cls-8" d="M822.28,263.18c0-1.37,0-2.54-.09-3.61H824l.08,2.27h.07a3.55,3.55,0,0,1,3.24-2.54,2.58,2.58,0,0,1,.58.06v2a3.07,3.07,0,0,0-.72-.06,3,3,0,0,0-2.82,2.7,5.94,5.94,0,0,0-.09,1v6.2h-2.1Z"/><path class="cls-8" d="M836.41,265.75a3.7,3.7,0,0,0,4,4,7.85,7.85,0,0,0,3.21-.59l.37,1.5a9.49,9.49,0,0,1-3.87.74c-3.57,0-5.71-2.38-5.71-5.86s2.07-6.27,5.46-6.27c3.79,0,4.78,3.33,4.78,5.46a4.75,4.75,0,0,1-.08,1Zm6.17-1.52c0-1.33-.54-3.41-2.91-3.41-2.15,0-3.07,1.94-3.24,3.41Z"/><path class="cls-8" d="M847.24,263.18c0-1.37,0-2.54-.09-3.61H849l.08,2.27h.07a3.53,3.53,0,0,1,3.23-2.54,2.68,2.68,0,0,1,.59.06v2a3.07,3.07,0,0,0-.72-.06,2.94,2.94,0,0,0-2.82,2.7,5,5,0,0,0-.09,1v6.2h-2.1Z"/><path class="cls-8" d="M859.88,269a5.86,5.86,0,0,0,2.8.82c1.54,0,2.26-.76,2.26-1.73s-.62-1.54-2.16-2.12c-2.1-.76-3.09-1.9-3.08-3.29,0-1.87,1.51-3.41,4-3.41a5.53,5.53,0,0,1,2.84.72l-.52,1.53a4.59,4.59,0,0,0-2.38-.68c-1.25,0-1.92.72-1.92,1.59s.68,1.39,2.2,2c2,.75,3,1.76,3.05,3.49,0,2.06-1.6,3.5-4.35,3.5a6.62,6.62,0,0,1-3.26-.81Z"/><path class="cls-8" d="M872.22,256.23v3.34h3v1.6h-3v6.25c0,1.45.42,2.27,1.6,2.27a4,4,0,0,0,1.22-.16l.1,1.61a5.45,5.45,0,0,1-1.89.29,2.93,2.93,0,0,1-2.28-.9,4.45,4.45,0,0,1-.82-3v-6.33h-1.8v-1.6h1.8v-2.8Z"/><path class="cls-8" d="M887.34,268c0,1.22,0,2.26.09,3.17h-1.86l-.12-1.89h-.05a4.36,4.36,0,0,1-3.85,2.16c-1.81,0-4-1-4-5.09v-6.78h2.1V266c0,2.21.68,3.72,2.59,3.72a3.06,3.06,0,0,0,2.79-1.94,3.2,3.2,0,0,0,.2-1.08v-7.11h2.1Z"/><path class="cls-8" d="M893,264.89h0c.28-.41.68-.92,1-1.32l3.42-4H900l-4.49,4.77,5.11,6.83H898l-4-5.57L893,266.81v4.36h-2.1v-17H893Z"/><path class="cls-8" d="M904.61,264.89h0c.28-.41.68-.92,1-1.32l3.42-4h2.54l-4.48,4.77,5.11,6.83h-2.57l-4-5.57-1.08,1.21v4.36h-2.1v-17h2.1Z"/><path class="cls-8" d="M915,265.75a3.7,3.7,0,0,0,4,4,7.94,7.94,0,0,0,3.22-.59l.37,1.5a9.51,9.51,0,0,1-3.88.74c-3.56,0-5.71-2.38-5.71-5.86s2.07-6.27,5.46-6.27c3.79,0,4.78,3.33,4.78,5.46a4.9,4.9,0,0,1-.07,1Zm6.18-1.52c0-1.33-.55-3.41-2.91-3.41-2.16,0-3.08,1.94-3.25,3.41Z"/><path class="cls-8" d="M928.35,256.23v3.34h3v1.6h-3v6.25c0,1.45.42,2.27,1.6,2.27a3.94,3.94,0,0,0,1.22-.16l.1,1.61a5.41,5.41,0,0,1-1.89.29,2.91,2.91,0,0,1-2.27-.9,4.39,4.39,0,0,1-.82-3v-6.33h-1.8v-1.6h1.8v-2.8Z"/><path class="cls-8" d="M945.29,271.17l-.19-1.46H945a4.34,4.34,0,0,1-3.55,1.73,3.32,3.32,0,0,1-3.55-3.33c0-2.81,2.49-4.36,7-4.33v-.24a2.39,2.39,0,0,0-2.64-2.68,5.71,5.71,0,0,0-3,.86l-.48-1.4a7.31,7.31,0,0,1,3.83-1c3.55,0,4.42,2.43,4.42,4.75v4.35a18.06,18.06,0,0,0,.17,2.77Zm-.33-5.92c-2.28-.05-4.9.36-4.9,2.6a1.86,1.86,0,0,0,2,2,2.92,2.92,0,0,0,2.83-1.95,2.25,2.25,0,0,0,.1-.66Z"/><path class="cls-8" d="M950.63,271.17v-10H949v-1.6h1.62V259a5.54,5.54,0,0,1,1.35-4.07,4.06,4.06,0,0,1,2.82-1.07,4.56,4.56,0,0,1,1.8.34l-.28,1.62a3.21,3.21,0,0,0-1.35-.26c-1.79,0-2.25,1.58-2.25,3.37v.63h2.8v1.6h-2.79v10Z"/><path class="cls-8" d="M957,270a1.42,1.42,0,1,1,2.83,0,1.42,1.42,0,1,1-2.83,0Zm.59-3.43L957.27,255h2.31l-.34,11.53Z"/><path class="cls-8" d="M514.28,283.8v6.77h7.82V283.8h2.1V300h-2.1v-7.58h-7.82V300h-2.1V283.8Z"/><path class="cls-8" d="M525.11,303.33a3.31,3.31,0,0,0,2.3-.89c.58-.66.82-1.58.82-4.36v-9.71h2.1v10.52c0,2.26-.36,3.72-1.39,4.79a5.42,5.42,0,0,1-3.6,1.31Zm5.47-18.24a1.31,1.31,0,1,1-2.62,0,1.29,1.29,0,0,1,1.33-1.32A1.26,1.26,0,0,1,530.58,285.09Z"/><path class="cls-8" d="M541.86,294.39c-.07,2.75,1.53,4.21,3.72,4.21a6.84,6.84,0,0,0,3.15-.66l.39,1.49a8.38,8.38,0,0,1-3.81.81,4.56,4.56,0,0,1-4.41-2.58h-.06a4.53,4.53,0,0,1-4.32,2.58,3.31,3.31,0,0,1-3.63-3.31c0-2.68,2.5-4.26,7-4.2v-.48a2.55,2.55,0,0,0-2.7-2.59,5.58,5.58,0,0,0-3,.88l-.5-1.39a7.23,7.23,0,0,1,3.63-1,3.52,3.52,0,0,1,3.74,2.45h.06a4.4,4.4,0,0,1,4-2.45c3.56,0,4.54,3.43,4.54,5.35a5.93,5.93,0,0,1-.07.94Zm-1.93-.24c-2.22,0-4.95.34-4.95,2.61a1.87,1.87,0,0,0,2,1.91,2.77,2.77,0,0,0,2.94-2.82Zm7.76-1.27c.06-1.18-.59-3.28-2.73-3.28a3.28,3.28,0,0,0-3.1,3.28Z"/><path class="cls-8" d="M552.34,282.93h2.1v17h-2.1Z"/><path class="cls-8" d="M558,292.15c0-1.48,0-2.69-.1-3.78h1.89l.12,2h0a4.55,4.55,0,0,1,4.13-2.25c2.8,0,4.92,2.37,4.92,5.89,0,4.19-2.56,6.25-5.28,6.25a4,4,0,0,1-3.57-1.83h0v6.32H558Zm2.1,3.1a4,4,0,0,0,.09.86,3.25,3.25,0,0,0,3.16,2.47c2.23,0,3.53-1.83,3.53-4.49,0-2.32-1.22-4.31-3.45-4.31a3.36,3.36,0,0,0-3.2,2.61,4.06,4.06,0,0,0-.13.85Z"/><path class="cls-8" d="M576.75,291.5c0-1.21,0-2.17-.1-3.13h1.84l.11,1.87h.06a4,4,0,0,1,3.66-2.14,3.41,3.41,0,0,1,3.27,2.33h0a4.69,4.69,0,0,1,1.31-1.51,3.94,3.94,0,0,1,2.55-.82c1.55,0,3.84,1,3.84,5V300h-2.06v-6.56c0-2.25-.83-3.58-2.52-3.58a2.75,2.75,0,0,0-2.51,1.9,3.18,3.18,0,0,0-.18,1.06V300H584v-7c0-1.85-.82-3.18-2.41-3.18a2.91,2.91,0,0,0-2.63,2.11,3.19,3.19,0,0,0-.16,1v7h-2.06Z"/><path class="cls-8" d="M599.12,285.09a1.31,1.31,0,1,1-2.62,0,1.29,1.29,0,0,1,1.32-1.32A1.26,1.26,0,0,1,599.12,285.09ZM596.76,300v-11.6h2.1V300Z"/><path class="cls-8" d="M612.4,288.37c-.06.82-.1,1.76-.1,3.17v6.74c0,2.69-.55,4.3-1.66,5.32a6.26,6.26,0,0,1-4.23,1.39,7.55,7.55,0,0,1-3.87-.95l.53-1.63a6.44,6.44,0,0,0,3.41.93c2.16,0,3.74-1.13,3.74-4.07V298h-.05a4.12,4.12,0,0,1-3.69,2c-2.89,0-4.94-2.47-4.94-5.68,0-3.94,2.55-6.16,5.24-6.16a3.86,3.86,0,0,1,3.62,2h.05l.08-1.74Zm-2.2,4.56a3.1,3.1,0,0,0-.12-.94,3.05,3.05,0,0,0-3-2.25c-2,0-3.46,1.71-3.46,4.4,0,2.27,1.17,4.18,3.44,4.18a3.07,3.07,0,0,0,2.93-2.17,3.56,3.56,0,0,0,.17-1.13Z"/><path class="cls-8" d="M620.88,291.5c0-1.21,0-2.17-.09-3.13h1.83l.11,1.87h.06a4,4,0,0,1,3.67-2.14,3.42,3.42,0,0,1,3.27,2.33h0a4.79,4.79,0,0,1,1.3-1.51,4,4,0,0,1,2.56-.82c1.55,0,3.83,1,3.83,5V300h-2.06v-6.56c0-2.25-.83-3.58-2.52-3.58a2.75,2.75,0,0,0-2.51,1.9,3.46,3.46,0,0,0-.17,1.06V300h-2.06v-7c0-1.85-.82-3.18-2.42-3.18a2.92,2.92,0,0,0-2.63,2.11,3.49,3.49,0,0,0-.16,1v7h-2.06Z"/><path class="cls-8" d="M642.08,294.55a3.7,3.7,0,0,0,4,4,7.91,7.91,0,0,0,3.22-.59l.37,1.5a9.51,9.51,0,0,1-3.88.74c-3.56,0-5.71-2.38-5.71-5.86s2.08-6.27,5.46-6.27c3.79,0,4.78,3.33,4.78,5.46a4.9,4.9,0,0,1-.07,1Zm6.18-1.52c0-1.33-.55-3.41-2.91-3.41-2.16,0-3.08,1.94-3.24,3.41Z"/><path class="cls-8" d="M662.94,282.93V297c0,1,0,2.19.1,3h-1.88l-.11-2h0a4.28,4.28,0,0,1-3.94,2.27c-2.81,0-5-2.38-5-5.9,0-3.88,2.39-6.24,5.21-6.24a3.89,3.89,0,0,1,3.5,1.76h.05v-6.93Zm-2.1,10.16a3.87,3.87,0,0,0-.09-.9,3.12,3.12,0,0,0-3-2.43c-2.19,0-3.5,1.92-3.5,4.47,0,2.35,1.18,4.31,3.45,4.31a3.18,3.18,0,0,0,3.09-2.53,3.73,3.73,0,0,0,.1-.91Z"/><path class="cls-8" d="M678,300l-.18-1.46h-.07a4.32,4.32,0,0,1-3.55,1.73,3.31,3.31,0,0,1-3.54-3.33c0-2.81,2.49-4.36,7-4.33v-.24a2.39,2.39,0,0,0-2.64-2.68,5.65,5.65,0,0,0-3,.86l-.48-1.4a7.28,7.28,0,0,1,3.83-1c3.55,0,4.41,2.43,4.41,4.75v4.35a18,18,0,0,0,.18,2.77Zm-.33-5.92c-2.28-.05-4.9.36-4.9,2.6a1.86,1.86,0,0,0,2,2,2.89,2.89,0,0,0,2.82-1.94,2,2,0,0,0,.1-.66Z"/><path class="cls-8" d="M685.55,285v3.34h3V290h-3v6.25c0,1.45.42,2.26,1.6,2.26a4.09,4.09,0,0,0,1.22-.15l.1,1.61a5.45,5.45,0,0,1-1.89.29,2.93,2.93,0,0,1-2.28-.9,4.45,4.45,0,0,1-.82-3V290h-1.79v-1.6h1.79v-2.8Z"/><path class="cls-8" d="M696.25,300V290h-1.62v-1.6h1.62v-.56a5.58,5.58,0,0,1,1.35-4.07,4.1,4.1,0,0,1,2.83-1.07,4.6,4.6,0,0,1,1.8.34l-.28,1.62a3.27,3.27,0,0,0-1.36-.26c-1.78,0-2.25,1.58-2.25,3.37v.63h2.81V290h-2.8v10Z"/><path class="cls-8" d="M709.49,300l-.18-1.46h-.07a4.32,4.32,0,0,1-3.55,1.73,3.31,3.31,0,0,1-3.54-3.33c0-2.81,2.49-4.36,7-4.33v-.24a2.39,2.39,0,0,0-2.64-2.68,5.65,5.65,0,0,0-3,.86l-.48-1.4a7.28,7.28,0,0,1,3.83-1c3.55,0,4.41,2.43,4.41,4.75v4.35a18,18,0,0,0,.18,2.77Zm-.33-5.92c-2.28-.05-4.9.36-4.9,2.6a1.86,1.86,0,0,0,2,2,2.89,2.89,0,0,0,2.82-1.94,2,2,0,0,0,.1-.66Z"/><path class="cls-8" d="M714.63,291.5c0-1.21,0-2.17-.1-3.13h1.86l.12,1.91h.06a4.29,4.29,0,0,1,3.84-2.18c1.59,0,4.09,1,4.09,4.95V300h-2.1v-6.69c0-1.87-.71-3.45-2.69-3.45a3,3,0,0,0-2.84,2.17,3.22,3.22,0,0,0-.14,1v7h-2.1Z"/><path class="cls-8" d="M738,288.37c-.06.82-.1,1.76-.1,3.17v6.74c0,2.69-.54,4.3-1.65,5.32A6.28,6.28,0,0,1,732,305a7.59,7.59,0,0,1-3.88-.95l.53-1.63a6.5,6.5,0,0,0,3.42.93c2.15,0,3.74-1.13,3.74-4.07V298h0a4.12,4.12,0,0,1-3.69,2c-2.89,0-4.95-2.47-4.95-5.68,0-3.94,2.56-6.16,5.24-6.16a3.84,3.84,0,0,1,3.62,2h0l.09-1.74Zm-2.19,4.56a3.1,3.1,0,0,0-.12-.94,3.06,3.06,0,0,0-3-2.25c-2,0-3.45,1.71-3.45,4.4,0,2.27,1.17,4.18,3.43,4.18a3.09,3.09,0,0,0,2.94-2.17,3.86,3.86,0,0,0,.17-1.13Z"/><path class="cls-8" d="M742.54,294.55a3.7,3.7,0,0,0,4,4,7.87,7.87,0,0,0,3.22-.59l.37,1.5a9.49,9.49,0,0,1-3.87.74c-3.57,0-5.71-2.38-5.71-5.86s2.07-6.27,5.46-6.27c3.78,0,4.77,3.33,4.77,5.46a4.9,4.9,0,0,1-.07,1Zm6.18-1.52c0-1.33-.54-3.41-2.91-3.41-2.16,0-3.07,1.94-3.24,3.41Z"/><path class="cls-8" d="M768.49,282.93V297c0,1,0,2.19.1,3h-1.88l-.11-2h-.05a4.28,4.28,0,0,1-3.94,2.27c-2.81,0-5-2.38-5-5.9,0-3.88,2.39-6.24,5.21-6.24a3.86,3.86,0,0,1,3.5,1.76h0v-6.93Zm-2.1,10.16a3.87,3.87,0,0,0-.09-.9,3.11,3.11,0,0,0-3-2.43c-2.19,0-3.5,1.92-3.5,4.47,0,2.35,1.18,4.31,3.45,4.31a3.18,3.18,0,0,0,3.09-2.53,3.73,3.73,0,0,0,.1-.91Z"/><path class="cls-8" d="M773.19,294.55a3.7,3.7,0,0,0,4,4,7.91,7.91,0,0,0,3.22-.59l.37,1.5a9.49,9.49,0,0,1-3.87.74c-3.57,0-5.72-2.38-5.72-5.86s2.08-6.27,5.47-6.27c3.78,0,4.77,3.33,4.77,5.46a4.9,4.9,0,0,1-.07,1Zm6.18-1.52c0-1.33-.55-3.41-2.91-3.41-2.16,0-3.08,1.94-3.24,3.41Z"/><path class="cls-8" d="M784,291.5c0-1.21,0-2.17-.09-3.13h1.83l.11,1.87h.06a4,4,0,0,1,3.67-2.14,3.42,3.42,0,0,1,3.27,2.33h0a4.81,4.81,0,0,1,1.31-1.51,4,4,0,0,1,2.56-.82c1.55,0,3.83,1,3.83,5V300h-2.06v-6.56c0-2.25-.83-3.58-2.52-3.58a2.75,2.75,0,0,0-2.51,1.9,3.46,3.46,0,0,0-.17,1.06V300H791.3v-7c0-1.85-.82-3.18-2.42-3.18a2.92,2.92,0,0,0-2.63,2.11,3.49,3.49,0,0,0-.16,1v7H784Z"/><path class="cls-8" d="M811.49,285.09a1.31,1.31,0,1,1-2.61,0,1.29,1.29,0,0,1,1.31-1.32A1.26,1.26,0,0,1,811.49,285.09ZM809.14,300v-11.6h2.1V300Z"/><path class="cls-8" d="M824.77,288.37c-.06.82-.1,1.76-.1,3.17v6.74c0,2.69-.55,4.3-1.66,5.32a6.26,6.26,0,0,1-4.23,1.39,7.55,7.55,0,0,1-3.87-.95l.53-1.63a6.47,6.47,0,0,0,3.42.93c2.15,0,3.73-1.13,3.73-4.07V298h0a4.13,4.13,0,0,1-3.69,2c-2.9,0-5-2.47-5-5.68,0-3.94,2.56-6.16,5.24-6.16a3.86,3.86,0,0,1,3.62,2h.05l.09-1.74Zm-2.2,4.56a3.47,3.47,0,0,0-.11-.94,3.06,3.06,0,0,0-3-2.25c-2,0-3.46,1.71-3.46,4.4,0,2.27,1.18,4.18,3.44,4.18a3.09,3.09,0,0,0,2.94-2.17,3.86,3.86,0,0,0,.16-1.13Z"/><path class="cls-8" d="M829.35,294.55a3.7,3.7,0,0,0,4,4,7.91,7.91,0,0,0,3.22-.59l.37,1.5a9.51,9.51,0,0,1-3.88.74c-3.56,0-5.71-2.38-5.71-5.86s2.07-6.27,5.46-6.27c3.79,0,4.78,3.33,4.78,5.46a4.9,4.9,0,0,1-.07,1Zm6.18-1.52c0-1.33-.55-3.41-2.91-3.41-2.16,0-3.08,1.94-3.24,3.41Z"/><path class="cls-8" d="M840.19,291.5c0-1.21,0-2.17-.09-3.13H842l.12,1.91h.06A4.28,4.28,0,0,1,846,288.1c1.6,0,4.1,1,4.1,4.95V300H848v-6.69c0-1.87-.7-3.45-2.68-3.45a3,3,0,0,0-2.84,2.17,3.2,3.2,0,0,0-.15,1v7h-2.1Z"/><path class="cls-8" d="M852.15,302.94a34.76,34.76,0,0,0,1.44-5.75l2.35-.24a29.81,29.81,0,0,1-2.3,5.83Z"/><path class="cls-8" d="M863.57,291.5c0-1.21,0-2.17-.1-3.13h1.84l.11,1.87h.06a4,4,0,0,1,3.66-2.14,3.41,3.41,0,0,1,3.27,2.33h.05a4.69,4.69,0,0,1,1.31-1.51,3.94,3.94,0,0,1,2.55-.82c1.55,0,3.84,1,3.84,5V300H878.1v-6.56c0-2.25-.83-3.58-2.52-3.58a2.77,2.77,0,0,0-2.52,1.9,3.46,3.46,0,0,0-.17,1.06V300h-2.06v-7c0-1.85-.82-3.18-2.41-3.18a2.91,2.91,0,0,0-2.63,2.11,3.19,3.19,0,0,0-.16,1v7h-2.06Z"/><path class="cls-8" d="M884.76,294.55a3.71,3.71,0,0,0,4,4A7.85,7.85,0,0,0,892,298l.37,1.5a9.49,9.49,0,0,1-3.87.74c-3.57,0-5.71-2.38-5.71-5.86s2.07-6.27,5.46-6.27c3.79,0,4.78,3.33,4.78,5.46a4.75,4.75,0,0,1-.08,1Zm6.18-1.52c0-1.33-.54-3.41-2.91-3.41-2.15,0-3.07,1.94-3.24,3.41Z"/><path class="cls-8" d="M895.61,291.5c0-1.21,0-2.17-.1-3.13h1.87l.11,1.91h.06a4.29,4.29,0,0,1,3.84-2.18c1.59,0,4.09,1,4.09,4.95V300h-2.1v-6.69c0-1.87-.71-3.45-2.68-3.45a3,3,0,0,0-2.85,2.17,3.22,3.22,0,0,0-.14,1v7h-2.1Z"/><path class="cls-8" d="M923.72,296.8c0,1.22,0,2.26.1,3.17H922l-.11-1.89h-.06a4.35,4.35,0,0,1-3.84,2.16c-1.82,0-4-1-4-5.09v-6.78H916v6.41c0,2.21.69,3.72,2.59,3.72a3.07,3.07,0,0,0,2.8-1.94,3.2,3.2,0,0,0,.19-1.08v-7.11h2.1Z"/><path class="cls-8" d="M927.24,291.5c0-1.21,0-2.17-.1-3.13H929l.11,1.91h.06A4.29,4.29,0,0,1,933,288.1c1.59,0,4.09,1,4.09,4.95V300H935v-6.69c0-1.87-.71-3.45-2.68-3.45a3,3,0,0,0-2.85,2.17,3.56,3.56,0,0,0-.14,1v7h-2.1Z"/><path class="cls-8" d="M950.58,282.93V297c0,1,0,2.19.09,3h-1.88l-.1-2h-.06a4.25,4.25,0,0,1-3.94,2.27c-2.81,0-5-2.38-5-5.9,0-3.88,2.39-6.24,5.22-6.24a3.89,3.89,0,0,1,3.5,1.76h.05v-6.93Zm-2.1,10.16a4.5,4.5,0,0,0-.09-.9,3.13,3.13,0,0,0-3.06-2.43c-2.19,0-3.49,1.92-3.49,4.47,0,2.35,1.17,4.31,3.45,4.31a3.18,3.18,0,0,0,3.08-2.53,3.29,3.29,0,0,0,.11-.91Z"/><path class="cls-8" d="M964.11,288.37c-.06.82-.1,1.76-.1,3.17v6.74c0,2.69-.55,4.3-1.66,5.32a6.25,6.25,0,0,1-4.22,1.39,7.56,7.56,0,0,1-3.88-.95l.53-1.63a6.47,6.47,0,0,0,3.42.93c2.15,0,3.73-1.13,3.73-4.07V298h0a4.13,4.13,0,0,1-3.69,2c-2.9,0-5-2.47-5-5.68,0-3.94,2.56-6.16,5.24-6.16a3.86,3.86,0,0,1,3.62,2h0l.09-1.74Zm-2.2,4.56a3.47,3.47,0,0,0-.11-.94,3.06,3.06,0,0,0-3-2.25c-2,0-3.46,1.71-3.46,4.4,0,2.27,1.18,4.18,3.44,4.18a3.09,3.09,0,0,0,2.94-2.17,3.86,3.86,0,0,0,.16-1.13Z"/><path class="cls-8" d="M973.94,300l-.18-1.46h-.06a4.34,4.34,0,0,1-3.56,1.73,3.31,3.31,0,0,1-3.54-3.33c0-2.81,2.49-4.36,7-4.33v-.24a2.4,2.4,0,0,0-2.65-2.68,5.65,5.65,0,0,0-3,.86l-.48-1.4a7.28,7.28,0,0,1,3.83-1c3.55,0,4.41,2.43,4.41,4.75v4.35a18,18,0,0,0,.18,2.77Zm-.32-5.92c-2.29-.05-4.9.36-4.9,2.6a1.85,1.85,0,0,0,2,2,2.91,2.91,0,0,0,2.83-1.94,2.25,2.25,0,0,0,.1-.66Zm-4.54-9.16a2.28,2.28,0,0,1,2.46-2.26,2.23,2.23,0,0,1,2.38,2.26,2.43,2.43,0,0,1-4.84,0Zm3.66,0a1.23,1.23,0,1,0-2.44,0,1.22,1.22,0,1,0,2.44,0Z"/><path class="cls-8" d="M984.16,291.5c0-1.21,0-2.17-.09-3.13h1.83l.11,1.87h.06a4,4,0,0,1,3.67-2.14,3.42,3.42,0,0,1,3.27,2.33h0a4.69,4.69,0,0,1,1.31-1.51,3.94,3.94,0,0,1,2.55-.82c1.55,0,3.83,1,3.83,5V300h-2.06v-6.56c0-2.25-.83-3.58-2.52-3.58a2.75,2.75,0,0,0-2.51,1.9,3.46,3.46,0,0,0-.17,1.06V300h-2.06v-7c0-1.85-.82-3.18-2.41-3.18a2.93,2.93,0,0,0-2.64,2.11,3.49,3.49,0,0,0-.16,1v7h-2.06Z"/><path class="cls-8" d="M1010.62,300l-.19-1.46h-.06a4.34,4.34,0,0,1-3.55,1.73,3.32,3.32,0,0,1-3.55-3.33c0-2.81,2.49-4.36,7-4.33v-.24a2.4,2.4,0,0,0-2.65-2.68,5.65,5.65,0,0,0-3,.86l-.48-1.4a7.31,7.31,0,0,1,3.83-1c3.55,0,4.41,2.43,4.41,4.75v4.35a18,18,0,0,0,.18,2.77Zm-.33-5.92c-2.29-.05-4.9.36-4.9,2.6a1.85,1.85,0,0,0,2,2,2.91,2.91,0,0,0,2.83-1.94,2.25,2.25,0,0,0,.1-.66Z"/><path class="cls-8" d="M1015.74,292c0-1.37,0-2.54-.09-3.61h1.85l.08,2.27h.07a3.55,3.55,0,0,1,3.24-2.54,2.58,2.58,0,0,1,.58.06v2a3.07,3.07,0,0,0-.72-.06,3,3,0,0,0-2.82,2.7,5.94,5.94,0,0,0-.09,1V300h-2.1Z"/><path class="cls-8" d="M1023.69,291.5c0-1.21,0-2.17-.09-3.13h1.83l.11,1.87h.06a4,4,0,0,1,3.66-2.14,3.42,3.42,0,0,1,3.28,2.33h0a4.81,4.81,0,0,1,1.31-1.51,4,4,0,0,1,2.56-.82c1.55,0,3.83,1,3.83,5V300h-2.06v-6.56c0-2.25-.83-3.58-2.52-3.58a2.75,2.75,0,0,0-2.51,1.9,3.46,3.46,0,0,0-.17,1.06V300H1031v-7c0-1.85-.82-3.18-2.42-3.18a2.92,2.92,0,0,0-2.63,2.11,3.49,3.49,0,0,0-.16,1v7h-2.06Z"/><path class="cls-8" d="M1044.89,294.55a3.7,3.7,0,0,0,4,4,7.94,7.94,0,0,0,3.22-.59l.37,1.5a9.51,9.51,0,0,1-3.88.74c-3.56,0-5.71-2.38-5.71-5.86s2.07-6.27,5.46-6.27c3.79,0,4.78,3.33,4.78,5.46a4.9,4.9,0,0,1-.07,1Zm6.18-1.52c0-1.33-.55-3.41-2.91-3.41-2.16,0-3.08,1.94-3.25,3.41Z"/><path class="cls-8" d="M1055.73,282.93h2.1v17h-2.1Z"/><path class="cls-8" d="M1067.83,300l-.19-1.46h-.06a4.34,4.34,0,0,1-3.55,1.73,3.32,3.32,0,0,1-3.55-3.33c0-2.81,2.5-4.36,7-4.33v-.24a2.39,2.39,0,0,0-2.64-2.68,5.71,5.71,0,0,0-3,.86l-.48-1.4a7.34,7.34,0,0,1,3.84-1c3.54,0,4.41,2.43,4.41,4.75v4.35a18.06,18.06,0,0,0,.17,2.77Zm-.33-5.92c-2.28-.05-4.9.36-4.9,2.6a1.85,1.85,0,0,0,2,2,2.9,2.9,0,0,0,2.83-1.94,2.25,2.25,0,0,0,.1-.66Z"/><path class="cls-8" d="M1083,282.93V297c0,1,0,2.19.1,3h-1.88l-.11-2h0a4.27,4.27,0,0,1-3.94,2.27c-2.81,0-5-2.38-5-5.9,0-3.88,2.39-6.24,5.21-6.24a3.86,3.86,0,0,1,3.5,1.76h.05v-6.93Zm-2.1,10.16a3.87,3.87,0,0,0-.09-.9,3.11,3.11,0,0,0-3-2.43c-2.19,0-3.5,1.92-3.5,4.47,0,2.35,1.18,4.31,3.45,4.31a3.18,3.18,0,0,0,3.09-2.53,3.73,3.73,0,0,0,.1-.91Z"/><path class="cls-8" d="M1087.68,294.55a3.7,3.7,0,0,0,4,4,7.91,7.91,0,0,0,3.22-.59l.37,1.5a9.49,9.49,0,0,1-3.87.74c-3.57,0-5.72-2.38-5.72-5.86s2.08-6.27,5.47-6.27c3.78,0,4.77,3.33,4.77,5.46a4.9,4.9,0,0,1-.07,1Zm6.18-1.52c0-1.33-.54-3.41-2.91-3.41-2.16,0-3.07,1.94-3.24,3.41Z"/><path class="cls-8" d="M1098.52,291.5c0-1.21,0-2.17-.09-3.13h1.86l.12,1.91h.06a4.29,4.29,0,0,1,3.84-2.18c1.59,0,4.09,1,4.09,4.95V300h-2.1v-6.69c0-1.87-.71-3.45-2.69-3.45a3,3,0,0,0-2.84,2.17,3.2,3.2,0,0,0-.15,1v7h-2.1Z"/><path class="cls-8" d="M1110.48,302.94a34.76,34.76,0,0,0,1.44-5.75l2.35-.24a29.81,29.81,0,0,1-2.3,5.83Z"/><path class="cls-8" d="M522.14,311.73v14c0,1,0,2.19.09,3h-1.88l-.1-2h-.06a4.25,4.25,0,0,1-3.94,2.27c-2.81,0-5-2.38-5-5.9,0-3.88,2.39-6.24,5.22-6.24a3.89,3.89,0,0,1,3.5,1.76h0v-6.93ZM520,321.89a4.5,4.5,0,0,0-.09-.9,3.13,3.13,0,0,0-3.06-2.43c-2.18,0-3.49,1.92-3.49,4.47,0,2.35,1.17,4.31,3.45,4.31a3.18,3.18,0,0,0,3.08-2.53,3.29,3.29,0,0,0,.11-.91Z"/><path class="cls-8" d="M532.09,328.77l-.19-1.46h-.06a4.34,4.34,0,0,1-3.55,1.73,3.32,3.32,0,0,1-3.55-3.33c0-2.81,2.5-4.36,7-4.33v-.24a2.39,2.39,0,0,0-2.64-2.68,5.71,5.71,0,0,0-3,.86l-.48-1.4a7.33,7.33,0,0,1,3.83-1c3.55,0,4.42,2.43,4.42,4.75V326a18.06,18.06,0,0,0,.17,2.77Zm-.33-5.92c-2.28-.05-4.9.36-4.9,2.6a1.85,1.85,0,0,0,2,2,2.91,2.91,0,0,0,2.83-1.94,2.25,2.25,0,0,0,.1-.66Z"/><path class="cls-8" d="M550.74,321.19h-6.27V327h7v1.74h-9.12V312.6h8.75v1.74h-6.65v5.12h6.27Z"/><path class="cls-8" d="M554.09,311.73h2.1v17h-2.1Z"/><path class="cls-8" d="M559.76,311.73h2.1v17h-2.1Z"/><path class="cls-8" d="M567.78,313.89a1.31,1.31,0,1,1-2.62,0,1.29,1.29,0,0,1,1.32-1.32A1.27,1.27,0,0,1,567.78,313.89Zm-2.36,14.88v-11.6h2.1v11.6Z"/><path class="cls-8" d="M572.22,323.35a3.7,3.7,0,0,0,4,4,7.91,7.91,0,0,0,3.22-.59l.37,1.5a9.51,9.51,0,0,1-3.88.74c-3.56,0-5.71-2.38-5.71-5.86s2.07-6.27,5.46-6.27c3.79,0,4.78,3.33,4.78,5.46a4.9,4.9,0,0,1-.07,1Zm6.18-1.52c0-1.33-.55-3.41-2.91-3.41-2.16,0-3.08,1.94-3.25,3.41Z"/><path class="cls-8" d="M590.31,312.6v6.77h7.82V312.6h2.1v16.17h-2.1v-7.58h-7.82v7.58h-2.1V312.6Z"/><path class="cls-8" d="M606.48,323.69l-1.67,5.08h-2.17l5.51-16.17h2.51l5.52,16.17H614l-1.73-5.08Zm5.31-1.63-1.6-4.66c-.35-1.06-.59-2-.83-2.95h-.06c-.23.95-.48,1.93-.8,2.92l-1.59,4.69Z"/><path class="cls-8" d="M618.55,312.82a27.78,27.78,0,0,1,4.44-.35c3,0,5.14.71,6.56,2a7.42,7.42,0,0,1,2.29,5.79,8.6,8.6,0,0,1-2.33,6.29c-1.53,1.51-4,2.34-7.16,2.34a34.07,34.07,0,0,1-3.8-.18Zm2.09,14.31a14.38,14.38,0,0,0,2.11.1c4.47,0,6.89-2.48,6.89-6.86,0-3.82-2.14-6.23-6.55-6.23a12.8,12.8,0,0,0-2.45.21Z"/><path class="cls-8" d="M642.9,321.19h-6.27V327h7v1.74h-9.11V312.6h8.74v1.74h-6.64v5.12h6.27Z"/><path class="cls-8" d="M646.34,312.82a22.33,22.33,0,0,1,4-.35c2.22,0,3.68.42,4.69,1.33a4.05,4.05,0,0,1,1.27,3.08,4.26,4.26,0,0,1-3,4.12v.06c1.24.43,2,1.6,2.37,3.27a27.25,27.25,0,0,0,1.25,4.44h-2.17a21.25,21.25,0,0,1-1.06-3.87c-.48-2.21-1.36-3.07-3.25-3.14h-2v7h-2.08Zm2.08,7.36h2.14c2.24,0,3.65-1.21,3.65-3.07,0-2.1-1.51-3-3.72-3a9.18,9.18,0,0,0-2.07.19Z"/><path class="cls-8" d="M664.28,320.3c0-1.21,0-2.17-.1-3.13H666l.12,1.87h0a4,4,0,0,1,3.67-2.14,3.42,3.42,0,0,1,3.27,2.33h0a4.69,4.69,0,0,1,1.31-1.51,3.94,3.94,0,0,1,2.55-.82c1.55,0,3.83,1,3.83,5v6.83H678.8v-6.56c0-2.25-.83-3.58-2.52-3.58a2.76,2.76,0,0,0-2.51,1.9,3.46,3.46,0,0,0-.17,1.06v7.18h-2.06v-7c0-1.85-.82-3.18-2.41-3.18a2.91,2.91,0,0,0-2.63,2.11,3.19,3.19,0,0,0-.16,1v7h-2.06Z"/><path class="cls-8" d="M690.73,328.77l-.19-1.46h-.06a4.34,4.34,0,0,1-3.55,1.73,3.32,3.32,0,0,1-3.55-3.33c0-2.81,2.49-4.36,7-4.33v-.24a2.4,2.4,0,0,0-2.65-2.68,5.65,5.65,0,0,0-3,.86l-.48-1.4a7.31,7.31,0,0,1,3.83-1c3.55,0,4.42,2.43,4.42,4.75V326a18.06,18.06,0,0,0,.17,2.77Zm-.33-5.92c-2.29-.05-4.9.36-4.9,2.6a1.85,1.85,0,0,0,2,2,2.91,2.91,0,0,0,2.83-1.94,2.25,2.25,0,0,0,.1-.66Z"/><path class="cls-8" d="M695.86,320.78c0-1.37,0-2.54-.1-3.61h1.85l.08,2.27h.07A3.55,3.55,0,0,1,701,316.9a2.58,2.58,0,0,1,.58.06v2a3,3,0,0,0-.71-.06,3,3,0,0,0-2.83,2.7,6,6,0,0,0-.08,1v6.2h-2.1Z"/><path class="cls-8" d="M703.8,320.3c0-1.21,0-2.17-.09-3.13h1.83l.11,1.87h.06a4,4,0,0,1,3.67-2.14,3.42,3.42,0,0,1,3.27,2.33h.05a4.79,4.79,0,0,1,1.3-1.51,4,4,0,0,1,2.56-.82c1.55,0,3.83,1,3.83,5v6.83h-2.06v-6.56c0-2.25-.83-3.58-2.52-3.58a2.75,2.75,0,0,0-2.51,1.9,3.46,3.46,0,0,0-.17,1.06v7.18h-2.06v-7c0-1.85-.82-3.18-2.42-3.18a2.92,2.92,0,0,0-2.63,2.11,3.49,3.49,0,0,0-.16,1v7H703.8Z"/><path class="cls-8" d="M725,323.35a3.7,3.7,0,0,0,4,4,7.91,7.91,0,0,0,3.22-.59l.37,1.5a9.51,9.51,0,0,1-3.88.74c-3.56,0-5.71-2.38-5.71-5.86s2.07-6.27,5.46-6.27c3.79,0,4.78,3.33,4.78,5.46a4.9,4.9,0,0,1-.07,1Zm6.18-1.52c0-1.33-.55-3.41-2.91-3.41-2.16,0-3.08,1.94-3.24,3.41Z"/><path class="cls-8" d="M735.84,311.73h2.1v17h-2.1Z"/><path class="cls-8" d="M747.94,328.77l-.18-1.46h-.07a4.32,4.32,0,0,1-3.55,1.73,3.31,3.31,0,0,1-3.54-3.33c0-2.81,2.49-4.36,7-4.33v-.24a2.39,2.39,0,0,0-2.64-2.68,5.65,5.65,0,0,0-3,.86l-.48-1.4a7.28,7.28,0,0,1,3.83-1c3.54,0,4.41,2.43,4.41,4.75V326a18,18,0,0,0,.18,2.77Zm-.33-5.92c-2.28-.05-4.9.36-4.9,2.6a1.86,1.86,0,0,0,2,2,2.9,2.9,0,0,0,2.83-1.94,2,2,0,0,0,.1-.66Z"/><path class="cls-8" d="M763.09,311.73v14c0,1,0,2.19.1,3h-1.88l-.1-2h-.06a4.27,4.27,0,0,1-3.94,2.27c-2.81,0-5-2.38-5-5.9,0-3.88,2.39-6.24,5.21-6.24a3.89,3.89,0,0,1,3.51,1.76h0v-6.93ZM761,321.89a4.5,4.5,0,0,0-.08-.9,3.13,3.13,0,0,0-3.06-2.43c-2.19,0-3.49,1.92-3.49,4.47,0,2.35,1.17,4.31,3.44,4.31a3.18,3.18,0,0,0,3.09-2.53,3.73,3.73,0,0,0,.1-.91Z"/><path class="cls-8" d="M767.79,323.35a3.7,3.7,0,0,0,4,4,7.91,7.91,0,0,0,3.22-.59l.37,1.5a9.49,9.49,0,0,1-3.87.74c-3.57,0-5.72-2.38-5.72-5.86s2.08-6.27,5.47-6.27c3.78,0,4.77,3.33,4.77,5.46a4.9,4.9,0,0,1-.07,1Zm6.18-1.52c0-1.33-.54-3.41-2.91-3.41-2.16,0-3.07,1.94-3.24,3.41Z"/><path class="cls-8" d="M777.84,327.53a1.43,1.43,0,0,1,1.44-1.52,1.52,1.52,0,0,1,0,3A1.42,1.42,0,0,1,777.84,327.53Z"/><path class="cls-3" d="M1906.14,680.34l.37,0-.09-.07c0-.06-.17-.2-.16-.28,0-.33-.1-.33.22-.62a4.37,4.37,0,0,1,2.64-.56c2.07,0,4.12-.15,5.67-1.69a1.52,1.52,0,0,0-1.06-2.56,58,58,0,0,0-15.41.12c-1.51.2-1.34,2.55,0,2.89a56.85,56.85,0,0,0,11.82,1.71c3.12.12,7.19.32,9.27-2.51,1.83-2.48,1-6-2.17-6.83a14.17,14.17,0,0,0-4.86,0c-2,.2-3.9.46-5.84.75a125.72,125.72,0,0,0-13.3,2.81,1.51,1.51,0,0,0,.4,2.95l14.6-.1c2.46,0,9.27.73,8.85-3.58a1.55,1.55,0,0,0-1.5-1.5c-6.17-.53-12.3.59-18.36,1.66l-18.59,3.28c-1.7.3-1.25,2.93.4,3l23.49.22c3.83,0,7.67.16,11.5.11,2.16,0,5-.58,6.2-2.6,1.48-2.49-.56-5-3-5.53a16.71,16.71,0,0,0-4.12-.17l-5.95.2-22.81.78-26.29.89c-1.93.06-1.94,3.06,0,3l41.66-1.41,10.42-.36c1.59,0,3.18-.15,4.77-.15.68,0,2.48-.06,2.77.77.57,1.58-3.93,1.58-4.63,1.57l-10.5-.1-23.49-.22.39,2.94,18.12-3.19c6-1.06,12-2.16,18-1.64l-1.5-1.5c.05.52.18,0-.06.19a2.36,2.36,0,0,1-.77.27,10.41,10.41,0,0,1-2.3.1l-5.69,0-11.63.08.4,3q5.76-1.56,11.65-2.55,3.11-.51,6.22-.86c1.38-.15,3.47-.71,4.81-.12s.52,2.11-.38,2.68c-1.42.89-3.4.73-5,.71a53.09,53.09,0,0,1-12.22-1.63v2.89a55.4,55.4,0,0,1,14.61,0l-1.06-2.56c-1.18,1.18-3.25.72-4.77.88a5.48,5.48,0,0,0-4.1,2c-1.73,2.51.84,6.55,3.85,5,1.72-.89.2-3.48-1.51-2.59Z"/><path class="cls-3" d="M1879.48,672.42,1829,670.84v6l41,.66v-6l-155.67,7.1c-51.33,2.34-102.88,6-154.28,3.71-28.88-1.27-57.55-4.95-86.19-8.71-1.47-.19-2.77,1.29-2.94,2.61a3,3,0,0,0,2.15,3.29c14.87,5.58,30.92,3.21,46.22,1.12a362.13,362.13,0,0,1,50.13-3c9.54,0,19.08.27,28.61.52l-.8-5.89a369,369,0,0,1-60.78,6.28l.8,5.89c15.52-6.12,32.24-5.64,48.59-4.27,17,1.43,33.64,3.3,50.65,1.64,9-.89,18-2.23,27-3.12s18.07-1.49,27.13-1.8a422.91,422.91,0,0,1,54.33,1.64c16,1.52,35.86,6.83,49.95-3.76,2.11-1.59,1.79-5.84-1.51-5.59l-43.31,3.23c-3.82.29-3.86,6.29,0,6l43.31-3.23-1.52-5.59c-12.12,9.1-29.12,4.78-42.94,3.34a422.69,422.69,0,0,0-54.31-2.16c-18.09.45-35.91,2.55-53.86,4.58a170.26,170.26,0,0,1-25.53,1.16c-8.36-.32-16.68-1.19-25-2-18.25-1.67-37.2-2.77-54.6,4.1-2.94,1.16-2.84,6,.8,5.89a378.65,378.65,0,0,0,62.38-6.5c3.42-.64,2.48-5.81-.8-5.89-16.68-.43-33.37-.87-50-.13-8.28.36-16.53,1-24.75,2.08-7.67,1-15.33,2.22-23.06,2.69-8.68.53-17.31,0-25.51-3.08l-.8,5.89c25.72,3.37,51.46,6.74,77.36,8.26,25.7,1.5,51.46,1.29,77.18.47,51.51-1.66,103-4.51,154.48-6.86l87.12-4c3.84-.18,3.88-5.94,0-6l-41-.66c-3.87-.06-3.86,5.88,0,6l50.48,1.58c3.86.12,3.86-5.88,0-6Z"/><path class="cls-3" d="M1602.16,675.92c17.51,1.47,35,2.94,52.56,4.05s35.06,1.83,52.62,1.83c9.93,0,19.86-.25,29.78-.79a3,3,0,0,0,0-6c-17.52,1-35.08,1-52.62.41s-35.09-1.71-52.6-3.07c-9.92-.76-19.83-1.6-29.74-2.43a3,3,0,0,0,0,6Z"/><path class="cls-3" d="M1856.28,681.83a58.43,58.43,0,0,1,13.66-3.23,3.09,3.09,0,0,0,3-3,3,3,0,0,0-3-3l-28.51.42a3,3,0,0,0-3,3,3.08,3.08,0,0,0,3,3,182.4,182.4,0,0,0,35,1.05,3.06,3.06,0,0,0,3-3,3,3,0,0,0-3-3,182.4,182.4,0,0,1-35-1.05v6l28.51-.42v-6a65.32,65.32,0,0,0-15.25,3.44,3.08,3.08,0,0,0-2.1,3.69,3,3,0,0,0,3.69,2.1Z"/><path class="cls-3" d="M1473.46,674.55q-28.65,2.61-57.43,3.67t-57.3.54c-9.36-.17-19.28-.2-27.89-4.36l-2.31,5.49a125.64,125.64,0,0,0,33,2.34c11.13-.71,21.87-3.48,32.85-5.19a61.92,61.92,0,0,1,17.56-.59v-5.78l-21,3.87a3,3,0,0,0-2.15,3.3,3.07,3.07,0,0,0,3,2.6,169.6,169.6,0,0,0,51.81-1.78,3,3,0,0,0,2.1-3.69,3.06,3.06,0,0,0-3.69-2.09,164.6,164.6,0,0,1-50.22,1.56l.8,5.89,21-3.88a3,3,0,0,0,0-5.78c-11.09-1.5-22,.68-32.81,2.82a135.06,135.06,0,0,1-32.46,2.85,117.18,117.18,0,0,1-18.1-2.24,3,3,0,0,0-3.54,1.74,3,3,0,0,0,1.23,3.74c8.15,3.94,17.14,4.82,26.08,5.07,9.54.27,19.1.31,28.65.26q29.16-.13,58.27-1.89,16.35-1,32.65-2.47a3.08,3.08,0,0,0,3-3,3,3,0,0,0-3-3Z"/><path class="cls-3" d="M1196.19,680.9q28.69,1.9,57.48,2,28.63,0,57.23-1.76,16.21-1,32.37-2.65a3.08,3.08,0,0,0,3-3,3,3,0,0,0-3-3q-28.62,2.87-57.38,3.87t-57.26.15q-16.23-.5-32.44-1.57a3,3,0,0,0,0,6Z"/><rect class="cls-25" x="-0.02" y="669" width="1920.04" height="10" transform="translate(-4.19 6.01) rotate(-0.36)"/><path class="cls-26" d="M283.65,944.71h0c11.82-3.29,19.43-20.05,16.91-37.24l-11.35-77.69c-2.51-17.19-14.24-28.57-26-25.29h0c-11.82,3.29-19.43,20-16.92,37.25l11.36,77.68C260.11,936.62,271.83,948,283.65,944.71Z"/><path class="cls-26" d="M196.9,943.88h0c-11.62-4.09-18.32-21.34-14.89-38.33l15.49-76.77c3.43-17,15.74-27.55,27.36-23.46h0c11.61,4.09,18.31,21.34,14.89,38.33l-15.5,76.77C220.83,937.41,208.52,948,196.9,943.88Z"/><path class="cls-22" d="M149.77,939.41h0c-10.71-7.23-14.83-26.15-9.14-42l25.7-71.82c5.69-15.89,19.11-23,29.82-15.75h0c10.72,7.22,14.83,26.14,9.14,42L179.6,923.65C173.91,939.54,160.49,946.63,149.77,939.41Z"/><path class="cls-22" d="M334.3,939.41h0c10.71-7.23,14.83-26.15,9.14-42l-25.7-71.82c-5.68-15.89-19.11-23-29.82-15.75h0c-10.72,7.22-14.83,26.14-9.14,42l25.7,71.81C310.16,939.54,323.58,946.63,334.3,939.41Z"/><rect class="cls-22" x="215.53" y="803.2" width="43.9" height="142.8" rx="21.95" transform="translate(474.97 1749.2) rotate(-180)"/><path class="cls-21" d="M340.8,890V675.07c0-17.09-8.67-31.07-19.26-31.07h-159c-10.6,0-19.27,14-19.27,31.07V890Z"/><rect class="cls-6" x="332.94" y="638.15" width="56" height="157.63" rx="28" transform="translate(-336.47 319.56) rotate(-33.6)"/><rect class="cls-6" x="83.94" y="635.15" width="56" height="157.63" rx="28" transform="translate(-189.94 1370.57) rotate(-146.4)"/><rect class="cls-27" x="430.5" y="618" width="157" height="138.5" rx="12"/><rect class="cls-28" x="430.5" y="727" width="157" height="13.5"/><rect class="cls-28" x="430.5" y="681" width="157" height="13.5"/><rect class="cls-29" x="431" y="704" width="157" height="15"/><rect class="cls-29" x="430" y="657" width="157" height="15"/><circle class="cls-3" cx="458" cy="633" r="5"/><circle class="cls-3" cx="504" cy="635" r="5"/><circle class="cls-3" cx="560" cy="633" r="5"/><circle class="cls-7" cx="482" cy="643" r="5"/><circle class="cls-7" cx="534" cy="641" r="5"/><rect class="cls-30" x="472.07" y="584" width="3" height="34"/><rect class="cls-30" x="505" y="583" width="3" height="34"/><rect class="cls-30" x="538" y="584" width="3" height="34"/><path class="cls-31" d="M473.49,559.37c-11,21.13,0,27.13,0,27.13Z"/><path class="cls-31" d="M473.5,559.37c11,21.13,0,27.13,0,27.13Z"/><path class="cls-31" d="M506.49,559.37c-11,21.13,0,27.13,0,27.13Z"/><path class="cls-31" d="M506.5,559.37c11,21.13,0,27.13,0,27.13Z"/><path class="cls-31" d="M539.49,559.37c-11,21.13,0,27.13,0,27.13Z"/><path class="cls-31" d="M539.5,559.37c11,21.13,0,27.13,0,27.13Z"/></svg>
