<svg xmlns="http://www.w3.org/2000/svg" viewBox="0 0 133.91 124.23"><defs><style>.cls-1,.cls-3{stroke:#020202;}.cls-1,.cls-2,.cls-3{stroke-miterlimit:10;}.cls-1{stroke-width:3px;}.cls-2{stroke:#060707;}.cls-2,.cls-3{stroke-width:2px;}.cls-4{fill:#caebf4;}.cls-5{fill:#b6d4d6;}.cls-6{fill:#ed96b8;}.cls-7{fill:#fff;}.cls-8{fill:#020101;}.cls-9{fill:#869ea3;}.cls-10{fill:#fcfcfc;}</style></defs><g id="Layer_2" data-name="Layer 2"><g id="Layer_1-2" data-name="Layer 1"><path class="cls-1" d="M80,93.23l.71,30Z"/><path class="cls-1" d="M95.27,122.73h0Z"/><path class="cls-1" d="M55,93.23l-.72,30Z"/><path class="cls-1" d="M39.66,122.73h0Z"/><path class="cls-2" d="M112.57,67,87.91,39.72Z"/><path class="cls-2" d="M112.57,67l21.24,2Z"/><path class="cls-2" d="M112.57,67l13.6,15Z"/><path class="cls-2" d="M111.37,88.14,112.57,67Z"/><path class="cls-3" d="M21.22,74.19,47.1,48.11Z"/><path class="cls-3" d="M21.22,74.19l-.89,21.32Z"/><path class="cls-3" d="M21.22,74.19,7,88.57Z"/><path class="cls-3" d="M0,74.12l21.22.07Z"/><path class="cls-4" d="M36.77,14.23,29.11,3.32,36.77,2s17,12.19,28,9.19c0,0,29-.46,36-11.23V10l-4,5.27s5,25.58,4,33.29c0,0,.72,24.65-.64,33.18L96.77,91l2.65,6.1L95.05,102l-3.32-2.08s-25.3,3.83-26.13,1.59c0,0-23.53-.74-24.68-5.49l-8.34,6-3.47-8,3.47-2s-1.69-36.32,0-37.28C32.58,54.69,34.27,13.73,36.77,14.23Z"/><path class="cls-5" d="M38.88,61.62a229.91,229.91,0,0,1,5-51.93A6.85,6.85,0,0,1,45.09,7a71.68,71.68,0,0,1-8.32-5L29.11,3.32l7.66,10.91c-2.5-.5-4.19,40.46-4.19,40.46-1.69,1,0,37.28,0,37.28l-3.47,2,3.47,8,8.34-6c.41,1.68,3.62,2.86,7.59,3.68C41.15,88.79,39,74.36,38.88,61.62Z"/><path class="cls-6" d="M70.72,53.09a178.6,178.6,0,0,1-38.07-4.37l.24-1c.4.1,39.72,9.72,68.22,0l.32,1C91.78,52,80.91,53.09,70.72,53.09Z"/><path class="cls-6" d="M53.88,47a2.23,2.23,0,0,1-.49-1.56v-.48h1.25v.57c0,.55.22.82.68.82a.66.66,0,0,0,.51-.2.93.93,0,0,0,.17-.64,1.79,1.79,0,0,0-.24-.93,4.46,4.46,0,0,0-.88-1,5,5,0,0,1-1.14-1.3A2.6,2.6,0,0,1,53.41,41a2.15,2.15,0,0,1,.51-1.54,1.86,1.86,0,0,1,1.46-.55,1.79,1.79,0,0,1,1.43.55A2.23,2.23,0,0,1,57.3,41v.35H56.05v-.43a.91.91,0,0,0-.17-.63.6.6,0,0,0-.49-.2c-.44,0-.66.27-.66.8a1.57,1.57,0,0,0,.25.86,4.81,4.81,0,0,0,.89,1A5,5,0,0,1,57,44a2.92,2.92,0,0,1,.31,1.38A2.27,2.27,0,0,1,56.81,47a1.9,1.9,0,0,1-1.48.55A1.83,1.83,0,0,1,53.88,47Z"/><path class="cls-6" d="M58.54,47A2.19,2.19,0,0,1,58,45.39V39h1.32v6.5a.91.91,0,0,0,.18.63.61.61,0,0,0,.49.19.62.62,0,0,0,.5-.19.91.91,0,0,0,.18-.63V39H62v6.41A2.19,2.19,0,0,1,61.46,47a2.21,2.21,0,0,1-2.92,0Z"/><path class="cls-6" d="M62.9,39h1.32v3.54L65.9,39h1.32l-1.57,3.08,1.6,5.32H65.87l-1.12-3.74-.53,1.06v2.68H62.9Z"/><path class="cls-6" d="M67.87,39h1.32v3.54L70.87,39h1.32l-1.57,3.08,1.59,5.32H70.83l-1.11-3.74-.53,1.06v2.68H67.87Z"/><path class="cls-6" d="M72.84,39h3.6v1.2H74.16V42.4H76v1.2H74.16v2.58h2.28v1.2h-3.6Z"/><path class="cls-6" d="M77.19,39h2a1.69,1.69,0,0,1,2,1.93v.52q0,1.3-.87,1.65v0a1,1,0,0,1,.68.59,3,3,0,0,1,.2,1.18v1.48c0,.24,0,.43,0,.58a1.69,1.69,0,0,0,.12.44H79.92a2.15,2.15,0,0,1-.1-.38c0-.12,0-.34,0-.65V44.81a1.25,1.25,0,0,0-.19-.8.79.79,0,0,0-.64-.23h-.46v3.6H77.19Zm1.8,3.6a.82.82,0,0,0,.6-.2,1,1,0,0,0,.2-.69V41a1.07,1.07,0,0,0-.17-.66.61.61,0,0,0-.51-.2h-.6v2.4Z"/><path class="cls-7" d="M73.21,21.23c-1.91,0-3.57,2.17-4.44,5.37-.86-3.2-2.52-5.37-4.43-5.37-2.8,0-5.07,4.66-5.07,10.4a19.81,19.81,0,0,0,.17,2.6H78.11a21.74,21.74,0,0,0,.16-2.6C78.27,25.89,76,21.23,73.21,21.23Z"/><path class="cls-8" d="M71.92,25.23c-1.32,0-2.47,1.51-3.07,3.72-.6-2.21-1.75-3.72-3.07-3.72-1.94,0-3.51,3.23-3.51,7.2a13,13,0,0,0,.12,1.8H75.31a14.7,14.7,0,0,0,.12-1.8C75.43,28.46,73.86,25.23,71.92,25.23Z"/><path class="cls-9" d="M92.27,62c-25.89,31.89-48.2-.77-48.2-.77Z"/><rect class="cls-10" x="59.32" y="61.23" width="6.87" height="6.87"/><rect class="cls-10" x="67.55" y="61.23" width="4.81" height="4.81"/><path class="cls-6" d="M70.06,35.09a163.78,163.78,0,0,1-36.41-4.37l.25-1c.38.1,38,9.72,65.2,0l.34.94C90.21,34,79.81,35.09,70.06,35.09Z"/></g></g></svg>
