<svg id="Layer_1" data-name="Layer 1" xmlns="http://www.w3.org/2000/svg" viewBox="0 0 240 240"><defs><style>.cls-1{fill:#070707;}.cls-2{fill:#0a0a0a;}.cls-3{fill:#cacaca;}.cls-4{fill:#cbcbcb;}.cls-5{opacity:0.47;}.cls-6{fill:#575757;}.cls-7{fill:#8f8f8f;}.cls-8{fill:#b4b4b4;}.cls-9{fill:#e2e2e2;}</style></defs><path class="cls-1" d="M144.57,78l13.75-25"/><rect class="cls-2" x="137.17" y="64.02" width="28.56" height="3" transform="translate(21.12 166.74) rotate(-61.23)"/><path class="cls-3" d="M170.16,31.42c-19.8,13.23-13.06,23.77-13.06,23.77Z"/><path class="cls-3" d="M170.17,31.42c-.54,23.81-13.06,23.78-13.06,23.78Z"/><path class="cls-4" d="M197.37,203.18a17.51,17.51,0,0,0,2.55-5.37,38.82,38.82,0,0,0-3.37,6.07C196.82,203.64,197.09,203.4,197.37,203.18Z"/><path class="cls-4" d="M168.26,160.12c2.09-5.42,7-7.76,12.37-8.48-3.53-.78-7-2.31-9.12-5a7.23,7.23,0,0,1-.91-8c1.53-2.95,4.59-4.69,7.52-6a6,6,0,0,1,2.08-.5,9.33,9.33,0,0,1,.55-.84c-4.67-5.19-8.5-12-7.07-18.75a14.73,14.73,0,0,1,1.28-3.53,5.74,5.74,0,0,1-5.94-1.71c-5.08-6.7-10.92-13.7-12.91-22.07a23.13,23.13,0,0,1-.61-4.41,5.09,5.09,0,0,1-.55-1.15,11.69,11.69,0,0,1,.25-7.86H60.36a12,12,0,0,0-12,12v114.5a12,12,0,0,0,12,12H176.5a27.45,27.45,0,0,1,.84-16.91,42.9,42.9,0,0,1,11.23-16.22,22.33,22.33,0,0,1-4.76-3.78C175.69,174.18,164.43,170,168.26,160.12Z"/><g class="cls-5"><path class="cls-6" d="M177.34,193.45A40.84,40.84,0,0,1,185,180.86H48.36v13.5H177C177.14,194.06,177.23,193.75,177.34,193.45Z"/></g><g class="cls-5"><path class="cls-6" d="M171.51,146.62a7.23,7.23,0,0,1-.91-8,10.75,10.75,0,0,1,3.51-3.8H48.36v13.5H173.27A11.58,11.58,0,0,1,171.51,146.62Z"/></g><path class="cls-7" d="M168.26,160.12a12.66,12.66,0,0,1,1.17-2.26H48.86v15H176.54C170.51,171.34,165.52,167.2,168.26,160.12Z"/><path class="cls-7" d="M173.68,112.59a14.32,14.32,0,0,1,.5-1.73H47.86v15H176.65C174.17,121.74,172.71,117.13,173.68,112.59Z"/><circle class="cls-8" cx="75.86" cy="86.86" r="5"/><circle class="cls-8" cx="121.86" cy="88.86" r="5"/><circle class="cls-9" cx="99.86" cy="96.86" r="5"/><circle class="cls-9" cx="151.86" cy="94.86" r="5"/><rect class="cls-2" x="89.94" y="37.86" width="3" height="34"/><rect class="cls-2" x="122.86" y="36.86" width="3" height="34"/><path class="cls-3" d="M91.35,13.23c-11,21.13,0,27.13,0,27.13Z"/><path class="cls-3" d="M91.36,13.23c11,21.13,0,27.13,0,27.13Z"/><path class="cls-3" d="M124.35,13.23c-11,21.13,0,27.13,0,27.13Z"/><path class="cls-3" d="M124.36,13.23c11,21.13,0,27.13,0,27.13Z"/></svg>
